<?xml version="1.0" encoding="utf-8"?>
<!-- Generator: Adobe Illustrator 21.0.0, SVG Export Plug-In . SVG Version: 6.00 Build 0)  -->
<svg version="1.1" id="图层_1" xmlns="http://www.w3.org/2000/svg" xmlns:xlink="http://www.w3.org/1999/xlink" x="0px" y="0px"
	 viewBox="0 0 34 34" style="enable-background:new 0 0 34 34;" xml:space="preserve">
<style type="text/css">
	.st0{fill:url(#SVGID_1_);}
	.st1{fill:url(#SVGID_2_);}
	.st2{fill:url(#SVGID_3_);}
</style>
<g>
	<g>
		<linearGradient id="SVGID_1_" gradientUnits="userSpaceOnUse" x1="10.278" y1="32.854" x2="10.278" y2="19.0028">
			<stop  offset="0" style="stop-color:#FFFFFF;stop-opacity:0.6"/>
			<stop  offset="1" style="stop-color:#FFFFFF"/>
		</linearGradient>
		<path class="st0" d="M5.1,28.6c0,2.4,1.9,4.3,4.3,4.3h6V19H5.1V28.6z"/>
	</g>
	<g>
		<linearGradient id="SVGID_2_" gradientUnits="userSpaceOnUse" x1="23.722" y1="32.854" x2="23.722" y2="19.0028">
			<stop  offset="0" style="stop-color:#FFFFFF;stop-opacity:0.6"/>
			<stop  offset="1" style="stop-color:#FFFFFF"/>
		</linearGradient>
		<path class="st1" d="M18.6,32.9h6c2.4,0,4.3-1.9,4.3-4.3V19H18.6V32.9z"/>
	</g>
	<g>
		<linearGradient id="SVGID_3_" gradientUnits="userSpaceOnUse" x1="17" y1="17.3813" x2="17" y2="1.146">
			<stop  offset="0" style="stop-color:#FFFFFF;stop-opacity:0.6"/>
			<stop  offset="1" style="stop-color:#FFFFFF"/>
		</linearGradient>
		<path class="st2" d="M31.1,8h-3.6l0.1-0.1c1.4-1.9,0.9-4.6-1.1-6c-0.9-0.7-2.1-0.9-3.2-0.7C22.2,1.4,21.2,2,20.6,3l-3.5,5h-0.2
			l-3.5-5c-0.7-0.9-1.6-1.6-2.8-1.8C9.5,1,8.4,1.3,7.5,1.9c-1.9,1.4-2.4,4-1.1,6L6.5,8H2.9C1.6,8,0.5,9,0.5,10.3V15
			c0,1.3,1.1,2.4,2.4,2.4h12.6V8.2h3.1v9.2h12.6c1.3,0,2.4-1.1,2.4-2.4v-4.7C33.5,9,32.4,8,31.1,8z M8.4,8L7.7,7
			C6.9,5.8,7.2,4.1,8.4,3.2c0.6-0.4,1.3-0.6,2-0.4c0.7,0.1,1.3,0.5,1.7,1.1L15,8H8.4z M19,8l2.9-4.1c0.4-0.6,1-1,1.7-1.1
			c0.7-0.1,1.4,0,2,0.4c1.2,0.9,1.5,2.5,0.7,3.8l-0.7,1H19z"/>
	</g>
</g>
</svg>
