<?xml version="1.0" encoding="utf-8"?>
<!-- Generator: Adobe Illustrator 21.0.0, SVG Export Plug-In . SVG Version: 6.00 Build 0)  -->
<svg version="1.1" id="图层_1" xmlns="http://www.w3.org/2000/svg" xmlns:xlink="http://www.w3.org/1999/xlink" x="0px" y="0px"
	 viewBox="0 0 34 34" style="enable-background:new 0 0 34 34;" xml:space="preserve">
<style type="text/css">
	.st0{fill:url(#SVGID_1_);}
</style>
<linearGradient id="SVGID_1_" gradientUnits="userSpaceOnUse" x1="17" y1="33.8076" x2="17" y2="0.1924">
	<stop  offset="0" style="stop-color:#FFFFFF;stop-opacity:0.6"/>
	<stop  offset="1" style="stop-color:#FFFFFF"/>
</linearGradient>
<path class="st0" d="M30.4,28.3l-2.2-3.9c-0.2-0.4-0.3-0.8-0.3-1.3l0.3-8.2c0-4.8-3.1-8.9-7.3-10.5c-0.1-2.8-2.2-4.3-3.9-4.3
	s-3.8,1.5-3.9,4.3C8.9,6,5.8,10.2,5.8,14.9l0.1,8.2c0,0.4-0.1,0.8-0.3,1.1l-2,4c-0.3,0.6,0.1,1.3,0.8,1.3h6.7
	c0.1,2.4,2.8,4.2,6.1,4.2c3.3,0,6-1.9,6.1-4.2h6.3C30.3,29.6,30.7,28.9,30.4,28.3z"/>
</svg>
