<?xml version="1.0" encoding="utf-8"?>
<!-- Generator: Adobe Illustrator 21.0.0, SVG Export Plug-In . SVG Version: 6.00 Build 0)  -->
<svg version="1.1" id="图层_1" xmlns="http://www.w3.org/2000/svg" xmlns:xlink="http://www.w3.org/1999/xlink" x="0px" y="0px"
	 viewBox="0 0 44 34" style="enable-background:new 0 0 44 34;" xml:space="preserve">
<style type="text/css">
	.st0{fill:url(#SVGID_1_);}
	.st1{fill:url(#SVGID_2_);}
	.st2{fill:url(#SVGID_3_);}
	.st3{fill:url(#SVGID_4_);}
</style>
<g>
	<linearGradient id="SVGID_1_" gradientUnits="userSpaceOnUse" x1="34.2868" y1="11.5967" x2="34.2868" y2="8.752">
		<stop  offset="0" style="stop-color:#FFFFFF;stop-opacity:0.6"/>
		<stop  offset="1" style="stop-color:#FFFFFF"/>
	</linearGradient>
	<path class="st0" d="M26.2,11.6h16.1c0.8,0,1.4-0.6,1.4-1.4c0-0.8-0.6-1.4-1.4-1.4H26.2c-0.8,0-1.4,0.6-1.4,1.4
		C24.8,11,25.4,11.6,26.2,11.6z"/>
	<linearGradient id="SVGID_2_" gradientUnits="userSpaceOnUse" x1="34.2868" y1="18.4224" x2="34.2868" y2="15.5776">
		<stop  offset="0" style="stop-color:#FFFFFF;stop-opacity:0.6"/>
		<stop  offset="1" style="stop-color:#FFFFFF"/>
	</linearGradient>
	<path class="st1" d="M42.3,15.6H26.2c-0.8,0-1.4,0.6-1.4,1.4s0.6,1.4,1.4,1.4h16.1c0.8,0,1.4-0.6,1.4-1.4S43.1,15.6,42.3,15.6z"/>
	<linearGradient id="SVGID_3_" gradientUnits="userSpaceOnUse" x1="39.0282" y1="25.248" x2="39.0282" y2="22.4033">
		<stop  offset="0" style="stop-color:#FFFFFF;stop-opacity:0.6"/>
		<stop  offset="1" style="stop-color:#FFFFFF"/>
	</linearGradient>
	<path class="st2" d="M42.3,22.4h-6.6c-0.8,0-1.4,0.6-1.4,1.4c0,0.8,0.6,1.4,1.4,1.4h6.6c0.8,0,1.4-0.6,1.4-1.4
		C43.8,23,43.1,22.4,42.3,22.4z"/>
	<linearGradient id="SVGID_4_" gradientUnits="userSpaceOnUse" x1="13.3698" y1="30.75" x2="13.3698" y2="3.25">
		<stop  offset="0" style="stop-color:#FFFFFF;stop-opacity:0.6"/>
		<stop  offset="1" style="stop-color:#FFFFFF"/>
	</linearGradient>
	<path class="st3" d="M15.8,18.4c3.1-1,5.3-3.9,5.3-7.4c0-4.3-3.5-7.8-7.8-7.8c-4.3,0-7.8,3.5-7.8,7.8c0,3.4,2.2,6.3,5.3,7.4
		c-6,1.1-10.5,6.1-10.7,12.3h26.3C26.3,24.5,21.8,19.5,15.8,18.4z"/>
</g>
</svg>
