<?xml version="1.0" encoding="utf-8"?>
<!-- Generator: Adobe Illustrator 21.0.0, SVG Export Plug-In . SVG Version: 6.00 Build 0)  -->
<svg version="1.1" id="图层_1" xmlns="http://www.w3.org/2000/svg" xmlns:xlink="http://www.w3.org/1999/xlink" x="0px" y="0px"
	 viewBox="0 0 35 34" style="enable-background:new 0 0 35 34;" xml:space="preserve">
<style type="text/css">
	.st0{fill:url(#SVGID_1_);}
	.st1{fill:url(#SVGID_2_);}
</style>
<g>
	<linearGradient id="SVGID_1_" gradientUnits="userSpaceOnUse" x1="17.5" y1="32.6667" x2="17.5" y2="1.3333">
		<stop  offset="0" style="stop-color:#FFFFFF;stop-opacity:0.6"/>
		<stop  offset="1" style="stop-color:#FFFFFF"/>
	</linearGradient>
	<path class="st0" d="M31.9,12.3C30.1,6,24.3,1.3,17.5,1.3S4.9,6,3.1,12.3c-1.7,0.7-2.8,2.3-2.8,4.2c0,2,1.3,3.7,3,4.3
		c0.2,0.3,0.6,0.5,0.9,0.4c0.4-0.1,0.7-0.6,0.5-1c-0.4-1.3-0.6-2.6-0.6-3.9c0-7.3,6-13.3,13.3-13.3s13.3,6,13.3,13.3
		c0,6-4,11.1-9.5,12.8c-0.4-0.7-1.2-1.2-2.1-1.2h-3.3c-1.3,0-2.4,1.1-2.4,2.4v0c0,1.3,1.1,2.4,2.4,2.4h3.3c1.2,0,2.2-0.9,2.4-2.1
		c4.8-1.4,8.6-5.1,10.1-9.8c1.7-0.7,3-2.3,3-4.3C34.7,14.6,33.5,13,31.9,12.3z"/>
	<linearGradient id="SVGID_2_" gradientUnits="userSpaceOnUse" x1="17.4787" y1="25.5169" x2="17.4787" y2="18.351">
		<stop  offset="0" style="stop-color:#FFFFFF;stop-opacity:0.6"/>
		<stop  offset="1" style="stop-color:#FFFFFF"/>
	</linearGradient>
	<path class="st1" d="M24.8,19.5c0.1-0.4-0.2-0.9-0.6-0.9c-0.4-0.1-0.9,0.2-0.9,0.6c-0.6,2.7-3,4.7-5.7,4.7c-2.9,0-5.3-2.1-5.8-4.9
		c-0.1-0.4-0.5-0.7-0.9-0.7c-0.4,0.1-0.7,0.5-0.7,0.9c0.6,3.6,3.7,6.2,7.4,6.2C21,25.5,24.1,23,24.8,19.5z"/>
</g>
</svg>
