<?xml version="1.0" encoding="utf-8"?>
<!-- Generator: Adobe Illustrator 21.0.0, SVG Export Plug-In . SVG Version: 6.00 Build 0)  -->
<svg version="1.1" id="图层_1" xmlns="http://www.w3.org/2000/svg" xmlns:xlink="http://www.w3.org/1999/xlink" x="0px" y="0px"
	 viewBox="0 0 37 37" style="enable-background:new 0 0 37 37;" xml:space="preserve">
<style type="text/css">
	.st0{opacity:0.5;fill:#1787DD;}
	.st1{fill:#FFFFFF;}
</style>
<g>
	<circle class="st0" cx="18.5" cy="18.5" r="18.5"/>
	<g>
		<path class="st1" d="M18.5,30.1L18.5,30.1c-1.3,0-2.3-1-2.3-2.3V9.2c0-1.3,1-2.3,2.3-2.3h0c1.3,0,2.3,1,2.3,2.3v18.5
			C20.8,29,19.8,30.1,18.5,30.1z"/>
		<path class="st1" d="M6.9,18.5L6.9,18.5c0-1.3,1-2.3,2.3-2.3h18.5c1.3,0,2.3,1,2.3,2.3v0c0,1.3-1,2.3-2.3,2.3H9.2
			C8,20.8,6.9,19.8,6.9,18.5z"/>
	</g>
</g>
</svg>
