<?xml version="1.0" encoding="utf-8"?>
<!-- Generator: Adobe Illustrator 21.0.0, SVG Export Plug-In . SVG Version: 6.00 Build 0)  -->
<svg version="1.1" id="图层_1" xmlns="http://www.w3.org/2000/svg" xmlns:xlink="http://www.w3.org/1999/xlink" x="0px" y="0px"
	 viewBox="0 0 32 32" style="enable-background:new 0 0 32 32;" xml:space="preserve">
<style type="text/css">
	.st0{fill:#1787DD;}
	.st1{fill:#FFFFFF;}
</style>
<g>
	<circle class="st0" cx="16" cy="16" r="16"/>
	<g>
		<path class="st1" d="M23.5,17.9h-15c-1,0-1.9-0.8-1.9-1.9v0c0-1,0.8-1.9,1.9-1.9h15c1,0,1.9,0.8,1.9,1.9v0
			C25.4,17,24.5,17.9,23.5,17.9z"/>
		<path class="st1" d="M17.9,8.5v15c0,1-0.8,1.9-1.9,1.9h0c-1,0-1.9-0.8-1.9-1.9v-15c0-1,0.8-1.9,1.9-1.9h0
			C17,6.6,17.9,7.5,17.9,8.5z"/>
	</g>
</g>
</svg>
