<svg xmlns="http://www.w3.org/2000/svg" viewBox="0 0 120 120"><defs><style>.cls-1{fill:none;stroke:#1787dd;stroke-miterlimit:10;stroke-width:4px;opacity:0.2;}.cls-2{fill:#1787dd;}.cls-3{fill:#fa5151;}</style></defs><title>资源 4</title><g id="图层_2" data-name="图层 2"><g id="图层_1-2" data-name="图层 1"><circle class="cls-1" cx="60" cy="60" r="58"/><rect class="cls-2" x="40" y="52" width="40" height="4" rx="2" ry="2"/><rect class="cls-2" x="48" y="64.5" width="24" height="4" rx="2" ry="2"/><rect class="cls-3" x="76.5" y="80.5" width="20" height="4" rx="2" ry="2"/><rect class="cls-3" x="76.5" y="80.5" width="20" height="4" rx="2" ry="2" transform="translate(4 169) rotate(-90)"/><path class="cls-2" d="M60,96.5h0Z"/><path class="cls-2" d="M59.94,96.5h0Z"/><path class="cls-2" d="M76.87,89.65a1.86,1.86,0,0,0-2.32-.6A32.27,32.27,0,0,1,60,92.5H40.38a6.88,6.88,0,0,1-6.88-6.88V78.83l-.35-.51a32.34,32.34,0,0,1-5.64-19.17A32.5,32.5,0,1,1,91,69.66a1.85,1.85,0,0,0,1,2.18l.17.09a1.85,1.85,0,0,0,2.66-1A36.5,36.5,0,1,0,29.5,80.06v5.56A10.88,10.88,0,0,0,40.38,96.5H60.26a60.1,60.1,0,0,0,6.35-.6,36.2,36.2,0,0,0,9.78-3.29A1.86,1.86,0,0,0,77,89.8Z"/></g></g></svg>