<svg xmlns="http://www.w3.org/2000/svg" viewBox="0 0 116 116"><defs><style>.cls-1{fill:#1787dd;}.cls-2,.cls-3{fill:#fff;}.cls-2{opacity:0.4;}.cls-4{fill:#fa5151;}</style></defs><title>资源 5</title><g id="图层_2" data-name="图层 2"><g id="图层_1-2" data-name="图层 1"><circle class="cls-1" cx="58" cy="58" r="58"/><circle class="cls-2" cx="74.5" cy="51.5" r="16.5"/><rect class="cls-3" x="38" y="50" width="40" height="4" rx="2" ry="2"/><rect class="cls-3" x="46" y="62.5" width="24" height="4" rx="2" ry="2"/><rect class="cls-4" x="74.5" y="78.5" width="20" height="4" rx="2" ry="2"/><rect class="cls-4" x="74.5" y="78.5" width="20" height="4" rx="2" ry="2" transform="translate(4 165) rotate(-90)"/><path class="cls-3" d="M58,94.5h0Z"/><path class="cls-3" d="M57.94,94.5h0Z"/><path class="cls-3" d="M74.87,87.65a1.86,1.86,0,0,0-2.32-.6A32.27,32.27,0,0,1,58,90.5H38.38a6.88,6.88,0,0,1-6.88-6.88V76.83l-.35-.51a32.34,32.34,0,0,1-5.64-19.17A32.5,32.5,0,1,1,89,67.66a1.85,1.85,0,0,0,1,2.18l.17.09a1.85,1.85,0,0,0,2.66-1A36.5,36.5,0,1,0,27.5,78.06v5.56A10.88,10.88,0,0,0,38.38,94.5H58.26a60.1,60.1,0,0,0,6.35-.6,36.2,36.2,0,0,0,9.78-3.29A1.86,1.86,0,0,0,75,87.8Z"/></g></g></svg>