<?xml version="1.0" encoding="utf-8"?>
<!-- Generator: Adobe Illustrator 21.0.0, SVG Export Plug-In . SVG Version: 6.00 Build 0)  -->
<svg version="1.1" id="图层_1" xmlns="http://www.w3.org/2000/svg" xmlns:xlink="http://www.w3.org/1999/xlink" x="0px" y="0px"
	 viewBox="0 0 27 27" style="enable-background:new 0 0 27 27;" xml:space="preserve">
<style type="text/css">
	.st0{fill:#1787DD;}
	.st1{fill:#FFFFFF;}
</style>
<g>
	<g>
		<circle class="st0" cx="13.5" cy="13.5" r="13.5"/>
	</g>
	<g>
		<path class="st1" d="M10.6,9.1l0.2-1.2c0-0.5,0.4-0.8,0.8-0.8h3.8c0.5,0,0.8,0.4,0.8,0.8l0.2,1.2"/>
		<path class="st1" d="M19.8,20H7.2c-1.1,0-2-0.9-2-2v-6.9c0-1.1,0.9-2,2-2h12.5c1.1,0,2,0.9,2,2v6.9C21.8,19,20.9,20,19.8,20z"/>
		<circle class="st0" cx="13.5" cy="14.5" r="3.7"/>
		<circle class="st1" cx="13.5" cy="14.5" r="2.7"/>
	</g>
</g>
</svg>
