<?xml version="1.0" encoding="utf-8"?>
<!-- Generator: Adobe Illustrator 21.0.0, SVG Export Plug-In . SVG Version: 6.00 Build 0)  -->
<svg version="1.1" id="图层_1" xmlns="http://www.w3.org/2000/svg" xmlns:xlink="http://www.w3.org/1999/xlink" x="0px" y="0px"
	 viewBox="0 0 39 39" style="enable-background:new 0 0 39 39;" xml:space="preserve">
<style type="text/css">
	.st0{fill:#1787DD;}
</style>
<g>
	<g>
		<path class="st0" d="M19.5,2C29.1,2,37,9.9,37,19.5S29.1,37,19.5,37S2,29.1,2,19.5S9.9,2,19.5,2 M19.5,0C8.7,0,0,8.7,0,19.5
			S8.7,39,19.5,39S39,30.3,39,19.5S30.3,0,19.5,0L19.5,0z"/>
	</g>
	<g>
		<g>
			<g>
				<path class="st0" d="M27.5,26.2L12.8,11.5c-0.4-0.4-1-0.4-1.3,0l0,0c-0.4,0.4-0.4,1,0,1.3l14.7,14.7c0.4,0.4,1,0.4,1.3,0l0,0
					C27.9,27.1,27.9,26.5,27.5,26.2z"/>
			</g>
		</g>
		<g>
			<g>
				<path class="st0" d="M12.9,27.5l14.6-14.6c0.4-0.4,0.4-1,0-1.4v0c-0.4-0.4-1-0.4-1.4,0L11.5,26.1c-0.4,0.4-0.4,1,0,1.4l0,0
					C11.9,27.9,12.5,27.9,12.9,27.5z"/>
			</g>
		</g>
	</g>
</g>
</svg>
