<?xml version="1.0" encoding="utf-8"?>
<!-- Generator: Adobe Illustrator 21.0.0, SVG Export Plug-In . SVG Version: 6.00 Build 0)  -->
<svg version="1.1" id="图层_1" xmlns="http://www.w3.org/2000/svg" xmlns:xlink="http://www.w3.org/1999/xlink" x="0px" y="0px"
	 viewBox="0 0 29 29" style="enable-background:new 0 0 29 29;" xml:space="preserve">
<style type="text/css">
	.st0{fill:#8ED2F8;}
</style>
<g>
	<g>
		<g>
			<path class="st0" d="M1.7,28.7L28.7,1.7c0.3-0.3,0.3-0.9,0-1.2l-0.2-0.2c-0.3-0.3-0.9-0.3-1.2,0L0.3,27.3c-0.3,0.3-0.3,0.9,0,1.2
				l0.2,0.2C0.8,29.1,1.3,29.1,1.7,28.7z"/>
		</g>
	</g>
	<g>
		<g>
			<path class="st0" d="M0.3,1.7l27.1,27.1c0.3,0.3,0.9,0.3,1.2,0l0.2-0.2c0.3-0.3,0.3-0.9,0-1.2L1.7,0.3c-0.3-0.3-0.9-0.3-1.2,0
				L0.3,0.5C-0.1,0.8-0.1,1.3,0.3,1.7z"/>
		</g>
	</g>
</g>
</svg>
