<?xml version="1.0" encoding="utf-8"?>
<!-- Generator: Adobe Illustrator 21.0.0, SVG Export Plug-In . SVG Version: 6.00 Build 0)  -->
<svg version="1.1" id="图层_1" xmlns="http://www.w3.org/2000/svg" xmlns:xlink="http://www.w3.org/1999/xlink" x="0px" y="0px"
	 viewBox="0 0 100 100" style="enable-background:new 0 0 100 100;" xml:space="preserve">
<style type="text/css">
	.st0{fill:#EEEEEE;}
	.st1{opacity:0.1;fill:#999999;enable-background:new    ;}
	.st2{fill:#666666;}
</style>
<g>
	<circle class="st0" cx="50" cy="50" r="50"/>
	<path class="st1" d="M50,95.3c-26.8,0-48.7-21.1-49.9-47.7C0,48.4,0,49.2,0,50c0,27.6,22.4,50,50,50s50-22.4,50-50
		c0-0.8,0-1.6-0.1-2.3C98.7,74.2,76.8,95.3,50,95.3z"/>
	<g>
		<g>
			<path class="st2" d="M48,53.5c-0.4,0-0.8-0.1-1.1-0.4c-1.7-1.7-2.6-4-2.6-6.4c0-2.4,0.9-4.7,2.6-6.4l11.8-11.8
				c1.7-1.7,4-2.6,6.4-2.6c2.4,0,4.7,0.9,6.4,2.6c3.5,3.5,3.5,9.3,0,12.8L59.7,53.1c-0.6,0.6-1.5,0.6-2.1,0s-0.6-1.5,0-2.1
				l11.8-11.8c2.4-2.4,2.4-6.2,0-8.6c-1.1-1.1-2.7-1.8-4.3-1.8c-1.6,0-3.1,0.6-4.3,1.8L49,42.4c-2.4,2.4-2.4,6.2,0,8.6
				c0.6,0.6,0.6,1.5,0,2.1C48.7,53.4,48.3,53.5,48,53.5z"/>
		</g>
		<g>
			<path class="st2" d="M34.9,74.1c-2.3,0-4.6-0.9-6.4-2.7c-1.7-1.7-2.6-4-2.6-6.4c0-2.4,0.9-4.7,2.6-6.4l11.8-11.8
				c0.6-0.6,1.5-0.6,2.1,0c0.6,0.6,0.6,1.5,0,2.1L30.6,60.8c-1.1,1.1-1.8,2.7-1.8,4.3c0,1.6,0.6,3.1,1.8,4.3c2.4,2.4,6.2,2.4,8.6,0
				L51,57.6c1.1-1.1,1.8-2.7,1.8-4.3c0-1.6-0.6-3.1-1.8-4.3l2.1-2.1c1.7,1.7,2.6,4,2.6,6.4c0,2.4-0.9,4.7-2.6,6.4L41.3,71.5
				C39.6,73.2,37.2,74.1,34.9,74.1z"/>
		</g>
	</g>
</g>
</svg>
