<?xml version="1.0" encoding="utf-8"?>
<!-- Generator: Adobe Illustrator 21.0.0, SVG Export Plug-In . SVG Version: 6.00 Build 0)  -->
<svg version="1.1" id="图层_1" xmlns="http://www.w3.org/2000/svg" xmlns:xlink="http://www.w3.org/1999/xlink" x="0px" y="0px"
	 viewBox="0 0 60 60" style="enable-background:new 0 0 60 60;" xml:space="preserve">
<style type="text/css">
	.st0{fill:#FFFFFF;}
	.st1{fill:#1787DD;}
</style>
<g>
	<g>
		<circle class="st0" cx="30" cy="30" r="30"/>
	</g>
</g>
<g>
	<g>
		<path class="st1" d="M17.1,29.4c0-1.4,0.2-2.7,0.6-3.9c-1.9,0.4-3.4,2.1-3.4,4.1c0,2.1,1.6,3.9,3.6,4.2
			C17.4,32.5,17.1,31,17.1,29.4z"/>
	</g>
	<g>
		<path class="st1" d="M42.3,25.5c0.4,1.2,0.6,2.5,0.6,3.9c0,1.5-0.3,3-0.8,4.4c2-0.3,3.6-2.1,3.6-4.2
			C45.7,27.6,44.2,25.9,42.3,25.5z"/>
	</g>
	<g>
		<path class="st1" d="M30,43.3c-0.6,0-1-0.4-1-1c0-0.6,0.4-1,1-1c6.5,0,11.9-5.3,11.9-11.9S36.6,17.5,30,17.5
			c-6.6,0.1-11.9,5.4-11.9,11.9c0,1.2,0.2,2.4,0.5,3.5c0.2,0.6-0.1,1.1-0.6,1.3s-1.1-0.1-1.3-0.7c-0.4-1.3-0.6-2.7-0.6-4.1
			c0-7.6,6.2-13.8,13.9-13.8s13.9,6.2,13.9,13.9C43.9,37.1,37.7,43.3,30,43.3z"/>
	</g>
	<g>
		<path class="st1" d="M30,38.2c-3.5,0-6.4-2.5-7-5.9c-0.1-0.5,0.3-1.1,0.8-1.2c0.5-0.1,1.1,0.3,1.2,0.8c0.4,2.5,2.5,4.2,5,4.2
			c2.4,0,4.5-1.7,5-4.1c0.1-0.5,0.6-0.9,1.2-0.8c0.5,0.1,0.9,0.6,0.8,1.2C36.3,35.8,33.4,38.2,30,38.2z"/>
	</g>
	<g>
		<path class="st1" d="M31.5,44.4h-3c-1.2,0-2.2-1-2.2-2.2l0,0c0-1.2,1-2.2,2.2-2.2h3c1.2,0,2.2,1,2.2,2.2l0,0
			C33.7,43.4,32.7,44.4,31.5,44.4z"/>
	</g>
</g>
</svg>
