<?xml version="1.0" encoding="utf-8"?>
<!-- Generator: Adobe Illustrator 21.0.0, SVG Export Plug-In . SVG Version: 6.00 Build 0)  -->
<svg version="1.1" id="图层_1" xmlns="http://www.w3.org/2000/svg" xmlns:xlink="http://www.w3.org/1999/xlink" x="0px" y="0px"
	 viewBox="0 0 24 24" style="enable-background:new 0 0 24 24;" xml:space="preserve">
<style type="text/css">
	.st0{fill:#D9D9D9;}
	.st1{fill:#FFFFFF;}
</style>
<g>
	<circle class="st0" cx="12" cy="12" r="12"/>
	<g>
		<path class="st1" d="M6.7,17.3L6.7,17.3c-0.3-0.3-0.3-0.8,0-1.1l9.5-9.5c0.3-0.3,0.8-0.3,1.1,0v0c0.3,0.3,0.3,0.8,0,1.1l-9.5,9.5
			C7.5,17.6,7,17.6,6.7,17.3z"/>
		<path class="st1" d="M6.7,6.7L6.7,6.7c0.3-0.3,0.8-0.3,1.1,0l9.5,9.5c0.3,0.3,0.3,0.8,0,1.1l0,0c-0.3,0.3-0.8,0.3-1.1,0L6.7,7.8
			C6.4,7.5,6.4,7,6.7,6.7z"/>
	</g>
</g>
</svg>
