<?xml version="1.0" encoding="utf-8"?>
<!-- Generator: Adobe Illustrator 21.0.0, SVG Export Plug-In . SVG Version: 6.00 Build 0)  -->
<svg version="1.1" id="图层_1" xmlns="http://www.w3.org/2000/svg" xmlns:xlink="http://www.w3.org/1999/xlink" x="0px" y="0px"
	 viewBox="0 0 106 176" style="enable-background:new 0 0 106 176;" xml:space="preserve">
<style type="text/css">
	.st0{fill:#F6F6F6;}
	.st1{fill:#333333;}
	.st2{fill:#FFFFFF;}
	.st3{fill:#FA4646;}
	.st4{opacity:0.4;}
	.st5{fill:#1787DD;}
	.st6{opacity:0.4;fill:#FCD28D;}
	.st7{opacity:0.3;}
	.st8{fill:#FCD28D;}
</style>
<g>
	<g>
		<g>
			<path class="st0" d="M10,174.5c-4.9,0-9-4-9-9V9.5c0-4.9,4-9,9-9H96c4.9,0,9,4,9,9v156.1c0,4.9-4,9-9,9H10z"/>
			<path class="st1" d="M96,1.5c4.4,0,8,3.6,8,8v156.1c0,4.4-3.6,8-8,8H10c-4.4,0-8-3.6-8-8V9.5c0-4.4,3.6-8,8-8H96 M96-0.5H10
				C4.5-0.5,0,4,0,9.5v156.1c0,5.5,4.5,10,10,10H96c5.5,0,10-4.5,10-10V9.5C106,4,101.5-0.5,96-0.5L96-0.5z"/>
		</g>
		<path class="st1" d="M67,12H39c-0.5,0-1-0.4-1-1v0c0-0.5,0.4-1,1-1h28c0.5,0,1,0.4,1,1v0C68,11.6,67.6,12,67,12z"/>
		<g>
			<path class="st2" d="M12,141.5c-1.7,0-3-1.3-3-3v-116c0-1.7,1.3-3,3-3h82c1.7,0,3,1.3,3,3v116c0,1.7-1.3,3-3,3H12z"/>
			<path class="st1" d="M94,20.5c1.1,0,2,0.9,2,2v116c0,1.1-0.9,2-2,2H12c-1.1,0-2-0.9-2-2v-116c0-1.1,0.9-2,2-2H94 M94,18.5H12
				c-2.2,0-4,1.8-4,4v116c0,2.2,1.8,4,4,4h82c2.2,0,4-1.8,4-4v-116C98,20.3,96.2,18.5,94,18.5L94,18.5z"/>
		</g>
		<g>
			<path class="st1" d="M53,150c3.9,0,7,3.1,7,7s-3.1,7-7,7s-7-3.1-7-7S49.1,150,53,150 M53,148c-5,0-9,4-9,9s4,9,9,9s9-4,9-9
				S58,148,53,148L53,148z"/>
		</g>
	</g>
	<g>
		<path class="st3" d="M79,82.3c7.3,0,13.3,5.9,13.3,13.3s-5.9,13.3-13.3,13.3s-13.3-5.9-13.3-13.3S71.7,82.3,79,82.3 M79,80.3
			c-8.4,0-15.3,6.8-15.3,15.3s6.8,15.3,15.3,15.3s15.3-6.8,15.3-15.3S87.4,80.3,79,80.3L79,80.3z"/>
	</g>
	<g>
		<g class="st4">
			<g>
				<path class="st5" d="M83,103.5h-8c-2.2,0-4-1.8-4-4v-8c0-2.2,1.8-4,4-4h8c2.2,0,4,1.8,4,4v8C87,101.7,85.2,103.5,83,103.5z"/>
			</g>
		</g>
		<path class="st6" d="M30.5,46.5h-8c-2.2,0-4-1.8-4-4v-8c0-2.2,1.8-4,4-4h8c2.2,0,4,1.8,4,4v8C34.5,44.7,32.7,46.5,30.5,46.5z"/>
		<path class="st6" d="M57.3,46.5h-8c-2.2,0-4-1.8-4-4v-8c0-2.2,1.8-4,4-4h8c2.2,0,4,1.8,4,4v8C61.3,44.7,59.5,46.5,57.3,46.5z"/>
		<path class="st6" d="M83,46.5h-8c-2.2,0-4-1.8-4-4v-8c0-2.2,1.8-4,4-4h8c2.2,0,4,1.8,4,4v8C87,44.7,85.2,46.5,83,46.5z"/>
		<path class="st6" d="M30.5,75h-8c-2.2,0-4-1.8-4-4v-8c0-2.2,1.8-4,4-4h8c2.2,0,4,1.8,4,4v8C34.5,73.2,32.7,75,30.5,75z"/>
		<path class="st6" d="M57.3,75h-8c-2.2,0-4-1.8-4-4v-8c0-2.2,1.8-4,4-4h8c2.2,0,4,1.8,4,4v8C61.3,73.2,59.5,75,57.3,75z"/>
		<path class="st6" d="M83,75h-8c-2.2,0-4-1.8-4-4v-8c0-2.2,1.8-4,4-4h8c2.2,0,4,1.8,4,4v8C87,73.2,85.2,75,83,75z"/>
		<path class="st6" d="M30.5,103.5h-8c-2.2,0-4-1.8-4-4v-8c0-2.2,1.8-4,4-4h8c2.2,0,4,1.8,4,4v8C34.5,101.7,32.7,103.5,30.5,103.5z"
			/>
		<path class="st6" d="M57.3,103.5h-8c-2.2,0-4-1.8-4-4v-8c0-2.2,1.8-4,4-4h8c2.2,0,4,1.8,4,4v8C61.3,101.7,59.5,103.5,57.3,103.5z"
			/>
	</g>
	<g>
		<g class="st7">
			<path d="M106.4,127.2c-0.1-1.5-1.2-3-2.6-3.5c-0.5-0.2-0.9-0.4-1.3-0.3c-0.2-0.1-0.9,0.1-1.6,0.2c-0.2-1.7-1.3-3.2-2.9-3.9
				c-0.5-0.2-0.9-0.4-1.5-0.4c-1.1,0-2,0.3-2.9,1c-0.6-1.7-2-2.9-3.9-3c-1.2-0.1-2.3,0.4-3.2,1.3l-0.2-11.9c0-2.1-1-4-2.8-4.7
				c-0.5-0.2-0.9-0.4-1.5-0.4c-2.5,0.1-4.6,2-4.6,4.7l0.1,20.4c-0.5,0.2-1.3,0.7-2.3,1.6c-3.5,3.1-4.8,10.7-1,16.6
				c2.8,4.2,5.7,7,9.5,8.5c2.2,0.9,4.7,1.4,7.4,1.4c8.1,0.2,10.9-3.7,13.2-7.9C106.1,143.2,106.4,127.8,106.4,127.2L106.4,127.2z
				 M102.2,146.2"/>
		</g>
		<g>
			<path class="st8" d="M104.4,125.2c-0.1-1.5-1.2-3-2.6-3.5c-0.5-0.2-0.9-0.4-1.3-0.3c-0.2-0.1-0.9,0.1-1.6,0.2
				c-0.2-1.7-1.3-3.2-2.9-3.9c-0.5-0.2-0.9-0.4-1.5-0.4c-1.1,0-2,0.3-2.9,1c-0.6-1.7-2-2.9-3.9-3c-1.2-0.1-2.3,0.4-3.2,1.3
				l-0.2-11.9c0-2.1-1-4-2.8-4.7c-0.5-0.2-0.9-0.4-1.5-0.4c-2.5,0.1-4.6,2-4.6,4.7l0.1,20.4c-0.5,0.2-1.3,0.7-2.3,1.6
				c-3.5,3.1-4.8,10.7-1,16.6c2.8,4.2,5.7,7,9.5,8.5c2.2,0.9,4.7,1.4,7.4,1.4c8.1,0.2,10.9-3.7,13.2-7.9
				C104.1,141.2,104.4,125.8,104.4,125.2L104.4,125.2z M100.2,144.2"/>
		</g>
	</g>
</g>
</svg>
