<?xml version="1.0" encoding="utf-8"?>
<!-- Generator: Adobe Illustrator 21.0.0, SVG Export Plug-In . SVG Version: 6.00 Build 0)  -->
<svg version="1.1" id="图层_1" xmlns="http://www.w3.org/2000/svg" xmlns:xlink="http://www.w3.org/1999/xlink" x="0px" y="0px"
	 viewBox="0 0 28 28" style="enable-background:new 0 0 28 28;" xml:space="preserve">
<style type="text/css">
	.st0{fill:#EAEAEA;}
	.st1{fill:#666666;}
	.st2{fill:#FFFFFF;}
</style>
<g>
	<g>
		<path class="st0" d="M23.7,28H4.3C1.9,28,0,26.1,0,23.7V4.3C0,1.9,1.9,0,4.3,0h19.4C26.1,0,28,1.9,28,4.3v19.4
			C28,26.1,26.1,28,23.7,28z"/>
	</g>
	<g>
		<g>
			<path class="st1" d="M20.2,23H7.8C6.2,23,5,21.8,5,20.2V7.8C5,6.2,6.2,5,7.8,5h12.5C21.8,5,23,6.2,23,7.8v12.5
				C23,21.8,21.8,23,20.2,23z"/>
		</g>
		<g>
			<g>
				<g>
					<path class="st2" d="M17,15h-6c-0.5,0-1-0.4-1-1v0c0-0.5,0.4-1,1-1h6c0.5,0,1,0.4,1,1v0C18,14.6,17.6,15,17,15z"/>
				</g>
			</g>
			<g>
				<g>
					<path class="st2" d="M15,11v6c0,0.5-0.4,1-1,1h0c-0.5,0-1-0.4-1-1v-6c0-0.5,0.4-1,1-1h0C14.6,10,15,10.4,15,11z"/>
				</g>
			</g>
		</g>
	</g>
</g>
</svg>
