<?xml version="1.0" encoding="utf-8"?>
<!-- Generator: Adobe Illustrator 21.0.0, SVG Export Plug-In . SVG Version: 6.00 Build 0)  -->
<svg version="1.1" id="图层_1" xmlns="http://www.w3.org/2000/svg" xmlns:xlink="http://www.w3.org/1999/xlink" x="0px" y="0px"
	 viewBox="0 0 60 60" style="enable-background:new 0 0 60 60;" xml:space="preserve">
<style type="text/css">
	.st0{fill:#FFFFFF;}
	.st1{fill:none;stroke:#1787DD;stroke-width:0.8929;stroke-linecap:round;stroke-miterlimit:10;}
	.st2{fill:#1787DD;}
</style>
<g>
	<g>
		<circle class="st0" cx="30" cy="30" r="30"/>
	</g>
	<g>
		<path class="st1" d="M36.9,32.9V37c0,0.9-0.7,1.7-1.7,1.7H21.2c-0.9,0-1.7-0.7-1.7-1.7V22.3c0-0.9,0.7-1.7,1.7-1.7h14.1
			c0.9,0,1.7,0.7,1.7,1.7v4.2"/>
		<path class="st2" d="M44.3,29.5L39.9,25c-0.3-0.3-0.8-0.1-0.8,0.3V28h-5.9c-0.4,0-0.7,0.3-0.7,0.7V31c0,0.4,0.3,0.7,0.7,0.7h5.9
			v2.7c0,0.4,0.5,0.6,0.8,0.3l4.4-4.4C44.6,30,44.6,29.7,44.3,29.5z"/>
		<path class="st2" d="M27.5,43.2l-7.7-4.7c-0.2-0.1-0.3-0.4-0.3-0.6V21.4c0-0.5,0.5-0.9,1-0.7l8.2,3.5c0.5,0.2,0.7,0.6,0.7,1.1
			v16.8C29.4,43.1,28.3,43.7,27.5,43.2z"/>
	</g>
</g>
</svg>
