<?xml version="1.0" encoding="utf-8"?>
<!-- Generator: Adobe Illustrator 21.0.0, SVG Export Plug-In . SVG Version: 6.00 Build 0)  -->
<svg version="1.1" id="图层_1" xmlns="http://www.w3.org/2000/svg" xmlns:xlink="http://www.w3.org/1999/xlink" x="0px" y="0px"
	 viewBox="0 0 100 100" style="enable-background:new 0 0 100 100;" xml:space="preserve">
<style type="text/css">
	.st0{fill:#3C5A9A;}
	.st1{fill:#FFFFFF;}
	.st2{opacity:0.1;enable-background:new    ;}
</style>
<g>
	<g>
		<circle class="st0" cx="50" cy="50" r="50"/>
		<path class="st1" d="M62.7,50h-8.3v29.6H42.1V50h-5.8V39.5h5.8v-6.8c0-4.8,2.3-12.4,12.4-12.4h9.1v10.1H57c-1.1,0-2.6,0.5-2.6,2.8
			v6.1h9.4L62.7,50z"/>
	</g>
	<path class="st2" d="M50,95.3c-26.8,0-48.7-21.1-49.9-47.7C0,48.5,0,49.2,0,50c0,27.6,22.4,50,50,50s50-22.4,50-50
		c0-0.8,0-1.6-0.1-2.3C98.7,74.2,76.8,95.3,50,95.3z"/>
</g>
</svg>
