<?xml version="1.0" encoding="utf-8"?>
<!-- Generator: Adobe Illustrator 21.0.0, SVG Export Plug-In . SVG Version: 6.00 Build 0)  -->
<svg version="1.1" id="图层_1" xmlns="http://www.w3.org/2000/svg" xmlns:xlink="http://www.w3.org/1999/xlink" x="0px" y="0px"
	 viewBox="0 0 100 100" style="enable-background:new 0 0 100 100;" xml:space="preserve">
<style type="text/css">
	.st0{fill:#0183FE;}
	.st1{opacity:0.1;enable-background:new    ;}
	.st2{fill:#FFFFFF;}
	.st3{fill:#0184FF;}
</style>
<g>
	<circle class="st0" cx="50" cy="50" r="50"/>
	<path class="st1" d="M50,95.3c-26.8,0-48.7-21.1-49.9-47.7C0,48.4,0,49.2,0,50c0,27.6,22.4,50,50,50s50-22.4,50-50
		c0-0.8,0-1.6-0.1-2.3C98.7,74.2,76.8,95.3,50,95.3z"/>
	<g>
		<path class="st2" d="M50,25.9c-13.4,0-24.2,10-24.2,22.4c0,7.1,3.6,13.5,9.3,17.6v8.2l8.3-4.3c2.1,0.6,4.3,0.8,6.6,0.8
			c13.4,0,24.2-10,24.2-22.4S63.4,25.9,50,25.9z"/>
		<polygon class="st3" points="34,57.3 47.3,42.7 53.5,49 66,43 52.4,56.9 46.2,50.9 		"/>
	</g>
</g>
</svg>
