<?xml version="1.0" encoding="utf-8"?>
<!-- Generator: Adobe Illustrator 21.0.0, SVG Export Plug-In . SVG Version: 6.00 Build 0)  -->
<svg version="1.1" id="图层_1" xmlns="http://www.w3.org/2000/svg" xmlns:xlink="http://www.w3.org/1999/xlink" x="0px" y="0px"
	 viewBox="0 0 52 52" style="enable-background:new 0 0 52 52;" xml:space="preserve">
<style type="text/css">
	.st0{fill:#93C9F3;}
</style>
<g>
	<g>
		<path class="st0" d="M35.7,8.5c1.1,0,2.2,0.4,3.1,1.1C43,13,51,25.2,48.7,41.4c-0.2,1.2-1.2,2.1-2.3,2.1l-0.1,0
			c-2.1,0-5.6-0.8-10.5-4.8C35,38.1,30.3,34,26.1,34c-4.2,0-9.1,4.1-9.8,4.7c-4.9,3.9-8.4,4.8-10.5,4.8l-0.1,0
			c-1.2,0-2.2-0.9-2.3-2.1C1,25.2,9,13,13.2,9.6c0.9-0.7,2-1.1,3.1-1.1c0.6,0,1.3,0.1,1.9,0.4l5.9,2.3c0.7,0.3,1.3,0.4,2,0.4
			c0.7,0,1.4-0.1,2.1-0.4l5.7-2.3C34.5,8.7,35.1,8.5,35.7,8.5 M35.7,6.5c-0.9,0-1.8,0.2-2.6,0.5l-5.7,2.3c-0.4,0.2-0.9,0.3-1.3,0.3
			c-0.4,0-0.9-0.1-1.3-0.2L18.9,7c-0.8-0.3-1.7-0.5-2.6-0.5c-1.6,0-3.1,0.5-4.3,1.5C6.6,12.3-1,25.6,1.4,41.7
			c0.3,2.1,2.1,3.8,4.3,3.8c0,0,0.1,0,0.1,0c2.6,0,6.5-1,11.8-5.2c0,0,4.8-4.2,8.5-4.2s8.4,4.2,8.4,4.2c5.2,4.2,9.2,5.2,11.8,5.2
			c0,0,0.1,0,0.1,0c2.2,0,4-1.7,4.3-3.8C53,25.6,45.4,12.3,40.1,8.1C38.8,7.1,37.3,6.5,35.7,6.5L35.7,6.5z"/>
	</g>
	<g>
		<circle class="st0" cx="15" cy="25" r="5.2"/>
		<g>
			<rect x="31.8" y="23.4" class="st0" width="10.5" height="3.1"/>
			
				<rect x="31.8" y="23.4" transform="matrix(6.123234e-17 -1 1 6.123234e-17 12.0447 61.95)" class="st0" width="10.5" height="3.1"/>
		</g>
	</g>
</g>
</svg>
