<?xml version="1.0" encoding="utf-8"?>
<!-- Generator: Adobe Illustrator 21.0.0, SVG Export Plug-In . SVG Version: 6.00 Build 0)  -->
<svg version="1.1" id="图层_1" xmlns="http://www.w3.org/2000/svg" xmlns:xlink="http://www.w3.org/1999/xlink" x="0px" y="0px"
	 viewBox="0 0 52 52" style="enable-background:new 0 0 52 52;" xml:space="preserve">
<style type="text/css">
	.st0{fill:#FFFFFF;}
</style>
<path class="st0" d="M40.1,8.1c-2-1.6-4.6-2-7-1l-5.7,2.3c-0.8,0.3-1.8,0.3-2.6,0L18.9,7c-2.3-0.9-5-0.6-7,1
	C6.6,12.3-1,25.6,1.4,41.7c0.3,2.1,2.1,3.8,4.3,3.8c2.6,0,6.6-1,11.9-5.2c0,0,4.8-4.2,8.5-4.2c3.7,0,8.4,4.2,8.4,4.2
	c5.3,4.3,9.3,5.3,11.9,5.2c2.2,0,4-1.7,4.3-3.8C53,25.6,45.4,12.3,40.1,8.1z M15,30.2c-2.9,0-5.2-2.3-5.2-5.2s2.3-5.2,5.2-5.2
	s5.2,2.3,5.2,5.2S17.9,30.2,15,30.2z M42.2,26.5h-3.7v3.7h-3.1v-3.7h-3.7v-3.1h3.7v-3.7h3.1v3.7h3.7V26.5z"/>
</svg>
