<?xml version="1.0" encoding="utf-8"?>
<!-- Generator: Adobe Illustrator 21.0.0, SVG Export Plug-In . SVG Version: 6.00 Build 0)  -->
<svg version="1.1" id="图层_1" xmlns="http://www.w3.org/2000/svg" xmlns:xlink="http://www.w3.org/1999/xlink" x="0px" y="0px"
	 viewBox="0 0 100 100" style="enable-background:new 0 0 100 100;" xml:space="preserve">
<style type="text/css">
	.st0{fill:#DC4335;}
	.st1{fill:#FFFFFF;}
	.st2{opacity:0.1;enable-background:new    ;}
</style>
<g>
	<circle class="st0" cx="50" cy="50" r="50"/>
	<g>
		<path class="st1" d="M38.4,47.1V54h11.5c-0.5,3-3.5,8.7-11.5,8.7c-6.9,0-12.5-5.7-12.5-12.8c0-7,5.6-12.8,12.5-12.8
			c3.9,0,6.6,1.7,8.1,3.1l5.5-5.3c-3.5-3.3-8.1-5.3-13.5-5.3c-11.2,0-20.2,9-20.2,20.2S27.3,70,38.5,70c11.7,0,19.4-8.2,19.4-19.8
			c0-1.3-0.1-2.3-0.3-3.4H38.4V47.1z"/>
		<path class="st1" d="M81.8,47.1H76v-5.8h-5.8v5.8h-5.8v5.8h5.8v5.8H76v-5.8h5.8V47.1z"/>
	</g>
	<path class="st2" d="M50,95.3c-26.8,0-48.7-21.1-49.9-47.7C0,48.4,0,49.2,0,50c0,27.6,22.4,50,50,50s50-22.4,50-50
		c0-0.8,0-1.6-0.1-2.3C98.7,74.2,76.8,95.3,50,95.3z"/>
</g>
</svg>
