<?xml version="1.0" encoding="utf-8"?>
<!-- Generator: Adobe Illustrator 21.0.0, SVG Export Plug-In . SVG Version: 6.00 Build 0)  -->
<svg version="1.1" id="图层_1" xmlns="http://www.w3.org/2000/svg" xmlns:xlink="http://www.w3.org/1999/xlink" x="0px" y="0px"
	 viewBox="0 0 52 52" style="enable-background:new 0 0 52 52;" xml:space="preserve">
<style type="text/css">
	.st0{fill:#93C9F3;}
	.st1{fill:none;stroke:#93C9F3;stroke-width:2;stroke-miterlimit:10;}
</style>
<g>
	<g>
		<path class="st0" d="M26,2.9l20.3,16.4H46h-2v2V43c0,3.5-2.8,6.3-6.3,6.3H14.3C10.8,49.3,8,46.5,8,43V21.3v-2H6H5.7L26,2.9
			 M26,0.7c-0.3,0-0.6,0.1-0.9,0.3L1.6,20c-0.5,0.4-0.2,1.3,0.5,1.3H6V43c0,4.6,3.7,8.3,8.3,8.3h23.3c4.6,0,8.3-3.7,8.3-8.3V21.3
			h3.9c0.7,0,1-0.9,0.5-1.3L26.9,1C26.6,0.8,26.3,0.7,26,0.7L26,0.7z"/>
	</g>
	<path class="st1" d="M18.5,51.3v-16c0-4.1,3.4-7.5,7.5-7.5h0c4.1,0,7.5,3.4,7.5,7.5v16"/>
</g>
</svg>
