<?xml version="1.0" encoding="utf-8"?>
<!-- Generator: Adobe Illustrator 21.0.0, SVG Export Plug-In . SVG Version: 6.00 Build 0)  -->
<svg version="1.1" id="图层_1" xmlns="http://www.w3.org/2000/svg" xmlns:xlink="http://www.w3.org/1999/xlink" x="0px" y="0px"
	 viewBox="0 0 100 100" style="enable-background:new 0 0 100 100;" xml:space="preserve">
<style type="text/css">
	.st0{fill:#0084FF;}
	.st1{fill:#FFFFFF;}
	.st2{opacity:0.1;enable-background:new    ;}
</style>
<g>
	<g>
		<circle class="st0" cx="50" cy="50" r="50"/>
		<g>
			<path class="st1" d="M78.7,54v19.9H67.2V55.3c0-4.7-1.7-7.8-5.8-7.8c-3.2,0-5.1,2.1-5.9,4.2c-0.3,0.7-0.4,1.8-0.4,2.8v19.4H43.5
				c0,0,0.2-31.4,0-34.7H55v4.9l-0.1,0.1H55v-0.1c1.5-2.4,4.3-5.7,10.4-5.7C73,38.3,78.7,43.3,78.7,54L78.7,54z M31.4,22.4
				c-3.9,0-6.5,2.6-6.5,6c0,3.3,2.5,6,6.4,6h0.1c4,0,6.5-2.7,6.5-6C37.8,25,35.4,22.4,31.4,22.4L31.4,22.4z M25.6,73.9h11.5V39.2
				H25.6V73.9z"/>
		</g>
	</g>
	<path class="st2" d="M50,95.3c-26.8,0-48.7-21.1-49.9-47.7C0,48.5,0,49.2,0,50c0,27.6,22.4,50,50,50s50-22.4,50-50
		c0-0.8,0-1.6-0.1-2.3C98.7,74.2,76.8,95.3,50,95.3z"/>
</g>
</svg>
