<svg version="1.1" xmlns="http://www.w3.org/2000/svg" xmlns:xlink="http://www.w3.org/1999/xlink" x="0px" y="0px" viewBox="0 0 300 160" style="enable-background:new 0 0 300 160;" xml:space="preserve" id="r1kwCAZGX"><style>@-webkit-keyframes BkKG1vR0ZM7_Animation{41.67%{opacity: 0;}58.33%{opacity: 1;}100%{opacity: 0;}0%{opacity: 0;}}@keyframes BkKG1vR0ZM7_Animation{41.67%{opacity: 0;}58.33%{opacity: 1;}100%{opacity: 0;}0%{opacity: 0;}}@-webkit-keyframes BkKG1vR0ZM7_SJvYm1ffX_Animation{0%{-webkit-transform: translate(0px, 0px);transform: translate(0px, 0px);}41.67%{-webkit-transform: translate(0px, 0px);transform: translate(0px, 0px);}58.33%{-webkit-transform: translate(-20px, 15px);transform: translate(-20px, 15px);}100%{-webkit-transform: translate(-30px, 25px);transform: translate(-30px, 25px);}}@keyframes BkKG1vR0ZM7_SJvYm1ffX_Animation{0%{-webkit-transform: translate(0px, 0px);transform: translate(0px, 0px);}41.67%{-webkit-transform: translate(0px, 0px);transform: translate(0px, 0px);}58.33%{-webkit-transform: translate(-20px, 15px);transform: translate(-20px, 15px);}100%{-webkit-transform: translate(-30px, 25px);transform: translate(-30px, 25px);}}@-webkit-keyframes B1mMyPRAZGQ_Animation{41.67%{opacity: 0;}58.33%{opacity: 1;}100%{opacity: 0;}0%{opacity: 0;}}@keyframes B1mMyPRAZGQ_Animation{41.67%{opacity: 0;}58.33%{opacity: 1;}100%{opacity: 0;}0%{opacity: 0;}}@-webkit-keyframes B1mMyPRAZGQ_S1ZWmkGGQ_Animation{0%{-webkit-transform: translate(0px, 0px);transform: translate(0px, 0px);}41.67%{-webkit-transform: translate(-30px, 80px);transform: translate(-30px, 80px);}58.33%{-webkit-transform: translate(0px, 0px);transform: translate(0px, 0px);}100%{-webkit-transform: translate(10px, -10px);transform: translate(10px, -10px);}}@keyframes B1mMyPRAZGQ_S1ZWmkGGQ_Animation{0%{-webkit-transform: translate(0px, 0px);transform: translate(0px, 0px);}41.67%{-webkit-transform: translate(-30px, 80px);transform: translate(-30px, 80px);}58.33%{-webkit-transform: translate(0px, 0px);transform: translate(0px, 0px);}100%{-webkit-transform: translate(10px, -10px);transform: translate(10px, -10px);}}@-webkit-keyframes ByTbkwCRWfX_Animation{41.67%{opacity: 0;}58.33%{opacity: 1;}100%{opacity: 0;}0%{opacity: 0;}}@keyframes ByTbkwCRWfX_Animation{41.67%{opacity: 0;}58.33%{opacity: 1;}100%{opacity: 0;}0%{opacity: 0;}}@-webkit-keyframes ByTbkwCRWfX_SkS_zJfzQ_Animation{0%{-webkit-transform: translate(0px, 0px);transform: translate(0px, 0px);}41.67%{-webkit-transform: translate(0px, 0px);transform: translate(0px, 0px);}58.33%{-webkit-transform: translate(20px, -10px);transform: translate(20px, -10px);}100%{-webkit-transform: translate(30px, -20px);transform: translate(30px, -20px);}}@keyframes ByTbkwCRWfX_SkS_zJfzQ_Animation{0%{-webkit-transform: translate(0px, 0px);transform: translate(0px, 0px);}41.67%{-webkit-transform: translate(0px, 0px);transform: translate(0px, 0px);}58.33%{-webkit-transform: translate(20px, -10px);transform: translate(20px, -10px);}100%{-webkit-transform: translate(30px, -20px);transform: translate(30px, -20px);}}@-webkit-keyframes SkdZkvA0WfX_Animation{41.67%{opacity: 0;}58.33%{opacity: 1;}100%{opacity: 0;}0%{opacity: 0;}}@keyframes SkdZkvA0WfX_Animation{41.67%{opacity: 0;}58.33%{opacity: 1;}100%{opacity: 0;}0%{opacity: 0;}}@-webkit-keyframes SkdZkvA0WfX_rJ2CZJGGQ_Animation{0%{-webkit-transform: translate(0px, 0px);transform: translate(0px, 0px);}41.67%{-webkit-transform: translate(30px, 70px);transform: translate(30px, 70px);}58.33%{-webkit-transform: translate(0px, 0px);transform: translate(0px, 0px);}100%{-webkit-transform: translate(-10px, -10px);transform: translate(-10px, -10px);}}@keyframes SkdZkvA0WfX_rJ2CZJGGQ_Animation{0%{-webkit-transform: translate(0px, 0px);transform: translate(0px, 0px);}41.67%{-webkit-transform: translate(30px, 70px);transform: translate(30px, 70px);}58.33%{-webkit-transform: translate(0px, 0px);transform: translate(0px, 0px);}100%{-webkit-transform: translate(-10px, -10px);transform: translate(-10px, -10px);}}@-webkit-keyframes SyNWkwRCWzQ_Animation{41.67%{opacity: 0;}58.33%{opacity: 1;}100%{opacity: 0;}0%{opacity: 0;}}@keyframes SyNWkwRCWzQ_Animation{41.67%{opacity: 0;}58.33%{opacity: 1;}100%{opacity: 0;}0%{opacity: 0;}}@-webkit-keyframes SyNWkwRCWzQ_ry_NWyMfQ_Animation{0%{-webkit-transform: translate(0px, 0px);transform: translate(0px, 0px);}41.67%{-webkit-transform: translate(20px, 20px);transform: translate(20px, 20px);}58.33%{-webkit-transform: translate(-15px, -10px);transform: translate(-15px, -10px);}100%{-webkit-transform: translate(-25px, -20px);transform: translate(-25px, -20px);}}@keyframes SyNWkwRCWzQ_ry_NWyMfQ_Animation{0%{-webkit-transform: translate(0px, 0px);transform: translate(0px, 0px);}41.67%{-webkit-transform: translate(20px, 20px);transform: translate(20px, 20px);}58.33%{-webkit-transform: translate(-15px, -10px);transform: translate(-15px, -10px);}100%{-webkit-transform: translate(-25px, -20px);transform: translate(-25px, -20px);}}@-webkit-keyframes SkLg1DRA-GX_Animation{41.67%{opacity: 0;}58.33%{opacity: 1;}100%{opacity: 0;}0%{opacity: 0;}}@keyframes SkLg1DRA-GX_Animation{41.67%{opacity: 0;}58.33%{opacity: 1;}100%{opacity: 0;}0%{opacity: 0;}}@-webkit-keyframes SkLg1DRA-GX_HJXlgkGG7_Animation{0%{-webkit-transform: translate(0px, 0px);transform: translate(0px, 0px);}41.67%{-webkit-transform: translate(0px, 0px);transform: translate(0px, 0px);}58.33%{-webkit-transform: translate(50px, -70px);transform: translate(50px, -70px);}100%{-webkit-transform: translate(60px, -80px);transform: translate(60px, -80px);}}@keyframes SkLg1DRA-GX_HJXlgkGG7_Animation{0%{-webkit-transform: translate(0px, 0px);transform: translate(0px, 0px);}41.67%{-webkit-transform: translate(0px, 0px);transform: translate(0px, 0px);}58.33%{-webkit-transform: translate(50px, -70px);transform: translate(50px, -70px);}100%{-webkit-transform: translate(60px, -80px);transform: translate(60px, -80px);}}@-webkit-keyframes BJzkvACbzm_Hyfu00Wzm_Animation{0%{-webkit-transform: scale(1, 1);transform: scale(1, 1);}41.67%{-webkit-transform: scale(1.2, 0.8);transform: scale(1.2, 0.8);}58.33%{-webkit-transform: scale(1.2, 0.8);transform: scale(1.2, 0.8);}100%{-webkit-transform: scale(1, 1);transform: scale(1, 1);}}@keyframes BJzkvACbzm_Hyfu00Wzm_Animation{0%{-webkit-transform: scale(1, 1);transform: scale(1, 1);}41.67%{-webkit-transform: scale(1.2, 0.8);transform: scale(1.2, 0.8);}58.33%{-webkit-transform: scale(1.2, 0.8);transform: scale(1.2, 0.8);}100%{-webkit-transform: scale(1, 1);transform: scale(1, 1);}}@-webkit-keyframes BJzkvACbzm_rJguCA-Gm_Animation{0%{-webkit-transform: translate(0px, 0px);transform: translate(0px, 0px);}41.67%{-webkit-transform: translate(0px, 70px);transform: translate(0px, 70px);}58.33%{-webkit-transform: translate(0px, 70px);transform: translate(0px, 70px);}100%{-webkit-transform: translate(0px, 0px);transform: translate(0px, 0px);}}@keyframes BJzkvACbzm_rJguCA-Gm_Animation{0%{-webkit-transform: translate(0px, 0px);transform: translate(0px, 0px);}41.67%{-webkit-transform: translate(0px, 70px);transform: translate(0px, 70px);}58.33%{-webkit-transform: translate(0px, 70px);transform: translate(0px, 70px);}100%{-webkit-transform: translate(0px, 0px);transform: translate(0px, 0px);}}@-webkit-keyframes SJ-1vR0bMm_SkydkJGMX_Animation{0%{-webkit-transform: scale(0.5, 0.5);transform: scale(0.5, 0.5);}41.67%{-webkit-transform: scale(1, 1);transform: scale(1, 1);}58.33%{-webkit-transform: scale(1, 1);transform: scale(1, 1);}100%{-webkit-transform: scale(0.5, 0.5);transform: scale(0.5, 0.5);}}@keyframes SJ-1vR0bMm_SkydkJGMX_Animation{0%{-webkit-transform: scale(0.5, 0.5);transform: scale(0.5, 0.5);}41.67%{-webkit-transform: scale(1, 1);transform: scale(1, 1);}58.33%{-webkit-transform: scale(1, 1);transform: scale(1, 1);}100%{-webkit-transform: scale(0.5, 0.5);transform: scale(0.5, 0.5);}}@-webkit-keyframes SJ-1vR0bMm_rJ5vJ1Gzm_Animation{0%{-webkit-transform: translate(0px, 10px);transform: translate(0px, 10px);}41.67%{-webkit-transform: translate(0px, 0px);transform: translate(0px, 0px);}58.33%{-webkit-transform: translate(0px, 0px);transform: translate(0px, 0px);}100%{-webkit-transform: translate(0px, 10px);transform: translate(0px, 10px);}}@keyframes SJ-1vR0bMm_rJ5vJ1Gzm_Animation{0%{-webkit-transform: translate(0px, 10px);transform: translate(0px, 10px);}41.67%{-webkit-transform: translate(0px, 0px);transform: translate(0px, 0px);}58.33%{-webkit-transform: translate(0px, 0px);transform: translate(0px, 0px);}100%{-webkit-transform: translate(0px, 10px);transform: translate(0px, 10px);}}#r1kwCAZGX *{-webkit-animation-duration: 1.2s;animation-duration: 1.2s;-webkit-animation-iteration-count: infinite;animation-iteration-count: infinite;-webkit-animation-timing-function: cubic-bezier(0, 0, 1, 1);animation-timing-function: cubic-bezier(0, 0, 1, 1);}#SJ-1vR0bMm{fill: #F6F6F6;}#B1QJDR0WzX{fill: none;}#BJ5yv00Zz7{fill: none;}#Hys1PAA-G7{fill: none;}#S1ZxkPRRWz7{fill: #E85105;}#H1zlywRAWM7{fill: #E85105;}#rJXg1wRAWMQ{fill: #E85105;}#HyNgJw0A-GQ{fill: #00A0E9;}#HJHx1vAAZfQ{fill: #00A0E9;}#Hk_xkPR0WfQ{fill: none;stroke: #1787DD;stroke-width: 0.9297;stroke-miterlimit: 10;}#Bk9xJPR0ZzQ{fill: #1787DD;}#HJogkv0CWf7{fill: #1787DD;}#Skne1P0RWf7{fill: #1787DD;}#B16eJPCAbGX{fill: #1787DD;}#SJCxkw0Cbfm{fill: #1787DD;}#HJlZ1DCCWMQ{fill: #1787DD;}#H1Wb1wAC-M7{fill: #1787DD;}#SyzZkwAAZz7{fill: #1787DD;}#r1XZyPR0bf7{fill: #1787DD;}#r1UWkvCCZfm{-webkit-transform:  matrix(0.7071, -0.7071, 0.7071, 0.7071, -44.4271, 41.9535);transform:  matrix(0.7071, -0.7071, 0.7071, 0.7071, -44.4271, 41.9535);fill: #1787DD;}#H1vWyD0RbM7{fill: none;stroke: #1787DD;stroke-width: 0.9361;stroke-miterlimit: 10;}#B15-kDA0-zQ{fill: none;stroke: #1787DD;stroke-width: 1.0355;stroke-miterlimit: 10;}#B1sbkvCCbzQ{fill: #1787DD;}#HJhWJDAR-GX{fill: #1787DD;}#SJyzJwRRZfm{fill: none;stroke: #1787DD;stroke-width: 1.1471;stroke-linecap: round;stroke-miterlimit: 10;}#SkbGJPRCbGQ{fill: none;stroke: #1787DD;stroke-width: 1.1471;stroke-linecap: round;stroke-miterlimit: 10;}#B1MMyPR0Wz7{fill: none;stroke: #1787DD;stroke-width: 1.1471;stroke-miterlimit: 10;}#BJBfJwARZz7{fill: none;stroke: #1787DD;stroke-width: 0.8857;stroke-miterlimit: 10;}#HJIzJDC0-zX{fill: #1787DD;}#r1wMyv0AWGm{fill: #1787DD;}#SkOfkvC0ZfX{fill: none;stroke: #1787DD;stroke-width: 0.8857;stroke-miterlimit: 10;}#BJjG1PCAWzX{fill: none;stroke: #1787DD;stroke-width: 0.8646;stroke-linecap: round;stroke-miterlimit: 10;}#B12G1DA0WGm{fill: none;stroke: #1787DD;stroke-width: 0.8646;stroke-linecap: round;stroke-miterlimit: 10;}#BJpMkP0AZzQ{fill: none;stroke: #1787DD;stroke-width: 0.8646;stroke-miterlimit: 10;}#ryCMJw0R-M7{fill: none;stroke: #1787DD;stroke-width: 0.8646;stroke-miterlimit: 10;}#SkyXyw0AbGQ{fill: none;stroke: #1787DD;stroke-width: 0.8646;stroke-miterlimit: 10;}#SJ-1vR0bMm_rJ5vJ1Gzm{-webkit-animation-name: SJ-1vR0bMm_rJ5vJ1Gzm_Animation;animation-name: SJ-1vR0bMm_rJ5vJ1Gzm_Animation;-webkit-transform-origin: 50% 50%;transform-origin: 50% 50%;transform-box: fill-box;-webkit-transform: translate(0px, 10px);transform: translate(0px, 10px);}#SJ-1vR0bMm_SkydkJGMX{-webkit-animation-name: SJ-1vR0bMm_SkydkJGMX_Animation;animation-name: SJ-1vR0bMm_SkydkJGMX_Animation;-webkit-transform-origin: 50% 50%;transform-origin: 50% 50%;transform-box: fill-box;-webkit-transform: scale(0.5, 0.5);transform: scale(0.5, 0.5);}#BJzkvACbzm_rJguCA-Gm{-webkit-animation-name: BJzkvACbzm_rJguCA-Gm_Animation;animation-name: BJzkvACbzm_rJguCA-Gm_Animation;-webkit-transform-origin: 50% 50%;transform-origin: 50% 50%;transform-box: fill-box;-webkit-transform: translate(0px, 0px);transform: translate(0px, 0px);}#BJzkvACbzm_Hyfu00Wzm{-webkit-animation-name: BJzkvACbzm_Hyfu00Wzm_Animation;animation-name: BJzkvACbzm_Hyfu00Wzm_Animation;-webkit-transform-origin: 50% 50%;transform-origin: 50% 50%;transform-box: fill-box;-webkit-transform: scale(1, 1);transform: scale(1, 1);}#SkLg1DRA-GX_HJXlgkGG7{-webkit-animation-name: SkLg1DRA-GX_HJXlgkGG7_Animation;animation-name: SkLg1DRA-GX_HJXlgkGG7_Animation;-webkit-transform-origin: 50% 50%;transform-origin: 50% 50%;transform-box: fill-box;-webkit-transform: translate(0px, 0px);transform: translate(0px, 0px);}#SkLg1DRA-GX{-webkit-animation-name: SkLg1DRA-GX_Animation;animation-name: SkLg1DRA-GX_Animation;-webkit-transform-origin: 50% 50%;transform-origin: 50% 50%;transform-box: fill-box;opacity: 0;}#SyNWkwRCWzQ_ry_NWyMfQ{-webkit-animation-name: SyNWkwRCWzQ_ry_NWyMfQ_Animation;animation-name: SyNWkwRCWzQ_ry_NWyMfQ_Animation;-webkit-transform-origin: 50% 50%;transform-origin: 50% 50%;transform-box: fill-box;-webkit-transform: translate(0px, 0px);transform: translate(0px, 0px);}#SyNWkwRCWzQ{-webkit-animation-name: SyNWkwRCWzQ_Animation;animation-name: SyNWkwRCWzQ_Animation;-webkit-transform-origin: 50% 50%;transform-origin: 50% 50%;transform-box: fill-box;opacity: 0;}#SkdZkvA0WfX_rJ2CZJGGQ{-webkit-animation-name: SkdZkvA0WfX_rJ2CZJGGQ_Animation;animation-name: SkdZkvA0WfX_rJ2CZJGGQ_Animation;-webkit-transform-origin: 50% 50%;transform-origin: 50% 50%;transform-box: fill-box;-webkit-transform: translate(0px, 0px);transform: translate(0px, 0px);}#SkdZkvA0WfX{-webkit-animation-name: SkdZkvA0WfX_Animation;animation-name: SkdZkvA0WfX_Animation;-webkit-transform-origin: 50% 50%;transform-origin: 50% 50%;transform-box: fill-box;opacity: 0;}#ByTbkwCRWfX_SkS_zJfzQ{-webkit-animation-name: ByTbkwCRWfX_SkS_zJfzQ_Animation;animation-name: ByTbkwCRWfX_SkS_zJfzQ_Animation;-webkit-transform-origin: 50% 50%;transform-origin: 50% 50%;transform-box: fill-box;-webkit-transform: translate(0px, 0px);transform: translate(0px, 0px);}#ByTbkwCRWfX{-webkit-animation-name: ByTbkwCRWfX_Animation;animation-name: ByTbkwCRWfX_Animation;-webkit-transform-origin: 50% 50%;transform-origin: 50% 50%;transform-box: fill-box;opacity: 0;}#B1mMyPRAZGQ_S1ZWmkGGQ{-webkit-animation-name: B1mMyPRAZGQ_S1ZWmkGGQ_Animation;animation-name: B1mMyPRAZGQ_S1ZWmkGGQ_Animation;-webkit-transform-origin: 50% 50%;transform-origin: 50% 50%;transform-box: fill-box;-webkit-transform: translate(0px, 0px);transform: translate(0px, 0px);}#B1mMyPRAZGQ{-webkit-animation-name: B1mMyPRAZGQ_Animation;animation-name: B1mMyPRAZGQ_Animation;-webkit-transform-origin: 50% 50%;transform-origin: 50% 50%;transform-box: fill-box;opacity: 0;}#BkKG1vR0ZM7_SJvYm1ffX{-webkit-animation-name: BkKG1vR0ZM7_SJvYm1ffX_Animation;animation-name: BkKG1vR0ZM7_SJvYm1ffX_Animation;-webkit-transform-origin: 50% 50%;transform-origin: 50% 50%;transform-box: fill-box;-webkit-transform: translate(0px, 0px);transform: translate(0px, 0px);}#BkKG1vR0ZM7{-webkit-animation-name: BkKG1vR0ZM7_Animation;animation-name: BkKG1vR0ZM7_Animation;-webkit-transform-origin: 50% 50%;transform-origin: 50% 50%;transform-box: fill-box;opacity: 0;}</style>
<g id="HkeJP0CZMQ">
	<g id="SJ-1vR0bMm_rJ5vJ1Gzm" data-animator-group="true" data-animator-type="0"><g id="SJ-1vR0bMm_SkydkJGMX" data-animator-group="true" data-animator-type="2"><ellipse cx="150" cy="148.5" rx="109" ry="11.5" id="SJ-1vR0bMm"/></g></g>
	<g id="BJzkvACbzm_rJguCA-Gm" data-animator-group="true" data-animator-type="0"><g id="BJzkvACbzm_Hyfu00Wzm" data-animator-group="true" data-animator-type="2"><g id="BJzkvACbzm">
		<path d="M201.81,22.207c-1.497,0-2.717,0.571-3.663,1.714c-0.946,1.143-1.418,2.612-1.418,4.408v1.959&#10;&#9;&#9;&#9;c0,1.606,0.436,2.918,1.306,3.939c0.87,1.02,2,1.531,3.388,1.531c1.646,0,2.929-0.639,3.847-1.918&#10;&#9;&#9;&#9;c0.918-1.279,1.378-3.088,1.378-5.429C206.647,24.276,205.034,22.207,201.81,22.207z" id="B1QJDR0WzX"/>
		<path d="M143.7,13.962c1.287,0,2.509,0.141,3.667,0.424c1.836,0.449,3.598-0.973,3.598-2.863c0-1.387-0.966-2.584-2.321-2.879&#10;&#9;&#9;&#9;c-1.594-0.346-3.406-0.52-5.434-0.52c-4.939,0-8.97,1.589-12.092,4.766c-3.123,3.177-4.684,7.263-4.684,12.256&#10;&#9;&#9;&#9;c0,4.749,1.398,8.548,4.194,11.398c2.796,2.851,6.575,4.276,11.337,4.276c2.693,0,5.016-0.299,6.966-0.897&#10;&#9;&#9;&#9;c1.204-0.369,2.034-1.468,2.034-2.728c0-1.893-1.804-3.218-3.633-2.729c-1.29,0.345-2.644,0.517-4.061,0.517&#10;&#9;&#9;&#9;c-2.993,0-5.368-0.945-7.123-2.837c-1.755-1.891-2.633-4.388-2.633-7.49c0-3.184,0.926-5.762,2.776-7.735&#10;&#9;&#9;&#9;C138.142,14.949,140.611,13.962,143.7,13.962z" id="BkNJwCR-fX"/>
		<path d="M167.887,17.146c-2.926,0-5.252,1.313-6.98,3.939h-0.082V10.156c0-1.82-1.476-3.296-3.296-3.296&#10;&#9;&#9;&#9;c-1.82,0-3.296,1.476-3.296,3.296v26.817c0,1.82,1.476,3.296,3.296,3.296c1.82,0,3.296-1.476,3.296-3.296v-9.562&#10;&#9;&#9;&#9;c0-1.631,0.463-2.94,1.389-3.928c0.8-0.854,1.915-1.298,3.085-1.275c2.459,0.049,3.689,1.783,3.689,5.203v9.572&#10;&#9;&#9;&#9;c0,1.815,1.471,3.286,3.286,3.286s3.286-1.471,3.286-3.286V26.411C175.561,20.235,173.002,17.146,167.887,17.146z" id="HyS1PACbzQ"/>
		<path d="M182.725,17.697c-1.815,0-3.286,1.471-3.286,3.286v16.001c0,1.815,1.471,3.286,3.286,3.286&#10;&#9;&#9;&#9;c1.815,0,3.286-1.471,3.286-3.286V20.983C186.011,19.168,184.54,17.697,182.725,17.697z" id="ryIywAR-Mm"/>
		<path d="M182.766,7.002c-1.115,0-2.031,0.316-2.745,0.949c-0.671,0.594-1.026,1.353-1.067,2.277&#10;&#9;&#9;&#9;c-0.044,0.992,0.349,1.979,1.078,2.653c0.721,0.667,1.632,1,2.734,1c1.115,0,2.034-0.33,2.755-0.99&#10;&#9;&#9;&#9;c0.721-0.66,1.082-1.486,1.082-2.48c0-0.98-0.354-1.792-1.061-2.439C184.834,7.326,183.909,7.002,182.766,7.002z" id="HyPkv0RZzm"/>
		<path d="M204.238,17.146c-3.156,0-5.599,1.334-7.327,4h-0.082v-0.153c0-1.82-1.476-3.296-3.296-3.296&#10;&#9;&#9;&#9;c-1.82,0-3.296,1.476-3.296,3.296v26.368c0,1.82,1.476,3.296,3.296,3.296c1.82,0,3.296-1.476,3.296-3.296v-9.807h0.082&#10;&#9;&#9;&#9;c1.429,2.177,3.524,3.265,6.286,3.265c3.048,0,5.51-1.136,7.388-3.408c1.878-2.272,2.816-5.293,2.816-9.062&#10;&#9;&#9;&#9;c0-3.456-0.809-6.187-2.429-8.194C209.354,18.149,207.109,17.146,204.238,17.146z M205.269,33.84&#10;&#9;&#9;&#9;c-0.918,1.279-2.201,1.918-3.847,1.918c-1.388,0-2.517-0.51-3.388-1.531c-0.87-1.02-1.306-2.333-1.306-3.939V28.33&#10;&#9;&#9;&#9;c0-1.796,0.472-3.265,1.418-4.408c0.946-1.143,2.166-1.714,3.663-1.714c3.225,0,4.837,2.068,4.837,6.204&#10;&#9;&#9;&#9;C206.647,30.752,206.187,32.562,205.269,33.84z" id="Bkuyw0AWGX"/>
		<path d="M229.721,28.105c-1.028-0.558-2.561-1.177-4.602-1.857c-1.905-0.639-2.857-1.476-2.857-2.51&#10;&#9;&#9;&#9;c0-0.612,0.319-1.105,0.959-1.48c0.639-0.374,1.483-0.561,2.531-0.561c1.008,0,1.975,0.118,2.902,0.354&#10;&#9;&#9;&#9;c1.466,0.373,2.894-0.706,2.894-2.218c0-1.097-0.777-2.031-1.85-2.259c-1.342-0.285-2.719-0.428-4.13-0.428&#10;&#9;&#9;&#9;c-2.912,0-5.266,0.63-7.062,1.888c-1.796,1.259-2.694,2.997-2.694,5.215c0,1.824,0.523,3.269,1.572,4.337&#10;&#9;&#9;&#9;c1.047,1.068,2.973,2.038,5.776,2.908c2.245,0.694,3.367,1.558,3.367,2.592c0,1.456-1.361,2.184-4.082,2.184&#10;&#9;&#9;&#9;c-1.154,0-2.321-0.195-3.502-0.586c-1.54-0.51-3.13,0.613-3.13,2.235c0,1.092,0.749,2.034,1.806,2.303&#10;&#9;&#9;&#9;c1.569,0.4,3.232,0.599,4.99,0.599c3.115,0,5.605-0.643,7.47-1.929c1.863-1.286,2.796-3.092,2.796-5.419&#10;&#9;&#9;&#9;c0-1.197-0.269-2.252-0.806-3.163C231.53,29.398,230.748,28.664,229.721,28.105z" id="HyK1DRCbzX"/>
		<path d="M162.499,75.589c0,0.844,0.289,1.524,0.867,2.041c0.578,0.517,1.357,0.776,2.337,0.776&#10;&#9;&#9;&#9;c1.347,0,2.455-0.476,3.327-1.429c0.87-0.952,1.306-2.136,1.306-3.551v-1.612l-4.265,0.551&#10;&#9;&#9;&#9;C163.689,72.678,162.499,73.752,162.499,75.589z" id="BJ5yv00Zz7"/>
		<path d="M229.709,63.976c-1.13,0-2.13,0.463-3,1.388c-0.729,0.775-1.23,1.76-1.501,2.955&#10;&#9;&#9;&#9;c-0.083,0.366,0.192,0.719,0.567,0.719h7.439c0.337,0,0.599-0.288,0.58-0.625C233.631,65.455,232.269,63.976,229.709,63.976z" id="Hys1PAA-G7"/>
		<path d="M150.337,64.752h-6.647c-1.493,0-2.704,1.211-2.704,2.704c0,1.493,1.211,2.704,2.704,2.704h2.718&#10;&#9;&#9;&#9;c0.533,0,0.966,0.432,0.966,0.966v5.524c-1.115,0.544-2.551,0.816-4.306,0.816c-2.952,0-5.283-0.925-6.99-2.776&#10;&#9;&#9;&#9;c-1.707-1.85-2.561-4.429-2.561-7.735c0-3.252,0.946-5.871,2.837-7.857c1.891-1.986,4.36-2.98,7.408-2.98&#10;&#9;&#9;&#9;c1.957,0,3.747,0.219,5.371,0.656c1.823,0.491,3.609-0.895,3.609-2.783c0-1.31-0.879-2.469-2.149-2.79&#10;&#9;&#9;&#9;c-2.002-0.505-4.231-0.757-6.688-0.757c-5.238,0-9.46,1.561-12.664,4.684c-3.204,3.123-4.806,7.174-4.806,12.154&#10;&#9;&#9;&#9;c0,4.912,1.456,8.783,4.368,11.613c2.911,2.83,6.885,4.245,11.919,4.245c3.973,0,7.395-0.693,10.268-2.081&#10;&#9;&#9;&#9;c0.69-0.333,1.121-1.04,1.121-1.806v-10.73C154.109,66.441,152.42,64.752,150.337,64.752z" id="HJ2yD0CZfQ"/>
		<path d="M167.091,59.466c-1.211,0-2.671,0.177-4.378,0.531c-0.995,0.206-1.873,0.449-2.634,0.729&#10;&#9;&#9;&#9;c-0.875,0.322-1.458,1.149-1.458,2.082c0,1.571,1.579,2.605,3.048,2.047c1.468-0.558,2.99-0.837,4.565-0.837&#10;&#9;&#9;&#9;c2.735,0,4.102,1.313,4.102,3.939l-6.204,0.837c-5.157,0.708-7.735,3.225-7.735,7.551c0,2.095,0.643,3.752,1.929,4.97&#10;&#9;&#9;&#9;c1.286,1.218,2.996,1.827,5.133,1.827c2.965,0,5.218-1.279,6.755-3.837h0.082v0.153c0,1.73,1.403,3.133,3.133,3.133&#10;&#9;&#9;&#9;s3.133-1.403,3.133-3.133v-10.5C176.561,62.629,173.403,59.466,167.091,59.466z M170.336,73.426c0,1.415-0.436,2.599-1.306,3.551&#10;&#9;&#9;&#9;c-0.871,0.953-1.98,1.429-3.327,1.429c-0.98,0-1.759-0.258-2.337-0.776c-0.579-0.517-0.867-1.197-0.867-2.041&#10;&#9;&#9;&#9;c0-1.837,1.19-2.911,3.572-3.225l4.265-0.551V73.426z" id="rkaJP0A-Gm"/>
		<path d="M208.583,59.466c-3.32,0-5.85,1.422-7.592,4.265c-1.17-2.843-3.34-4.265-6.51-4.265c-1.442,0-2.816,0.357-4.123,1.071&#10;&#9;&#9;&#9;c-1.306,0.714-2.354,1.718-3.143,3.01h-0.082v-0.235c0-1.82-1.476-3.296-3.296-3.296c-1.82,0-3.296,1.476-3.296,3.296v15.98&#10;&#9;&#9;&#9;c0,1.82,1.476,3.296,3.296,3.296c1.82,0,3.296-1.476,3.296-3.296v-9.296c0-1.646,0.37-2.97,1.112-3.97c0.742-1,1.732-1.5,2.97-1.5&#10;&#9;&#9;&#9;c2.49,0,3.735,1.674,3.735,5.021v9.756c0,1.815,1.471,3.286,3.286,3.286c1.815,0,3.286-1.471,3.286-3.286v-9.368&#10;&#9;&#9;&#9;c0-1.51,0.388-2.789,1.163-3.837c0.776-1.048,1.748-1.572,2.918-1.572c2.517,0,3.776,1.728,3.776,5.184v9.592&#10;&#9;&#9;&#9;c0,1.815,1.471,3.286,3.286,3.286c1.815,0,3.286-1.471,3.286-3.286V68.568C215.951,62.5,213.495,59.466,208.583,59.466z" id="HkAJPC0ZzQ"/>
		<path d="M229.75,59.466c-3.211,0-5.878,1.126-8,3.378c-2.123,2.252-3.184,5.181-3.184,8.786c0,3.62,0.997,6.443,2.99,8.47&#10;&#9;&#9;&#9;c1.993,2.028,4.786,3.041,8.378,3.041c2.624,0,4.851-0.358,6.682-1.074c0.848-0.332,1.4-1.155,1.4-2.065&#10;&#9;&#9;&#9;c0-1.494-1.441-2.541-2.873-2.113c-1.157,0.345-2.397,0.518-3.719,0.518c-3.528,0-5.585-1.369-6.172-4.107&#10;&#9;&#9;&#9;c-0.125-0.583,0.311-1.138,0.907-1.138h12.532c0.698,0,1.264-0.566,1.264-1.264v-1.532c0-3.388-0.901-6.051-2.704-7.99&#10;&#9;&#9;&#9;C235.447,60.435,232.947,59.466,229.75,59.466z M233.214,69.038h-7.439c-0.376,0-0.651-0.353-0.567-0.719&#10;&#9;&#9;&#9;c0.271-1.195,0.772-2.179,1.501-2.955c0.87-0.925,1.87-1.388,3-1.388c2.56,0,3.922,1.479,4.086,4.437&#10;&#9;&#9;&#9;C233.813,68.75,233.551,69.038,233.214,69.038z" id="rJJgyw0C-fm"/>
		<path d="M258.232,72.63c-0.538-0.911-1.32-1.646-2.347-2.204c-1.028-0.558-2.561-1.177-4.602-1.857&#10;&#9;&#9;&#9;c-1.905-0.639-2.857-1.476-2.857-2.51c0-0.612,0.319-1.105,0.959-1.48c0.639-0.374,1.483-0.561,2.531-0.561&#10;&#9;&#9;&#9;c1.008,0,1.975,0.118,2.902,0.354c1.466,0.373,2.894-0.706,2.894-2.218c0-1.097-0.777-2.031-1.85-2.259&#10;&#9;&#9;&#9;c-1.342-0.285-2.719-0.428-4.13-0.428c-2.912,0-5.266,0.63-7.062,1.888c-1.796,1.259-2.694,2.997-2.694,5.215&#10;&#9;&#9;&#9;c0,1.824,0.523,3.269,1.571,4.337c1.047,1.068,2.973,2.038,5.776,2.908c2.245,0.694,3.367,1.558,3.367,2.592&#10;&#9;&#9;&#9;c0,1.456-1.361,2.184-4.082,2.184c-1.154,0-2.321-0.195-3.502-0.586c-1.54-0.51-3.13,0.613-3.13,2.235&#10;&#9;&#9;&#9;c0,1.092,0.749,2.034,1.806,2.303c1.569,0.4,3.232,0.599,4.99,0.599c3.115,0,5.605-0.643,7.47-1.929&#10;&#9;&#9;&#9;c1.863-1.286,2.796-3.092,2.796-5.419C259.039,74.596,258.769,73.542,258.232,72.63z" id="SJggJPARZGQ"/>
		<path d="M90.975,71.553c0.566-0.124,1.125-0.267,1.677-0.425C92.082,71.241,91.523,71.383,90.975,71.553z" id="S1ZxkPRRWz7"/>
		<path d="M103.899,4.993c0.678,0.318,1.347,0.653,2.005,1.005C105.288,5.579,104.615,5.241,103.899,4.993z" id="H1zlywRAWM7"/>
		<path d="M96.757,71.185c-0.329-0.864-0.557-1.775-0.675-2.721C96.156,69.425,96.389,70.34,96.757,71.185z" id="rJXg1wRAWMQ"/>
		<path d="M105.111,83.551c-6.735-0.36-12.151-5.675-12.677-12.365c-0.481,0.134-0.967,0.259-1.459,0.366&#10;&#9;&#9;&#9;c-1.88,0.411-3.831,0.634-5.835,0.634c-15.015,0-27.187-12.172-27.187-27.187c0-15.015,12.172-27.187,27.187-27.187&#10;&#9;&#9;&#9;c4.268,0,8.305,0.986,11.9,2.739c0.128,0.063,0.253,0.13,0.38,0.195c1.117,0.537,2.369,0.838,3.692,0.838&#10;&#9;&#9;&#9;c4.711,0,8.53-3.819,8.53-8.53c0-2.935-1.482-5.523-3.739-7.057c-0.658-0.351-1.327-0.686-2.005-1.005&#10;&#9;&#9;&#9;C98.204,2.319,91.848,0.821,85.14,0.821c-24.399,0-44.179,19.78-44.179,44.179c0,22.321,16.554,40.772,38.054,43.754&#10;&#9;&#9;&#9;c2.002,0.278,4.046,0.425,6.124,0.425c7.847,0,15.213-2.052,21.6-5.641c-0.298,0.02-0.597,0.033-0.899,0.033&#10;&#9;&#9;&#9;C105.596,83.571,105.353,83.564,105.111,83.551z" id="HyNgJw0A-GQ"/>
		<path d="M95.979,34.295h-9.462v0.011c-6.334,0.225-11.402,5.427-11.402,11.817&#10;&#9;&#9;&#9;c0,0.215,0.007,0.429,0.018,0.641c0.243,4.539,3.047,8.395,6.991,10.157c1.35,0.603,2.831,0.964,4.392,1.019v0.011h9.462v3.362&#10;&#9;&#9;&#9;v5.674c0,0.502,0.042,0.993,0.103,1.478c0.118,0.947,0.347,1.858,0.675,2.721c1.623,4.267,5.635,7.355,10.408,7.61&#10;&#9;&#9;&#9;c0.213,0.011,0.426,0.018,0.642,0.018c6.532,0,11.828-5.295,11.828-11.827V57.95C119.634,44.886,109.043,34.295,95.979,34.295z&#10;&#9;&#9;&#9; M95.505,46.674c0,0.577-0.468,1.045-1.045,1.045h-2.353v2.353c0,0.577-0.468,1.045-1.045,1.045h-1.308&#10;&#9;&#9;&#9;c-0.577,0-1.045-0.468-1.045-1.045v-2.353h-2.353c-0.577,0-1.045-0.468-1.045-1.045v-1.308c0-0.577,0.468-1.045,1.045-1.045h2.353&#10;&#9;&#9;&#9;v-2.353c0-0.577,0.468-1.045,1.045-1.045h1.308c0.577,0,1.045,0.468,1.045,1.045v2.353h2.353c0.577,0,1.045,0.468,1.045,1.045&#10;&#9;&#9;&#9;V46.674z M107.739,68.958c-2.252,0-4.078-1.826-4.078-4.078c0-2.252,1.826-4.078,4.078-4.078c2.252,0,4.078,1.826,4.078,4.078&#10;&#9;&#9;&#9;C111.818,67.133,109.992,68.958,107.739,68.958z" id="HJHx1vAAZfQ"/>
	</g></g></g>
</g>
<g id="SkLg1DRA-GX_HJXlgkGG7" data-animator-group="true" data-animator-type="0"><g id="SkLg1DRA-GX">
	<g id="B1wxJwARbMQ">
		<path d="M220.769,131.299l-1.02-5.102&#10;&#9;&#9;&#9;c0.041-0.208,0.063-0.422,0.063-0.642c0-1.813-1.469-3.282-3.282-3.282c-1.098,0-2.069,0.54-2.665,1.368h-4.79&#10;&#9;&#9;&#9;c-0.596-0.828-1.567-1.368-2.665-1.368c-1.813,0-3.282,1.469-3.282,3.282c0,0.22,0.022,0.434,0.063,0.642l-1.02,5.102&#10;&#9;&#9;&#9;c0,0-0.547,1.641,0.957,2.462c0,0,1.915,0.957,3.009-0.957l2.382-4.103h5.903l2.382,4.103c1.094,1.915,3.009,0.957,3.009,0.957&#10;&#9;&#9;&#9;C221.316,132.94,220.769,131.299,220.769,131.299z" id="Hk_xkPR0WfQ"/>
		<g id="HkYx1D0AbM7">
			<path d="M206.427,125.355L206.427,125.355c-0.221,0-0.402-0.181-0.402-0.402v-0.803&#10;&#9;&#9;&#9;&#9;c0-0.221,0.181-0.402,0.402-0.402l0,0c0.221,0,0.402,0.181,0.402,0.402v0.803C206.828,125.175,206.647,125.355,206.427,125.355z" id="Bk9xJPR0ZzQ"/>
			<path d="M206.427,128.137L206.427,128.137c-0.221,0-0.402-0.181-0.402-0.402v-0.803&#10;&#9;&#9;&#9;&#9;c0-0.221,0.181-0.402,0.402-0.402l0,0c0.221,0,0.402,0.181,0.402,0.402v0.803C206.828,127.956,206.647,128.137,206.427,128.137z" id="HJogkv0CWf7"/>
			<path d="M207.014,125.943L207.014,125.943c0-0.221,0.181-0.402,0.402-0.402h0.803&#10;&#9;&#9;&#9;&#9;c0.221,0,0.402,0.181,0.402,0.402l0,0c0,0.221-0.181,0.402-0.402,0.402h-0.803C207.195,126.344,207.014,126.164,207.014,125.943z&#10;&#9;&#9;&#9;&#9;" id="Skne1P0RWf7"/>
			<path d="M204.233,125.943L204.233,125.943c0-0.221,0.181-0.402,0.402-0.402h0.803&#10;&#9;&#9;&#9;&#9;c0.221,0,0.402,0.181,0.402,0.402l0,0c0,0.221-0.181,0.402-0.402,0.402h-0.803C204.414,126.344,204.233,126.164,204.233,125.943z&#10;&#9;&#9;&#9;&#9;" id="B16eJPCAbGX"/>
		</g>
		<path d="M210.375,126.925v-0.005c0-0.149,0.122-0.271,0.271-0.271h1.372c0.149,0,0.271,0.122,0.271,0.271&#10;&#9;&#9;&#9;v0.005c0,0.149-0.122,0.271-0.271,0.271h-1.372C210.497,127.196,210.375,127.074,210.375,126.925z" id="SJCxkw0Cbfm"/>
		<g id="SyyWyDACWzm">
			<circle cx="215.866" cy="124.673" r="0.623" id="HJlZ1DCCWMQ"/>
			<circle cx="217.667" cy="124.673" r="0.623" id="H1Wb1wAC-M7"/>
			<circle cx="215.866" cy="126.474" r="0.623" id="SyzZkwAAZz7"/>
			<circle cx="217.667" cy="126.474" r="0.623" id="r1XZyPR0bf7"/>
		</g>
	</g>
</g></g>
<g id="SyNWkwRCWzQ_ry_NWyMfQ" data-animator-group="true" data-animator-type="0"><g id="SyNWkwRCWzQ">
	<g id="rySWJDR0bGm">
		
			<ellipse cx="28.429" cy="74.605" rx="0.936" ry="0.936" id="r1UWkvCCZfm"/>
		<path d="M32.616,78.792l-2.636-2.636&#10;&#9;&#9;&#9;c-0.857,0.857-2.245,0.857-3.102,0c-0.857-0.857-0.857-2.245,0-3.102l-2.947-2.947c-0.512-0.512-1.349-0.512-1.861,0l-0.931,0.931&#10;&#9;&#9;&#9;c0.857,0.857,0.857,2.245,0,3.102c-0.857,0.857-2.245,0.857-3.102,0l-0.931,0.931c-0.512,0.512-0.512,1.349,0,1.861l2.947,2.947&#10;&#9;&#9;&#9;c-0.857,0.857-0.857,2.245,0,3.102c0.857,0.857,2.245,0.857,3.102,0l0,0l2.636,2.636c0.512,0.512,1.349,0.512,1.861,0l0.931-0.931&#10;&#9;&#9;&#9;c-0.857-0.857-0.857-2.245,0-3.102c0.857-0.857,2.245-0.857,3.102,0l0.931-0.931C33.128,80.142,33.128,79.304,32.616,78.792z" id="H1vWyD0RbM7"/>
	</g>
</g></g>
<g id="SkdZkvA0WfX_rJ2CZJGGQ" data-animator-group="true" data-animator-type="0"><g id="SkdZkvA0WfX">
	<g id="ryYZyPCRZGX">
		<path d="M23.322,16.444l1.718,3.481&#10;&#9;&#9;&#9;c0.192,0.388,0.562,0.657,0.99,0.72l3.842,0.558c1.079,0.157,1.51,1.483,0.729,2.244l-2.78,2.71&#10;&#9;&#9;&#9;c-0.31,0.302-0.452,0.738-0.378,1.164l0.656,3.826c0.184,1.075-0.944,1.894-1.909,1.387l-3.436-1.806&#10;&#9;&#9;&#9;c-0.383-0.201-0.841-0.201-1.224,0l-3.436,1.806c-0.965,0.507-2.093-0.312-1.909-1.387l0.656-3.826&#10;&#9;&#9;&#9;c0.073-0.427-0.068-0.862-0.378-1.164l-2.78-2.71c-0.781-0.761-0.35-2.087,0.729-2.244l3.842-0.558&#10;&#9;&#9;&#9;c0.428-0.062,0.799-0.331,0.99-0.72l1.718-3.481C21.445,15.466,22.84,15.466,23.322,16.444z" id="B15-kDA0-zQ"/>
		<circle cx="24.213" cy="24.458" r="0.647" id="B1sbkvCCbzQ"/>
		<circle cx="19.813" cy="24.458" r="0.647" id="HJhWJDAR-GX"/>
	</g>
</g></g>
<g id="ByTbkwCRWfX_SkS_zJfzQ" data-animator-group="true" data-animator-type="0"><g id="ByTbkwCRWfX">
	<g id="ryA-yw00bG7">
		<path d="M263.33,118.743&#10;&#9;&#9;&#9;l-4.68,4.476c-0.136,0.13-0.044,0.36,0.145,0.36h4.91c0.186,0,0.28,0.225,0.148,0.357l-3.82,3.82" id="SJyzJwRRZfm"/>
		<g id="SkgMJw0CbfQ">
			<path d="M269.335,117.799&#10;&#9;&#9;&#9;&#9;c1.051,1.556,1.665,3.432,1.665,5.451c0,5.385-4.365,9.75-9.75,9.75c-5.385,0-9.75-4.365-9.75-9.75c0-5.385,4.365-9.75,9.75-9.75&#10;&#9;&#9;&#9;&#9;c1.992,0,3.845,0.598,5.389,1.623" id="SkbGJPRCbGQ"/>
			<circle cx="268.276" cy="116.511" r="1.577" id="B1MMyPR0Wz7"/>
		</g>
	</g>
</g></g>
<g id="B1mMyPRAZGQ_S1ZWmkGGQ" data-animator-group="true" data-animator-type="0"><g id="B1mMyPRAZGQ">
	<g id="H1EfyPRAWfm">
		<path d="M290.35,40h-10.629&#10;&#9;&#9;&#9;c-0.122,0-0.221-0.1-0.221-0.221V24.721c0-0.122,0.1-0.221,0.221-0.221h10.629c0.122,0,0.221,0.1,0.221,0.221v15.057&#10;&#9;&#9;&#9;C290.571,39.9,290.472,40,290.35,40z" id="BJBfJwARZz7"/>
		<rect x="280.607" y="25.607" width="1.329" height="1.329" id="HJIzJDC0-zX"/>
		<rect x="288.136" y="37.564" width="1.329" height="1.329" id="r1wMyv0AWGm"/>
		<path d="M287.13,30.48&#10;&#9;&#9;&#9;c-0.496-0.536-1.29-0.612-1.872-0.23c-0.135,0.089-0.309,0.089-0.444,0c-0.582-0.382-1.376-0.306-1.872,0.23&#10;&#9;&#9;&#9;c-0.537,0.58-0.494,1.489,0.065,2.047l1.913,1.912c0.065,0.065,0.17,0.065,0.235,0l1.912-1.912&#10;&#9;&#9;&#9;C287.624,31.969,287.667,31.06,287.13,30.48z" id="SkOfkvC0ZfX"/>
	</g>
</g></g>
<g id="BkKG1vR0ZM7_SJvYm1ffX" data-animator-group="true" data-animator-type="0"><g id="BkKG1vR0ZM7">
	<g id="rJ9MJPA0WfQ">
		
			<line x1="30.304" y1="123.947" x2="36.714" y2="137.414" id="BJjG1PCAWzX"/>
		
			<line x1="26.971" y1="133.793" x2="40.048" y2="127.569" id="B12G1DA0WGm"/>
		<path d="M35.9,129.543&#10;&#9;&#9;&#9;c-0.926-1.946-0.934-4.092-0.199-5.95c-1.735-0.547-3.673-0.466-5.446,0.377c-1.725,0.821-2.989,2.219-3.672,3.853&#10;&#9;&#9;&#9;c1.964,0.577,3.684,1.955,4.633,3.949s0.934,4.197,0.144,6.086c1.699,0.5,3.581,0.4,5.306-0.421&#10;&#9;&#9;&#9;c1.773-0.844,3.058-2.297,3.727-3.989C38.487,132.848,36.827,131.489,35.9,129.543z" id="BJpMkP0AZzQ"/>
		<path d="M40.194,127.499&#10;&#9;&#9;&#9;c-0.926-1.946-2.587-3.305-4.492-3.906c-0.735,1.858-0.728,4.003,0.199,5.95c0.926,1.946,2.587,3.305,4.492,3.906&#10;&#9;&#9;&#9;C41.128,131.591,41.12,129.445,40.194,127.499z" id="ryCMJw0R-M7"/>
		<path d="M31.216,131.772&#10;&#9;&#9;&#9;c-0.949-1.994-2.669-3.372-4.633-3.949c-0.79,1.888-0.805,4.092,0.144,6.086s2.669,3.372,4.633,3.949&#10;&#9;&#9;&#9;C32.15,135.97,32.165,133.766,31.216,131.772z" id="SkyXyw0AbGQ"/>
	</g>
</g></g>
<script>(function(){var a=document.querySelector('#r1kwCAZGX'),b=a.querySelectorAll('style'),c=function(d){b.forEach(function(f){var g=f.textContent;g&amp;&amp;(f.textContent=g.replace(/transform-box:[^;\r\n]*/gi,'transform-box: '+d))})};c('initial'),window.requestAnimationFrame(function(){return c('fill-box')})})();</script></svg>