<svg xmlns="http://www.w3.org/2000/svg" viewBox="0 0 120 120"><defs><style>.cls-1{opacity:0.2;}.cls-2,.cls-4{fill:none;stroke-miterlimit:10;}.cls-2{stroke:#1787dd;stroke-width:4px;}.cls-3{fill:#1787dd;}.cls-4{stroke:#fa5151;stroke-width:2.5px;}</style></defs><title>资源 3</title><g id="图层_2" data-name="图层 2"><g id="图层_1-2" data-name="图层 1"><g class="cls-1"><circle class="cls-2" cx="60" cy="60" r="58"/></g><rect class="cls-3" x="40" y="52" width="40" height="4" rx="2" ry="2"/><rect class="cls-3" x="48" y="64.5" width="24" height="4" rx="2" ry="2"/><path class="cls-3" d="M60,96.5h0Z"/><path class="cls-3" d="M59.94,96.5h0Z"/><path class="cls-3" d="M76.87,89.65a1.86,1.86,0,0,0-2.32-.6A32.27,32.27,0,0,1,60,92.5H40.38a6.88,6.88,0,0,1-6.88-6.88V78.83l-.35-.51a32.34,32.34,0,0,1-5.64-19.17A32.5,32.5,0,1,1,91,69.66a1.85,1.85,0,0,0,1,2.18l.17.09a1.85,1.85,0,0,0,2.66-1A36.5,36.5,0,1,0,29.5,80.06v5.56A10.88,10.88,0,0,0,40.38,96.5H60.26a60.1,60.1,0,0,0,6.35-.6,36.2,36.2,0,0,0,9.78-3.29A1.86,1.86,0,0,0,77,89.8Z"/><path class="cls-4" d="M94.54,80c-1.74-2.06-5.27-5.5-9.34-5.5-3.88,0-7.27,3.13-9.09,5.21a2.73,2.73,0,0,0,0,3.59c1.82,2.07,5.21,5.21,9.09,5.21,4.07,0,7.59-3.44,9.34-5.5A2.32,2.32,0,0,0,94.54,80Zm-9.27,5.23A3.73,3.73,0,1,1,89,81.5,3.73,3.73,0,0,1,85.27,85.23Z"/></g></g></svg>