<?xml version="1.0" encoding="iso-8859-1"?>
<!-- Generator: Adobe Illustrator 21.0.0, SVG Export Plug-In . SVG Version: 6.00 Build 0)  -->
<svg version="1.1" id="&#x56FE;&#x5C42;_1" xmlns="http://www.w3.org/2000/svg" xmlns:xlink="http://www.w3.org/1999/xlink" x="0px"
	 y="0px" viewBox="0 0 400 354" style="enable-background:new 0 0 400 354;" xml:space="preserve">
<g>
	<g>
		
			<ellipse transform="matrix(0.1094 -0.994 0.994 0.1094 20.1063 148.9412)" style="fill:#FEFEFE;" cx="93.172" cy="63.25" rx="10.163" ry="8.732"/>
		<path style="fill:#989898;" d="M400,200.49c0,55.185-22.35,105.149-58.492,141.335l-281.845,1.162
			C22.833,306.712,0,256.267,0,200.49c0-110.457,89.543-200,200-200S400,90.033,400,200.49z"/>
		<path style="opacity:0.3;fill:#AFAFAF;" d="M0,200.804c0,55.619,22.707,105.931,59.351,142.183l205.564-0.848
			c36.142-36.186,58.492-86.151,58.492-141.335c0-97.357-69.569-178.453-161.704-196.322C69.569,22.351,0,103.447,0,200.804z"/>
		<g>
			<ellipse style="fill:#FFFFFF;" cx="100.667" cy="115.781" rx="69.75" ry="54.952"/>
			<g>
				<circle style="fill:#B2B2B2;" cx="77.926" cy="115.781" r="6.063"/>
				<circle style="fill:#B2B2B2;" cx="100.667" cy="115.781" r="6.063"/>
				<circle style="fill:#B2B2B2;" cx="123.407" cy="115.781" r="6.063"/>
			</g>
			<ellipse style="fill:#FFFFFF;" cx="103.258" cy="192.823" rx="14.086" ry="7.333"/>
		</g>
		<g>
			<g>
				<radialGradient id="SVGID_1_" cx="260.3269" cy="195.2396" r="28.9405" gradientUnits="userSpaceOnUse">
					<stop  offset="0" style="stop-color:#C1C1C1"/>
					<stop  offset="1" style="stop-color:#A2A2A2"/>
				</radialGradient>
				<circle style="fill:url(#SVGID_1_);" cx="260.167" cy="196.49" r="18.333"/>
				<circle style="fill:#FFFFFF;" cx="260.167" cy="196.49" r="10"/>
			</g>
			<g>
				<radialGradient id="SVGID_2_" cx="153.3269" cy="189.2396" r="28.9405" gradientUnits="userSpaceOnUse">
					<stop  offset="0" style="stop-color:#C1C1C1"/>
					<stop  offset="1" style="stop-color:#A2A2A2"/>
				</radialGradient>
				<circle style="fill:url(#SVGID_2_);" cx="153.167" cy="190.49" r="18.333"/>
				<circle style="fill:#FFFFFF;" cx="153.167" cy="190.49" r="10"/>
			</g>
			
				<radialGradient id="SVGID_3_" cx="198.9665" cy="237.7258" r="126.8819" gradientTransform="matrix(1 0 0 1.0576 0 -8.7879)" gradientUnits="userSpaceOnUse">
				<stop  offset="0" style="stop-color:#C1C1C1"/>
				<stop  offset="1" style="stop-color:#A2A2A2"/>
			</radialGradient>
			<ellipse style="fill:url(#SVGID_3_);" cx="198.167" cy="247.646" rx="91.5" ry="73.385"/>
			<ellipse style="fill:#FFFFFF;" cx="226" cy="216.823" rx="20.167" ry="21.667"/>
			<ellipse style="fill:#3D3D3D;" cx="224.219" cy="221.823" rx="9.385" ry="11.333"/>
			
				<ellipse transform="matrix(0.1094 -0.994 0.994 0.1094 -89.5532 340.3591)" style="fill:#FFFFFF;" cx="145.167" cy="220.156" rx="19.667" ry="14.647"/>
			
				<ellipse transform="matrix(0.1094 -0.994 0.994 0.1094 -94.7596 344.7354)" style="fill:#3D3D3D;" cx="145.006" cy="225.25" rx="10.163" ry="8.732"/>
			<ellipse style="fill:#FFFFFF;" cx="181.833" cy="235.656" rx="24" ry="19.833"/>
			<path style="fill:#3D3D3D;" d="M173.919,229.856l-3.19-1.944c-1.786-1.585-0.665-4.537,1.723-4.537h6.381
				c2.388,0,3.509,2.952,1.723,4.537l-3.19,1.944C176.381,230.728,174.902,230.728,173.919,229.856z"/>
			<ellipse style="fill:#999999;" cx="237.614" cy="245.823" rx="13.396" ry="6.188"/>
			<ellipse style="fill:#999999;" cx="128.771" cy="245.823" rx="13.396" ry="6.188"/>
			<radialGradient id="SVGID_4_" cx="257.125" cy="291.8229" r="13.8546" gradientUnits="userSpaceOnUse">
				<stop  offset="0" style="stop-color:#C1C1C1"/>
				<stop  offset="1" style="stop-color:#A2A2A2"/>
			</radialGradient>
			<ellipse style="fill:url(#SVGID_4_);" cx="257.125" cy="291.823" rx="15.292" ry="12.25"/>
			<radialGradient id="SVGID_5_" cx="130.6667" cy="289.8229" r="13.8546" gradientUnits="userSpaceOnUse">
				<stop  offset="0" style="stop-color:#C1C1C1"/>
				<stop  offset="1" style="stop-color:#A2A2A2"/>
			</radialGradient>
			<ellipse style="fill:url(#SVGID_5_);" cx="130.667" cy="289.823" rx="15.292" ry="12.25"/>
		</g>
		<g>
			
				<linearGradient id="SVGID_6_" gradientUnits="userSpaceOnUse" x1="35.6795" y1="358.5558" x2="369.6795" y2="358.5558" gradientTransform="matrix(1.012 0 0 0.5 -6.9401 165.75)">
				<stop  offset="0" style="stop-color:#A5A5A5"/>
				<stop  offset="1" style="stop-color:#9A9A9A"/>
			</linearGradient>
			<path style="fill:url(#SVGID_6_);" d="M353.167,348.406h-310c-7.051,0-12.912-5.287-13.853-12.09
				c-0.147,2.132-0.147,3.423-0.147,3.423c0,7.7,6.3,14,14,14h310c7.7,0,14-6.3,14-14c0,0,0-1.292-0.147-3.423
				C366.078,343.119,360.217,348.406,353.167,348.406z"/>
			
				<linearGradient id="SVGID_7_" gradientUnits="userSpaceOnUse" x1="35.6795" y1="308.5625" x2="369.6795" y2="308.5625" gradientTransform="matrix(1.012 0 0 0.5 -6.9401 165.75)">
				<stop  offset="0" style="stop-color:#D1D1D1"/>
				<stop  offset="1" style="stop-color:#A7A7A7"/>
			</linearGradient>
			<path style="fill:url(#SVGID_7_);" d="M353.167,348.406h-310c-7.7,0-14-6.3-14-14c0,0-0.001-42.75,28-42.75h282
				c27.999,0,28,42.75,28,42.75C367.167,342.106,360.867,348.406,353.167,348.406z"/>
		</g>
		<g style="display:none;">
			<linearGradient id="SVGID_8_" gradientUnits="userSpaceOnUse" x1="198.0625" y1="104.5729" x2="198.0625" y2="50.5729">
				<stop  offset="0" style="stop-color:#9B9B9B"/>
				<stop  offset="1" style="stop-color:#6D6D6D"/>
			</linearGradient>
			<path style="display:inline;fill:url(#SVGID_8_);" d="M244.27,104.573h-92.415c-2.599,0-4.242-2.792-2.979-5.064l18.373-33.071
				c5.44-9.792,15.762-15.865,26.964-15.865h7.701c11.202,0,21.523,6.073,26.964,15.865l18.373,33.071
				C248.511,101.781,246.869,104.573,244.27,104.573z"/>
			<rect x="196.062" y="0.26" style="display:inline;fill:#FFFFFF;" width="4" height="48"/>
			<path style="display:inline;fill:#6D6D6D;" d="M207.062,51.698h-18v-1c0-4.971,4.029-9,9-9h0c4.971,0,9,4.029,9,9V51.698z"/>
		</g>
	</g>
	<g>
		<polygon style="fill:#FFFFFF;" points="323.467,310.935 337.959,310.935 372.009,192.284 357.517,192.284 		"/>
		<polygon style="fill:#FFFFFF;" points="371.095,173.28 358.133,179.76 289.85,102.987 302.812,96.507 		"/>
		<circle style="fill:#A0A0A0;" cx="365.131" cy="183.302" r="16.473"/>
		<linearGradient id="SVGID_9_" gradientUnits="userSpaceOnUse" x1="272.0666" y1="306.9658" x2="345.591" y2="306.9658">
			<stop  offset="0" style="stop-color:#9B9B9B"/>
			<stop  offset="1" style="stop-color:#6D6D6D"/>
		</linearGradient>
		<path style="fill:url(#SVGID_9_);" d="M308.829,299.161c15.775,0,29.519,6.293,36.762,15.61h-73.524
			C279.31,305.454,293.054,299.161,308.829,299.161z"/>
		<path style="fill:#FFFFFF;" d="M267.166,325.639h83.327c2.989,0,5.434-2.445,5.434-5.434l0,0c0-2.989-2.445-5.434-5.434-5.434
			h-83.327c-2.989,0-5.434,2.445-5.434,5.434l0,0C261.731,323.194,264.177,325.639,267.166,325.639z"/>
		<linearGradient id="SVGID_10_" gradientUnits="userSpaceOnUse" x1="230.1851" y1="127.199" x2="313.9543" y2="127.199">
			<stop  offset="0" style="stop-color:#9B9B9B"/>
			<stop  offset="1" style="stop-color:#6D6D6D"/>
		</linearGradient>
		<path style="fill:url(#SVGID_10_);" d="M231.188,130.296l70.815,39.019c1.171,0.645,2.629-0.062,2.846-1.382l8.761-53.148
			c1.775-10.765-3.427-21.48-12.982-26.745l0,0c-9.556-5.265-21.392-3.938-29.544,3.313l-40.248,35.799
			C229.836,128.04,230.016,129.65,231.188,130.296z"/>
	</g>
</g>
</svg>
