<?xml version="1.0" encoding="iso-8859-1"?>
<!-- Generator: Adobe Illustrator 21.0.0, SVG Export Plug-In . SVG Version: 6.00 Build 0)  -->
<svg version="1.1" id="&#x56FE;&#x5C42;_1" xmlns="http://www.w3.org/2000/svg" xmlns:xlink="http://www.w3.org/1999/xlink" x="0px"
	 y="0px" viewBox="0 0 280 98" style="enable-background:new 0 0 280 98;" xml:space="preserve">
<g style="opacity:0.1;">
	<path style="fill:#999999;" d="M44,97.157C20.203,97.157,0.843,77.797,0.843,54S20.203,10.843,44,10.843h192
		c23.797,0,43.157,19.36,43.157,43.157S259.797,97.157,236,97.157H44z"/>
	<path style="fill:#999999;" d="M236,11.686c23.332,0,42.314,18.982,42.314,42.314c0,23.332-18.982,42.314-42.314,42.314H44
		C20.668,96.314,1.686,77.332,1.686,54c0-23.332,18.982-42.314,42.314-42.314H236 M236,10H44C19.8,10,0,29.8,0,54v0
		c0,24.2,19.8,44,44,44h192c24.2,0,44-19.8,44-44v0C280,29.8,260.2,10,236,10L236,10z"/>
</g>
</svg>
