<?xml version="1.0" encoding="utf-8"?>
<!-- Generator: Adobe Illustrator 21.0.0, SVG Export Plug-In . SVG Version: 6.00 Build 0)  -->
<svg version="1.1" id="图层_1" xmlns="http://www.w3.org/2000/svg" xmlns:xlink="http://www.w3.org/1999/xlink" x="0px" y="0px"
	 viewBox="0 0 64 64" style="enable-background:new 0 0 64 64;" xml:space="preserve">
<style type="text/css">
	.st0{fill:url(#SVGID_1_);}
	.st1{fill:#FFFFFF;}
	.st2{fill:url(#SVGID_2_);}
	.st3{fill:url(#SVGID_3_);}
	.st4{fill:url(#SVGID_4_);}
</style>
<g>
	<linearGradient id="SVGID_1_" gradientUnits="userSpaceOnUse" x1="32" y1="64" x2="32" y2="-9.094947e-13">
		<stop  offset="0" style="stop-color:#C2C1C1"/>
		<stop  offset="1" style="stop-color:#999999"/>
	</linearGradient>
	<circle class="st0" cx="32" cy="32" r="32"/>
	<g>
		<polygon class="st1" points="32.1,20.6 31.9,20.6 32,20.7 		"/>
	</g>
	<g>
		<g>
			<linearGradient id="SVGID_2_" gradientUnits="userSpaceOnUse" x1="25.278" y1="47.854" x2="25.278" y2="34.0028">
				<stop  offset="0" style="stop-color:#FFFFFF;stop-opacity:0.6"/>
				<stop  offset="1" style="stop-color:#FFFFFF"/>
			</linearGradient>
			<path class="st2" d="M20.1,43.6c0,2.4,1.9,4.3,4.3,4.3h6V34H20.1V43.6z"/>
		</g>
		<g>
			<linearGradient id="SVGID_3_" gradientUnits="userSpaceOnUse" x1="38.722" y1="47.854" x2="38.722" y2="34.0028">
				<stop  offset="0" style="stop-color:#FFFFFF;stop-opacity:0.6"/>
				<stop  offset="1" style="stop-color:#FFFFFF"/>
			</linearGradient>
			<path class="st3" d="M33.6,47.9h6c2.4,0,4.3-1.9,4.3-4.3V34H33.6V47.9z"/>
		</g>
		<g>
			<linearGradient id="SVGID_4_" gradientUnits="userSpaceOnUse" x1="32" y1="32.3813" x2="32" y2="16.146">
				<stop  offset="0" style="stop-color:#FFFFFF;stop-opacity:0.6"/>
				<stop  offset="1" style="stop-color:#FFFFFF"/>
			</linearGradient>
			<path class="st4" d="M46.1,23h-3.6l0.1-0.1c1.4-1.9,0.9-4.6-1.1-6c-0.9-0.7-2.1-0.9-3.2-0.7c-1.1,0.2-2.1,0.8-2.8,1.8l-3.5,5
				h-0.2l-3.5-5c-0.7-0.9-1.6-1.6-2.8-1.8c-1.1-0.2-2.3,0-3.2,0.7c-1.9,1.4-2.4,4-1.1,6l0.1,0.1h-3.6c-1.3,0-2.4,1.1-2.4,2.4V30
				c0,1.3,1.1,2.4,2.4,2.4h12.6v-9.2h3.1v9.2h12.6c1.3,0,2.4-1.1,2.4-2.4v-4.7C48.5,24,47.4,23,46.1,23z M23.4,23l-0.7-1
				c-0.9-1.2-0.6-2.9,0.7-3.8c0.6-0.4,1.3-0.6,2-0.4c0.7,0.1,1.3,0.5,1.7,1.1L30,23H23.4z M34,23l2.9-4.1c0.4-0.6,1-1,1.7-1.1
				c0.7-0.1,1.4,0,2,0.4c1.2,0.9,1.5,2.5,0.7,3.8l-0.7,1H34z"/>
		</g>
	</g>
</g>
</svg>
