<?xml version="1.0" encoding="utf-8"?>
<!-- Generator: Adobe Illustrator 21.0.0, SVG Export Plug-In . SVG Version: 6.00 Build 0)  -->
<svg version="1.1" id="图层_1" xmlns="http://www.w3.org/2000/svg" xmlns:xlink="http://www.w3.org/1999/xlink" x="0px" y="0px"
	 viewBox="0 0 64 64" style="enable-background:new 0 0 64 64;" xml:space="preserve">
<style type="text/css">
	.st0{fill:url(#SVGID_1_);}
	.st1{fill:url(#SVGID_2_);}
</style>
<g>
	<linearGradient id="SVGID_1_" gradientUnits="userSpaceOnUse" x1="32" y1="0" x2="32" y2="64">
		<stop  offset="0" style="stop-color:#FFD018"/>
		<stop  offset="1" style="stop-color:#FF9714"/>
	</linearGradient>
	<circle class="st0" cx="32" cy="32" r="32"/>
	<linearGradient id="SVGID_2_" gradientUnits="userSpaceOnUse" x1="32" y1="48.8076" x2="32" y2="15.1924">
		<stop  offset="0" style="stop-color:#FFFFFF;stop-opacity:0.6"/>
		<stop  offset="1" style="stop-color:#FFFFFF"/>
	</linearGradient>
	<path class="st1" d="M45.4,43.3l-2.2-3.9c-0.2-0.4-0.3-0.8-0.3-1.3l0.3-8.2c0-4.8-3.1-8.9-7.3-10.5c-0.1-2.8-2.2-4.3-3.9-4.3
		s-3.8,1.5-3.9,4.3c-4.3,1.6-7.3,5.7-7.3,10.5l0.1,8.2c0,0.4-0.1,0.8-0.3,1.1l-2,4c-0.3,0.6,0.1,1.3,0.8,1.3h6.7
		c0.1,2.4,2.8,4.2,6.1,4.2c3.3,0,6-1.9,6.1-4.2h6.3C45.3,44.6,45.7,43.9,45.4,43.3z"/>
</g>
</svg>
