<?xml version="1.0" encoding="utf-8"?>
<!-- Generator: Adobe Illustrator 21.0.0, SVG Export Plug-In . SVG Version: 6.00 Build 0)  -->
<svg version="1.1" id="图层_1" xmlns="http://www.w3.org/2000/svg" xmlns:xlink="http://www.w3.org/1999/xlink" x="0px" y="0px"
	 viewBox="0 0 64 64" style="enable-background:new 0 0 64 64;" xml:space="preserve">
<style type="text/css">
	.st0{fill:url(#SVGID_1_);}
	.st1{fill:url(#SVGID_2_);}
	.st2{fill:url(#SVGID_3_);}
	.st3{fill:url(#SVGID_4_);}
	.st4{fill:url(#SVGID_5_);}
</style>
<g>
	<linearGradient id="SVGID_1_" gradientUnits="userSpaceOnUse" x1="32" y1="64" x2="32" y2="-9.094947e-13">
		<stop  offset="0" style="stop-color:#94BCFF"/>
		<stop  offset="1" style="stop-color:#A871FF"/>
	</linearGradient>
	<circle class="st0" cx="32" cy="32" r="32"/>
	<g>
		<linearGradient id="SVGID_2_" gradientUnits="userSpaceOnUse" x1="44.2868" y1="26.5967" x2="44.2868" y2="23.752">
			<stop  offset="0" style="stop-color:#FFFFFF;stop-opacity:0.6"/>
			<stop  offset="1" style="stop-color:#FFFFFF"/>
		</linearGradient>
		<path class="st1" d="M36.2,26.6h16.1c0.8,0,1.4-0.6,1.4-1.4c0-0.8-0.6-1.4-1.4-1.4H36.2c-0.8,0-1.4,0.6-1.4,1.4
			C34.8,26,35.4,26.6,36.2,26.6z"/>
		<linearGradient id="SVGID_3_" gradientUnits="userSpaceOnUse" x1="44.2868" y1="33.4224" x2="44.2868" y2="30.5776">
			<stop  offset="0" style="stop-color:#FFFFFF;stop-opacity:0.6"/>
			<stop  offset="1" style="stop-color:#FFFFFF"/>
		</linearGradient>
		<path class="st2" d="M52.3,30.6H36.2c-0.8,0-1.4,0.6-1.4,1.4s0.6,1.4,1.4,1.4h16.1c0.8,0,1.4-0.6,1.4-1.4S53.1,30.6,52.3,30.6z"/>
		<linearGradient id="SVGID_4_" gradientUnits="userSpaceOnUse" x1="49.0282" y1="40.248" x2="49.0282" y2="37.4033">
			<stop  offset="0" style="stop-color:#FFFFFF;stop-opacity:0.6"/>
			<stop  offset="1" style="stop-color:#FFFFFF"/>
		</linearGradient>
		<path class="st3" d="M52.3,37.4h-6.6c-0.8,0-1.4,0.6-1.4,1.4c0,0.8,0.6,1.4,1.4,1.4h6.6c0.8,0,1.4-0.6,1.4-1.4
			C53.8,38,53.1,37.4,52.3,37.4z"/>
		<linearGradient id="SVGID_5_" gradientUnits="userSpaceOnUse" x1="23.3698" y1="45.75" x2="23.3698" y2="18.25">
			<stop  offset="0" style="stop-color:#FFFFFF;stop-opacity:0.6"/>
			<stop  offset="1" style="stop-color:#FFFFFF"/>
		</linearGradient>
		<path class="st4" d="M25.8,33.4c3.1-1,5.3-3.9,5.3-7.4c0-4.3-3.5-7.8-7.8-7.8c-4.3,0-7.8,3.5-7.8,7.8c0,3.4,2.2,6.3,5.3,7.4
			c-6,1.1-10.5,6.1-10.7,12.3h26.3C36.3,39.5,31.8,34.5,25.8,33.4z"/>
	</g>
</g>
</svg>
