<?xml version="1.0" encoding="utf-8"?>
<!-- Generator: Adobe Illustrator 21.0.0, SVG Export Plug-In . SVG Version: 6.00 Build 0)  -->
<svg version="1.1" id="图层_1" xmlns="http://www.w3.org/2000/svg" xmlns:xlink="http://www.w3.org/1999/xlink" x="0px" y="0px"
	 viewBox="0 0 17 10" style="enable-background:new 0 0 17 10;" xml:space="preserve">
<style type="text/css">
	.st0{fill:#CCCCCC;}
</style>
<g>
	<g>
		<path class="st0" d="M1.8,0.5L9.2,8c0.4,0.4,0.4,1.1,0,1.5l0,0c-0.4,0.4-1.1,0.4-1.5,0L0.3,2c-0.4-0.4-0.4-1.1,0-1.5l0,0
			C0.7,0.1,1.4,0.1,1.8,0.5z"/>
	</g>
	<g>
		<path class="st0" d="M16.7,2L9.2,9.5c-0.4,0.4-1.1,0.4-1.5,0l0,0C7.3,9.1,7.3,8.4,7.8,8l7.4-7.4c0.4-0.4,1.1-0.4,1.5,0l0,0
			C17.1,0.9,17.1,1.6,16.7,2z"/>
	</g>
</g>
</svg>
