<?xml version="1.0" encoding="utf-8"?>
<!-- Generator: Adobe Illustrator 21.0.0, SVG Export Plug-In . SVG Version: 6.00 Build 0)  -->
<svg version="1.1" id="图层_1" xmlns="http://www.w3.org/2000/svg" xmlns:xlink="http://www.w3.org/1999/xlink" x="0px" y="0px"
	 viewBox="0 0 39 39" style="enable-background:new 0 0 39 39;" xml:space="preserve">
<style type="text/css">
	.st0{fill:#1787DD;}
	.st1{fill:none;stroke:#1787DD;stroke-width:1.8895;stroke-linecap:round;stroke-miterlimit:10;}
</style>
<g>
	<g>
		<g>
			<path class="st0" d="M36.7,4.7v8.8c0,0.5,0.4,0.9,0.9,0.9h0c0.5,0,0.9-0.4,0.9-0.9V4.7c0-0.5-0.4-0.9-0.9-0.9h0
				C37.1,3.8,36.7,4.2,36.7,4.7z"/>
		</g>
		<g>
			<path class="st0" d="M28.8,14.5h8.8c0.5,0,0.9-0.4,0.9-0.9v0c0-0.5-0.4-0.9-0.9-0.9h-8.8c-0.5,0-0.9,0.4-0.9,0.9v0
				C27.9,14.1,28.3,14.5,28.8,14.5z"/>
		</g>
	</g>
	<path class="st1" d="M36.1,27.3c-2.9,6.3-9.3,10.6-16.7,10.6C9.2,37.9,1,29.7,1,19.5S9.2,1.1,19.4,1.1C27.3,1.1,34,6,36.6,12.9"/>
</g>
</svg>
