<?xml version="1.0" encoding="utf-8"?>
<!-- Generator: Adobe Illustrator 21.0.0, SVG Export Plug-In . SVG Version: 6.00 Build 0)  -->
<svg version="1.1" id="图层_1" xmlns="http://www.w3.org/2000/svg" xmlns:xlink="http://www.w3.org/1999/xlink" x="0px" y="0px"
	 viewBox="0 0 14 26" style="enable-background:new 0 0 14 26;" xml:space="preserve">
<style type="text/css">
	.st0{fill:#999999;}
</style>
<g>
	<g>
		<path class="st0" d="M13.4,2.4L2.1,13.7c-0.4,0.4-1,0.4-1.4,0l0,0c-0.4-0.4-0.4-1,0-1.4L11.9,1c0.4-0.4,1-0.4,1.4,0l0,0
			C13.8,1.4,13.8,2,13.4,2.4z"/>
	</g>
	<g>
		<path class="st0" d="M11.9,25L0.6,13.7c-0.4-0.4-0.4-1,0-1.4l0,0c0.4-0.4,1-0.4,1.4,0l11.3,11.3c0.4,0.4,0.4,1,0,1.4l0,0
			C13,25.4,12.3,25.4,11.9,25z"/>
	</g>
</g>
</svg>
