<?xml version="1.0" encoding="utf-8"?>
<!-- Generator: Adobe Illustrator 21.0.0, SVG Export Plug-In . SVG Version: 6.00 Build 0)  -->
<svg version="1.1" id="图层_1" xmlns="http://www.w3.org/2000/svg" xmlns:xlink="http://www.w3.org/1999/xlink" x="0px" y="0px"
	 viewBox="0 0 64 64" style="enable-background:new 0 0 64 64;" xml:space="preserve">
<style type="text/css">
	.st0{fill:#FFFFFF;}
</style>
<g>
	<path class="st0" d="M60,32.1C60.1,16.7,47.5,4.1,32.1,4C16.7,3.9,4,16.5,3.9,31.9c-0.1,15.4,12.5,28,28,28.1
		C47.3,60.1,59.9,47.5,60,32.1 M64,32.1C63.9,49.8,49.6,64.1,31.9,64C14.2,63.9-0.1,49.6,0,31.9C0.1,14.2,14.4-0.1,32.1,0
		C49.8,0.1,64.1,14.4,64,32.1L64,32.1z"/>
	<path class="st0" d="M19.3,29.3c0-0.5,0.2-1,0.6-1.4L32,16.1l12.1,11.9c0.8,0.8,0.8,2.1,0,2.8c-0.8,0.8-2.1,0.8-2.8,0L32,21.4
		l-9.3,9.3c-0.8,0.8-2.1,0.8-2.8,0C19.4,30.3,19.3,29.8,19.3,29.3z"/>
	<path class="st0" d="M30,46l0.1-25.7c0-1.1,0.9-2,2-2c1.1,0,2,0.9,2,2L34,46c0,1.1-0.9,2-2,2C30.9,48,30,47.1,30,46z"/>
</g>
</svg>
