<?xml version="1.0" encoding="iso-8859-1"?>
<!-- Generator: Adobe Illustrator 21.0.0, SVG Export Plug-In . SVG Version: 6.00 Build 0)  -->
<svg version="1.1" id="&#x56FE;&#x5C42;_1" xmlns="http://www.w3.org/2000/svg" xmlns:xlink="http://www.w3.org/1999/xlink" x="0px"
	 y="0px" viewBox="0 0 32 32" style="enable-background:new 0 0 32 32;" xml:space="preserve">
<g>
	<circle style="fill:#1787DD;" cx="16" cy="16" r="16"/>
	<g>
		<path style="fill:#FFFFFF;" d="M26.366,14.319c-1.951-2.3-5.893-6.147-10.439-6.147c-4.338,0-8.127,3.503-10.16,5.823
			c-1.003,1.144-1.003,2.865,0,4.009c2.033,2.319,5.821,5.823,10.16,5.823c4.546,0,8.488-3.847,10.439-6.147
			C27.191,16.707,27.191,15.293,26.366,14.319z M16,20.168c-2.302,0-4.168-1.866-4.168-4.168s1.866-4.168,4.168-4.168
			c2.302,0,4.168,1.866,4.168,4.168S18.302,20.168,16,20.168z"/>
		<circle style="fill:#FFFFFF;" cx="16" cy="16" r="2.236"/>
	</g>
</g>
</svg>
