<?xml version="1.0" encoding="iso-8859-1"?>
<!-- Generator: Adobe Illustrator 21.0.0, SVG Export Plug-In . SVG Version: 6.00 Build 0)  -->
<svg version="1.1" id="&#x56FE;&#x5C42;_1" xmlns="http://www.w3.org/2000/svg" xmlns:xlink="http://www.w3.org/1999/xlink" x="0px"
	 y="0px" viewBox="0 0 46 46" style="enable-background:new 0 0 46 46;" xml:space="preserve">
<g>
	<path style="fill:#1787DD;" d="M36.432,45.749c-0.299,0-0.597-0.081-0.859-0.243l-11.897-7.367l-5.756,5.79
		c-0.471,0.475-1.173,0.614-1.788,0.36c-0.616-0.255-1.014-0.851-1.014-1.518v-8.108c0-0.423,0.16-0.824,0.449-1.13l18.2-19.33
		c0.475-0.503,1.265-0.526,1.767-0.053c0.503,0.473,0.527,1.265,0.054,1.767l-17.97,19.085v5.685l4.766-4.795
		c0.538-0.543,1.367-0.644,2.021-0.242l11.41,7.066l7.359-39.793L2.854,22.284C2.83,22.295,2.759,22.33,2.75,22.438
		c-0.009,0.109,0.057,0.155,0.079,0.17l10.162,6.763c0.575,0.383,0.73,1.159,0.348,1.733c-0.383,0.576-1.159,0.73-1.733,0.349
		L1.422,24.675c-0.814-0.567-1.242-1.473-1.164-2.438c0.078-0.964,0.644-1.79,1.514-2.207L42.495,0.475
		c0.775-0.372,1.678-0.277,2.36,0.244c0.685,0.524,1.013,1.377,0.856,2.227l-7.667,41.46c-0.101,0.535-0.455,0.983-0.949,1.202
		C36.884,45.703,36.657,45.749,36.432,45.749z M17.387,35.246l-0.003,0.003C17.385,35.248,17.386,35.247,17.387,35.246z"/>
</g>
</svg>
