
<svg version="1.1" id="图层_1" xmlns="http://www.w3.org/2000/svg" xmlns:xlink="http://www.w3.org/1999/xlink" x="0px" y="0px"
	 viewBox="0 0 88 88" style="enable-background:new 0 0 88 88;" xml:space="preserve">
<g>
	<g>
		<defs>
		<linearGradient id="SVGID_1_" gradientUnits="userSpaceOnUse" x1="44" y1="-9.094947e-13" x2="44" y2="88" gradientTransform="matrix(1 0 0 -1 0 88)">
			<stop  offset="0" style="stop-color:#2B9DED"/>
			<stop  offset="1" style="stop-color:#B9DFF9"/>
		</linearGradient>
		</defs>
		<circle cx="44" cy="44" r="44" fill="url(#SVGID_1_)" />
	</g>

	<g>
		<path class="st1" d="M51.9,59.6c-0.3,0.1-0.6,0.1-0.9,0.2C51.3,59.8,51.6,59.7,51.9,59.6z"/>
		<path class="st1" d="M54.6,31.4c-0.1,0-0.1-0.1-0.2-0.1C54.4,31.4,54.5,31.4,54.6,31.4z"/>
		<path class="st1" d="M58.2,22.6c0.4,0.2,0.8,0.4,1.1,0.6C59,23,58.6,22.8,58.2,22.6z"/>
		<path class="st2" d="M47.7,29.8c2.4,0,4.6,0.6,6.7,1.5c0.1,0,0.1,0.1,0.2,0.1c0.6,0.3,1.3,0.5,2.1,0.5c2.6,0,4.8-2.1,4.8-4.8
			c0-1.6-0.8-3.1-2.1-3.9c-0.4-0.2-0.7-0.4-1.1-0.6c-3.2-1.5-6.7-2.3-10.5-2.3C34.1,20.3,23,31.4,23,45c0,12.5,9.3,22.8,21.3,24.5
			c1.1,0.2,2.3,0.2,3.4,0.2c4.4,0,8.5-1.1,12.1-3.2c-0.2,0-0.3,0-0.5,0c-0.1,0-0.3,0-0.4,0c-3.8-0.2-6.8-3.2-7.1-6.9
			c-0.3,0.1-0.5,0.1-0.8,0.2c-1.1,0.2-2.1,0.4-3.3,0.4c-8.4,0-15.2-6.8-15.2-15.2C32.5,36.6,39.3,29.8,47.7,29.8z"/>
		<path class="st2" d="M53.8,39h-5.3l0,0c-3.5,0.1-6.4,3-6.4,6.6c0,0.1,0,0.2,0,0.4c0.2,3.4,2.9,6.1,6.4,6.3l0,0h5.3v5.1
			c0,3.5,2.8,6.4,6.3,6.6c0.1,0,0.2,0,0.4,0c3.7,0,6.6-3,6.6-6.6v-5.1C67,44.9,61.1,39,53.8,39z M53.5,45.9c0,0.3-0.3,0.6-0.6,0.6
			h-1.3v1.3c0,0.3-0.3,0.6-0.6,0.6h-0.7c-0.3,0-0.6-0.3-0.6-0.6v-1.3h-1.3c-0.3,0-0.6-0.3-0.6-0.6v-0.7c0-0.3,0.3-0.6,0.6-0.6h1.3
			v-1.3c0-0.3,0.3-0.6,0.6-0.6H51c0.3,0,0.6,0.3,0.6,0.6v1.3h1.3c0.3,0,0.6,0.3,0.6,0.6L53.5,45.9z M60.3,58.4c-1.3,0-2.3-1-2.3-2.3
			s1-2.3,2.3-2.3s2.3,1,2.3,2.3C62.6,57.4,61.6,58.4,60.3,58.4z"/>
	</g>
	<g>
		<path  class="st1" d="M50.9,58.6c-0.3,0.1-0.6,0.1-0.9,0.2C50.3,58.8,50.6,58.7,50.9,58.6z"/>
		<path class="st1" d="M53.6,30.4c-0.1,0-0.1-0.1-0.2-0.1C53.4,30.4,53.5,30.4,53.6,30.4z"/>
		<path class="st1" d="M57.2,21.6c0.4,0.2,0.8,0.4,1.1,0.6C58,22,57.6,21.8,57.2,21.6z"/>
		<path style="fill:#FFFFFF;" d="M46.7,28.8c2.4,0,4.6,0.6,6.7,1.5c0.1,0,0.1,0.1,0.2,0.1c0.6,0.3,1.3,0.5,2.1,0.5c2.6,0,4.8-2.1,4.8-4.8
			c0-1.6-0.8-3.1-2.1-3.9c-0.4-0.2-0.7-0.4-1.1-0.6c-3.2-1.5-6.7-2.3-10.5-2.3C33.1,19.3,22,30.4,22,44c0,12.5,9.3,22.8,21.3,24.5
			c1.1,0.2,2.3,0.2,3.4,0.2c4.4,0,8.5-1.1,12.1-3.2c-0.2,0-0.3,0-0.5,0c-0.1,0-0.3,0-0.4,0c-3.8-0.2-6.8-3.2-7.1-6.9
			c-0.3,0.1-0.5,0.1-0.8,0.2c-1.1,0.2-2.1,0.4-3.3,0.4c-8.4,0-15.2-6.8-15.2-15.2C31.5,35.6,38.3,28.8,46.7,28.8z"/>
		<path  style="fill:#FFFFFF;" d="M52.8,38h-5.3l0,0c-3.5,0.1-6.4,3-6.4,6.6c0,0.1,0,0.2,0,0.4c0.2,3.4,2.9,6.1,6.4,6.3l0,0h5.3v5.1
			c0,3.5,2.8,6.4,6.3,6.6c0.1,0,0.2,0,0.4,0c3.7,0,6.6-3,6.6-6.6v-5.1C66,43.9,60.1,38,52.8,38z M52.5,44.9c0,0.3-0.3,0.6-0.6,0.6
			h-1.3v1.3c0,0.3-0.3,0.6-0.6,0.6h-0.7c-0.3,0-0.6-0.3-0.6-0.6v-1.3h-1.3c-0.3,0-0.6-0.3-0.6-0.6v-0.7c0-0.3,0.3-0.6,0.6-0.6h1.3
			v-1.3c0-0.3,0.3-0.6,0.6-0.6H50c0.3,0,0.6,0.3,0.6,0.6v1.3h1.3c0.3,0,0.6,0.3,0.6,0.6L52.5,44.9z M59.3,57.4c-1.3,0-2.3-1-2.3-2.3
			s1-2.3,2.3-2.3s2.3,1,2.3,2.3C61.6,56.4,60.6,57.4,59.3,57.4z"/>
	</g>

</g>
</svg>
