<?xml version="1.0" encoding="utf-8"?>
<!-- Generator: Adobe Illustrator 21.0.0, SVG Export Plug-In . SVG Version: 6.00 Build 0)  -->
<svg version="1.1" id="图层_1" xmlns="http://www.w3.org/2000/svg" xmlns:xlink="http://www.w3.org/1999/xlink" x="0px" y="0px"
	 viewBox="0 0 42 41" style="enable-background:new 0 0 42 41;" xml:space="preserve">
<style type="text/css">
	.st0{fill:#999999;}
</style>
<g>
	<g>
		<path class="st0" d="M20.9,1.5L20.9,1.5c2.5,0,5.3,3,8.1,8.8l0.2,0.5l0.5,0.1c6.5,0.7,10.3,2.4,11.1,4.7c0.8,2.3-1.3,5.9-5.9,10.3
			l-0.4,0.4l0.1,0.5c1.1,5.5,1,9.4-0.5,11.2c-0.7,0.9-1.8,1.3-3.2,1.3c-2.2,0-5.3-1-9.2-3.1L21.2,36l-0.5,0.3
			c-3.9,2.2-7,3.3-9.3,3.3c-1.4,0-2.4-0.4-3.1-1.3C6.8,36.4,6.6,32.7,7.6,27l0.1-0.5l-0.4-0.4c-4.7-4.3-6.9-7.8-6.1-10.2
			c0.7-2.4,4.5-4.1,11-5l0.5-0.1l0.2-0.5C15.6,4.6,18.3,1.5,20.9,1.5 M20.9,0.5c-3,0-6,3.2-8.9,9.5c-13.9,1.9-15.7,7.5-5.4,16.9
			C5,36,6.6,40.5,11.4,40.5c2.4,0,5.7-1.1,9.8-3.4c4,2.1,7.3,3.2,9.7,3.2c5,0,6.6-4.6,4.7-13.7c10.1-9.6,8.2-15.2-5.7-16.8
			C26.8,3.6,23.8,0.5,20.9,0.5L20.9,0.5z"/>
	</g>
</g>
</svg>
