<?xml version="1.0" encoding="iso-8859-1"?>
<!-- Generator: Adobe Illustrator 21.0.0, SVG Export Plug-In . SVG Version: 6.00 Build 0)  -->
<svg version="1.1" id="&#x56FE;&#x5C42;_1" xmlns="http://www.w3.org/2000/svg" xmlns:xlink="http://www.w3.org/1999/xlink" x="0px"
	 y="0px" viewBox="0 0 572 271" style="enable-background:new 0 0 572 271;" xml:space="preserve">
<g>
	<path style="fill:#D6F0FF;" d="M572,242H0V20C0,9,9,0,20,0l532,0c11,0,20,9,20,20V242z"/>
</g>
<g>
	<path style="fill:#D6F0FF;" d="M316,271h-60c-16.5,0-30-13.5-30-30v0c0-16.5,13.5-30,30-30h60c16.5,0,30,13.5,30,30v0
		C346,257.5,332.5,271,316,271z"/>
</g>
<g>
	<path style="fill:none;" d="M345.394,94.871c-1.716,0-3.115,0.655-4.2,1.965c-1.084,1.31-1.626,2.995-1.626,5.054v2.246
		c0,1.841,0.5,3.346,1.497,4.516c0.998,1.17,2.293,1.755,3.884,1.755c1.887,0,3.357-0.733,4.41-2.199
		c1.053-1.466,1.579-3.54,1.579-6.223C350.939,97.242,349.09,94.871,345.394,94.871z"/>
	<path d="M278.778,85.418c1.475,0,2.877,0.162,4.204,0.486c2.105,0.514,4.125-1.115,4.125-3.282c0-1.59-1.107-2.963-2.661-3.3
		c-1.828-0.397-3.904-0.596-6.23-0.596c-5.662,0-10.283,1.821-13.862,5.463c-3.58,3.642-5.37,8.326-5.37,14.05
		c0,5.444,1.603,9.8,4.808,13.067c3.205,3.268,7.537,4.902,12.997,4.902c3.088,0,5.75-0.343,7.986-1.028
		c1.38-0.423,2.332-1.683,2.332-3.127c0-2.17-2.068-3.689-4.165-3.129c-1.479,0.395-3.031,0.593-4.656,0.593
		c-3.431,0-6.153-1.084-8.165-3.252c-2.012-2.168-3.018-5.03-3.018-8.587c0-3.65,1.061-6.605,3.182-8.867
		C272.406,86.55,275.237,85.418,278.778,85.418z"/>
	<path d="M306.505,89.068c-3.354,0-6.021,1.506-8.002,4.516h-0.094V81.055c0-2.087-1.692-3.779-3.779-3.779
		s-3.779,1.692-3.779,3.779v30.743c0,2.087,1.692,3.779,3.779,3.779s3.779-1.692,3.779-3.779v-10.961
		c0-1.869,0.531-3.37,1.593-4.503c0.917-0.979,2.196-1.488,3.537-1.462c2.819,0.056,4.229,2.044,4.229,5.965v10.973
		c0,2.08,1.687,3.767,3.767,3.767c2.08,0,3.767-1.686,3.767-3.767V99.69C315.302,92.609,312.369,89.068,306.505,89.068z"/>
	<path d="M323.516,89.7c-2.08,0-3.767,1.686-3.767,3.767v18.343c0,2.08,1.687,3.767,3.767,3.767c2.08,0,3.767-1.686,3.767-3.767
		V93.467C327.282,91.387,325.596,89.7,323.516,89.7z"/>
	<path d="M323.562,77.44c-1.279,0-2.328,0.363-3.147,1.088c-0.769,0.681-1.177,1.551-1.224,2.61c-0.051,1.137,0.4,2.269,1.236,3.041
		c0.827,0.764,1.871,1.146,3.135,1.146c1.279,0,2.331-0.378,3.159-1.135c0.827-0.756,1.24-1.704,1.24-2.843
		c0-1.123-0.406-2.055-1.217-2.796C325.934,77.811,324.873,77.44,323.562,77.44z"/>
	<path d="M348.178,89.068c-3.618,0-6.419,1.529-8.399,4.586h-0.094v-0.175c0-2.087-1.692-3.779-3.779-3.779
		s-3.779,1.692-3.779,3.779v30.228c0,2.087,1.692,3.779,3.779,3.779s3.779-1.692,3.779-3.779v-11.242h0.094
		c1.638,2.496,4.039,3.743,7.206,3.743c3.494,0,6.317-1.302,8.47-3.907c2.152-2.605,3.229-6.067,3.229-10.388
		c0-3.962-0.928-7.093-2.784-9.394C354.042,90.219,351.469,89.068,348.178,89.068z M349.359,108.207
		c-1.053,1.466-2.523,2.199-4.41,2.199c-1.591,0-2.886-0.585-3.884-1.755c-0.998-1.17-1.497-2.675-1.497-4.516v-2.246
		c0-2.059,0.542-3.743,1.626-5.054c1.084-1.31,2.484-1.965,4.2-1.965c3.697,0,5.545,2.371,5.545,7.113
		C350.939,104.666,350.412,106.741,349.359,108.207z"/>
	<path d="M377.391,101.632c-1.178-0.639-2.936-1.349-5.276-2.129c-2.184-0.733-3.276-1.692-3.276-2.878
		c0-0.702,0.366-1.267,1.1-1.696c0.732-0.429,1.7-0.643,2.901-0.643c1.155,0,2.264,0.135,3.327,0.406
		c1.68,0.428,3.318-0.809,3.318-2.543c0-1.258-0.89-2.329-2.12-2.59c-1.539-0.327-3.117-0.491-4.735-0.491
		c-3.339,0-6.036,0.722-8.095,2.164c-2.059,1.443-3.088,3.436-3.088,5.978c0,2.09,0.6,3.748,1.802,4.972
		c1.2,1.225,3.408,2.336,6.621,3.334c2.574,0.795,3.86,1.786,3.86,2.971c0,1.669-1.561,2.503-4.679,2.503
		c-1.323,0-2.661-0.224-4.015-0.672c-1.765-0.584-3.589,0.703-3.589,2.562c0,1.252,0.858,2.331,2.071,2.64
		c1.798,0.458,3.705,0.687,5.72,0.687c3.571,0,6.426-0.737,8.563-2.211c2.136-1.474,3.205-3.545,3.205-6.212
		c0-1.372-0.309-2.581-0.924-3.626C379.465,103.114,378.568,102.272,377.391,101.632z"/>
	<path style="fill:none;" d="M300.328,156.067c0,0.967,0.331,1.747,0.994,2.34c0.662,0.593,1.556,0.889,2.679,0.889
		c1.544,0,2.815-0.546,3.814-1.638c0.998-1.091,1.497-2.448,1.497-4.071v-1.848l-4.89,0.632
		C301.692,152.729,300.328,153.961,300.328,156.067z"/>
	<path style="fill:none;" d="M377.377,142.754c-1.295,0-2.441,0.531-3.439,1.591c-0.836,0.889-1.41,2.018-1.721,3.387
		c-0.095,0.42,0.22,0.824,0.65,0.824h8.528c0.387,0,0.687-0.33,0.665-0.716C381.873,144.45,380.312,142.754,377.377,142.754z"/>
	<path d="M286.386,143.643h-7.62c-1.712,0-3.1,1.388-3.1,3.1c0,1.712,1.388,3.1,3.1,3.1h3.116c0.611,0,1.107,0.496,1.107,1.107
		v6.333c-1.279,0.624-2.925,0.936-4.937,0.936c-3.384,0-6.056-1.06-8.013-3.182c-1.957-2.121-2.936-5.077-2.936-8.867
		c0-3.728,1.084-6.73,3.252-9.008c2.168-2.277,4.999-3.416,8.493-3.416c2.243,0,4.296,0.251,6.157,0.752
		c2.09,0.563,4.137-1.026,4.137-3.19c0-1.502-1.007-2.831-2.464-3.198c-2.295-0.579-4.851-0.868-7.667-0.868
		c-6.005,0-10.844,1.79-14.518,5.37c-3.673,3.58-5.51,8.224-5.51,13.933c0,5.631,1.669,10.069,5.007,13.313
		c3.337,3.245,7.893,4.866,13.664,4.866c4.554,0,8.478-0.795,11.771-2.385c0.791-0.382,1.285-1.192,1.285-2.071v-12.3
		C290.71,145.579,288.774,143.643,286.386,143.643z"/>
	<path d="M305.593,137.583c-1.389,0-3.061,0.203-5.019,0.608c-1.141,0.236-2.147,0.515-3.02,0.836
		c-1.003,0.369-1.671,1.318-1.671,2.386c0,1.802,1.81,2.987,3.494,2.347c1.683-0.64,3.427-0.96,5.233-0.96
		c3.135,0,4.703,1.506,4.703,4.516l-7.113,0.959c-5.912,0.811-8.867,3.697-8.867,8.657c0,2.402,0.737,4.301,2.211,5.697
		c1.474,1.396,3.435,2.094,5.884,2.094c3.4,0,5.981-1.466,7.744-4.399h0.094v0.175c0,1.983,1.608,3.591,3.591,3.591
		c1.983,0,3.591-1.608,3.591-3.591v-12.038C316.449,141.21,312.829,137.583,305.593,137.583z M309.313,153.587
		c0,1.623-0.5,2.98-1.497,4.071c-0.999,1.092-2.269,1.638-3.814,1.638c-1.123,0-2.017-0.296-2.679-0.889
		c-0.663-0.593-0.994-1.372-0.994-2.34c0-2.106,1.364-3.338,4.094-3.697l4.89-0.632V153.587z"/>
	<path d="M353.159,137.583c-3.805,0-6.707,1.63-8.704,4.89c-1.342-3.26-3.829-4.89-7.464-4.89c-1.653,0-3.229,0.409-4.726,1.228
		s-2.699,1.969-3.603,3.451h-0.094v-0.269c0-2.087-1.692-3.779-3.779-3.779s-3.779,1.692-3.779,3.779v18.32
		c0,2.087,1.692,3.779,3.779,3.779s3.779-1.692,3.779-3.779v-10.657c0-1.887,0.425-3.404,1.275-4.551
		c0.85-1.146,1.985-1.72,3.404-1.72c2.854,0,4.282,1.919,4.282,5.756v11.184c0,2.08,1.687,3.767,3.767,3.767
		c2.08,0,3.767-1.686,3.767-3.767v-10.739c0-1.731,0.445-3.197,1.334-4.399c0.889-1.201,2.004-1.802,3.346-1.802
		c2.886,0,4.328,1.981,4.328,5.943v10.996c0,2.08,1.687,3.767,3.767,3.767c2.08,0,3.767-1.686,3.767-3.767v-12.307
		C361.605,141.062,358.789,137.583,353.159,137.583z"/>
	<path d="M377.424,137.583c-3.681,0-6.738,1.291-9.171,3.872c-2.433,2.582-3.65,5.939-3.65,10.072c0,4.149,1.143,7.386,3.428,9.71
		c2.285,2.324,5.487,3.486,9.604,3.486c3.008,0,5.561-0.41,7.66-1.231c0.972-0.38,1.605-1.324,1.605-2.368
		c0-1.713-1.652-2.913-3.294-2.423c-1.327,0.396-2.748,0.594-4.263,0.594c-4.045,0-6.403-1.569-7.076-4.709
		c-0.143-0.668,0.357-1.304,1.04-1.304h14.367c0.8,0,1.449-0.649,1.449-1.449v-1.757c0-3.884-1.033-6.937-3.1-9.16
		C383.955,138.695,381.089,137.583,377.424,137.583z M381.395,148.556h-8.528c-0.431,0-0.746-0.405-0.65-0.824
		c0.311-1.369,0.885-2.498,1.721-3.387c0.998-1.06,2.144-1.591,3.439-1.591c2.935,0,4.497,1.696,4.684,5.086
		C382.082,148.226,381.782,148.556,381.395,148.556z"/>
	<path d="M410.076,152.674c-0.616-1.045-1.514-1.887-2.691-2.527c-1.178-0.639-2.936-1.349-5.276-2.129
		c-2.184-0.733-3.276-1.692-3.276-2.878c0-0.702,0.366-1.267,1.1-1.696c0.732-0.429,1.7-0.643,2.901-0.643
		c1.155,0,2.264,0.135,3.327,0.406c1.68,0.428,3.318-0.809,3.318-2.543c0-1.258-0.89-2.329-2.12-2.59
		c-1.539-0.327-3.117-0.491-4.735-0.491c-3.339,0-6.036,0.722-8.095,2.164c-2.059,1.443-3.088,3.436-3.088,5.978
		c0,2.09,0.6,3.748,1.802,4.972c1.2,1.225,3.408,2.336,6.621,3.334c2.574,0.795,3.86,1.786,3.86,2.971
		c0,1.669-1.561,2.503-4.679,2.503c-1.323,0-2.661-0.224-4.015-0.672c-1.765-0.584-3.589,0.703-3.589,2.562
		c0,1.252,0.858,2.331,2.071,2.64c1.798,0.458,3.705,0.687,5.72,0.687c3.571,0,6.426-0.737,8.563-2.211
		c2.136-1.474,3.205-3.545,3.205-6.212C411,154.929,410.691,153.72,410.076,152.674z"/>
	<path style="fill:#E85105;" d="M218.335,151.439c0.649-0.142,1.289-0.306,1.923-0.487
		C219.604,151.083,218.963,151.245,218.335,151.439z"/>
	<path style="fill:#E85105;" d="M233.15,75.137c0.777,0.365,1.544,0.749,2.299,1.152C234.743,75.809,233.971,75.421,233.15,75.137z"
		/>
	<path style="fill:#E85105;" d="M224.963,151.019c-0.377-0.99-0.639-2.034-0.774-3.12
		C224.274,149.001,224.541,150.05,224.963,151.019z"/>
	<path style="fill:#00A0E9;" d="M234.54,165.194c-7.721-0.413-13.93-6.506-14.533-14.175c-0.552,0.154-1.108,0.296-1.672,0.42
		c-2.156,0.472-4.392,0.727-6.689,0.727c-17.213,0-31.167-13.954-31.167-31.167c0-17.213,13.954-31.167,31.167-31.167
		c4.893,0,9.521,1.13,13.642,3.14c0.147,0.072,0.29,0.149,0.436,0.223c1.281,0.616,2.716,0.961,4.232,0.961
		c5.401,0,9.779-4.378,9.779-9.779c0-3.364-1.699-6.331-4.286-8.091c-0.755-0.403-1.521-0.787-2.299-1.152
		c-6.528-3.066-13.815-4.783-21.504-4.783C183.675,70.354,161,93.029,161,121c0,25.588,18.978,46.74,43.625,50.159
		c2.295,0.318,4.638,0.487,7.021,0.487c8.996,0,17.44-2.353,24.762-6.466c-0.341,0.023-0.684,0.038-1.031,0.038
		C235.096,165.218,234.817,165.209,234.54,165.194z"/>
	<path style="fill:#00A0E9;" d="M224.071,108.728h-10.847v0.012c-7.262,0.257-13.071,6.222-13.071,13.546
		c0,0.247,0.008,0.492,0.021,0.735c0.278,5.204,3.493,9.623,8.015,11.643c1.547,0.691,3.246,1.105,5.035,1.168v0.012h10.847v3.854
		v6.505c0,0.575,0.048,1.138,0.118,1.694c0.135,1.085,0.397,2.13,0.774,3.12c1.86,4.891,6.46,8.432,11.931,8.724
		c0.244,0.013,0.489,0.021,0.736,0.021c7.488,0,13.559-6.07,13.559-13.559v-10.359C251.189,120.869,239.047,108.728,224.071,108.728
		z M223.528,122.919c0,0.662-0.536,1.198-1.198,1.198h-2.698v2.698c0,0.662-0.536,1.198-1.198,1.198h-1.5
		c-0.662,0-1.198-0.536-1.198-1.198v-2.698h-2.698c-0.662,0-1.198-0.536-1.198-1.198v-1.5c0-0.662,0.536-1.198,1.198-1.198h2.698
		v-2.698c0-0.662,0.536-1.198,1.198-1.198h1.5c0.662,0,1.198,0.536,1.198,1.198v2.698h2.698c0.662,0,1.198,0.536,1.198,1.198
		V122.919z M237.553,148.466c-2.582,0-4.675-2.093-4.675-4.675s2.093-4.675,4.675-4.675c2.582,0,4.675,2.093,4.675,4.675
		S240.135,148.466,237.553,148.466z"/>
</g>
</svg>
