<?xml version="1.0" encoding="utf-8"?>
<!-- Generator: Adobe Illustrator 21.0.0, SVG Export Plug-In . SVG Version: 6.00 Build 0)  -->
<svg version="1.1" id="图层_1" xmlns="http://www.w3.org/2000/svg" xmlns:xlink="http://www.w3.org/1999/xlink" x="0px" y="0px"
	 viewBox="0 0 23 25" style="enable-background:new 0 0 23 25;" xml:space="preserve">
<style type="text/css">
	.st0{fill:#FFFFFF;}
</style>
<g>
	<g>
		<g>
			<g>
				<path class="st0" d="M19,16l-8.5-8.5c-0.5-0.5-0.5-1.4,0-2l0,0c0.5-0.5,1.4-0.5,2,0l8.5,8.5c0.5,0.5,0.5,1.4,0,2l0,0
					C20.4,16.6,19.5,16.6,19,16z"/>
			</g>
			<g>
				<path class="st0" d="M2,14.1l8.5-8.5c0.5-0.5,1.4-0.5,2,0l0,0c0.5,0.5,0.5,1.4,0,2L4,16c-0.5,0.5-1.4,0.5-2,0l0,0
					C1.5,15.5,1.5,14.6,2,14.1z"/>
			</g>
		</g>
		<g>
			<path class="st0" d="M10.1,23.5V6.6c0-0.8,0.6-1.4,1.4-1.4h0c0.8,0,1.4,0.6,1.4,1.4v16.9c0,0.8-0.6,1.4-1.4,1.4h0
				C10.7,24.9,10.1,24.2,10.1,23.5z"/>
		</g>
	</g>
	<g>
		<path class="st0" d="M21.2,2.9l-19.4,0C1,2.9,0.4,2.3,0.4,1.5v0c0-0.8,0.6-1.4,1.4-1.4l19.4,0c0.8,0,1.4,0.6,1.4,1.4v0
			C22.6,2.3,22,2.9,21.2,2.9z"/>
	</g>
</g>
</svg>
