<?xml version="1.0" encoding="utf-8"?>
<!-- Generator: Adobe Illustrator 21.0.0, SVG Export Plug-In . SVG Version: 6.00 Build 0)  -->
<svg version="1.1" id="图层_1" xmlns="http://www.w3.org/2000/svg" xmlns:xlink="http://www.w3.org/1999/xlink" x="0px" y="0px"
	 viewBox="0 0 23 24" style="enable-background:new 0 0 23 24;" xml:space="preserve">
<style type="text/css">
	.st0{fill:#999999;}
	.st1{fill:none;stroke:#999999;stroke-width:1.5357;stroke-linecap:round;stroke-miterlimit:10;}
</style>
<g>
	<path class="st0" d="M22,6.2H1c-0.5,0-1-0.4-1-1v0c0-0.5,0.4-1,1-1h21c0.5,0,1,0.4,1,1v0C23,5.8,22.6,6.2,22,6.2z"/>
	<path class="st0" d="M10.2,10v8.2c0,0.5-0.4,0.9-0.9,0.9H9.1c-0.5,0-0.9-0.4-0.9-0.9V10c0-0.5,0.4-0.9,0.9-0.9h0.2
		C9.8,9.1,10.2,9.5,10.2,10z"/>
	<path class="st0" d="M14.8,10v8.2c0,0.5-0.4,0.9-0.9,0.9h-0.2c-0.5,0-0.9-0.4-0.9-0.9V10c0-0.5,0.4-0.9,0.9-0.9h0.2
		C14.4,9.1,14.8,9.5,14.8,10z"/>
	<path class="st0" d="M15.1,2.9H7.9c-0.5,0-1-0.4-1-1v0c0-0.5,0.4-1,1-1h7.2c0.6,0,1,0.4,1,1v0C16.1,2.5,15.7,2.9,15.1,2.9z"/>
	<path class="st1" d="M19.9,9.7V20c0,1.7-1.4,3.1-3.1,3.1H6.1c-1.7,0-3.1-1.4-3.1-3.1V9.7"/>
</g>
</svg>
