<?xml version="1.0" encoding="utf-8"?>
<!-- Generator: Adobe Illustrator 21.0.0, SVG Export Plug-In . SVG Version: 6.00 Build 0)  -->
<svg version="1.1" id="图层_1" xmlns="http://www.w3.org/2000/svg" xmlns:xlink="http://www.w3.org/1999/xlink" x="0px" y="0px"
	 viewBox="0 0 100 100" style="enable-background:new 0 0 100 100;" xml:space="preserve">
<style type="text/css">
	.st0{fill:#1DA1F3;}
	.st1{fill:#FFFFFF;}
	.st2{opacity:0.1;enable-background:new    ;}
</style>
<g>
	<circle class="st0" cx="50" cy="50" r="50"/>
	<g>
		<path class="st1" d="M80.9,30.9c-2.3,1-4.7,1.7-7.3,2c2.6-1.6,4.6-4,5.6-7c-2.4,1.5-5.2,2.5-8,3.1c-2.3-2.5-5.6-4-9.2-4
			c-7,0-12.7,5.7-12.7,12.7c0,1,0.1,2,0.3,2.9C39,39.9,29.7,34.9,23.4,27.2c-1.1,1.9-1.7,4-1.7,6.4c0,4.4,2.2,8.3,5.6,10.5
			c-2.1-0.1-4-0.6-5.7-1.6c0,0.1,0,0.1,0,0.2c0,6.1,4.4,11.3,10.2,12.4c-1.1,0.3-2.2,0.4-3.3,0.4c-0.8,0-1.6-0.1-2.4-0.2
			c1.6,5,6.3,8.7,11.8,8.8c-4.3,3.4-9.8,5.4-15.7,5.4c-1,0-2-0.1-3-0.2c5.6,3.6,12.3,5.7,19.4,5.7c23.3,0,36-19.3,36-36
			c0-0.5,0-1.1,0-1.6C77,35.6,79.2,33.4,80.9,30.9L80.9,30.9z"/>
	</g>
	<path class="st2" d="M50,95.2c-26.8,0-48.7-21.1-49.9-47.7C0,48.3,0,49.1,0,49.9c0,27.6,22.4,50,50,50s50-22.4,50-50
		c0-0.8,0-1.6-0.1-2.3C98.7,74.1,76.8,95.2,50,95.2z"/>
</g>
</svg>
