<?xml version="1.0" encoding="utf-8"?>
<!-- Generator: Adobe Illustrator 21.0.0, SVG Export Plug-In . SVG Version: 6.00 Build 0)  -->
<svg version="1.1" id="图层_1" xmlns="http://www.w3.org/2000/svg" xmlns:xlink="http://www.w3.org/1999/xlink" x="0px" y="0px"
	 viewBox="0 0 46 34" style="enable-background:new 0 0 46 34;" xml:space="preserve">
<style type="text/css">
	.st0{fill:#999999;}
</style>
<g>
	<g>
		<path class="st0" d="M42.2,1.9c1.1,0,1.9,0.9,1.9,1.9v26.3c0,1.1-0.9,1.9-1.9,1.9H3.8c-1.1,0-1.9-0.9-1.9-1.9V3.8
			c0-1.1,0.9-1.9,1.9-1.9H42.2 M42.2,0H3.8C1.7,0,0,1.7,0,3.8v26.3C0,32.3,1.7,34,3.8,34h38.3c2.1,0,3.8-1.7,3.8-3.8V3.8
			C46,1.7,44.3,0,42.2,0L42.2,0z"/>
	</g>
	<path class="st0" d="M1,29.5l14-17c0,0,2-3,5,0l5,5c0,0,2,2,3,0c0,0,2-4,5,0l12,13l-1,2H4l-2-1L1,29.5z"/>
	<circle class="st0" cx="35.5" cy="9" r="4.5"/>
</g>
</svg>
