<?xml version="1.0" encoding="utf-8"?>
<!-- Generator: Adobe Illustrator 21.0.0, SVG Export Plug-In . SVG Version: 6.00 Build 0)  -->
<svg version="1.1" id="图层_1" xmlns="http://www.w3.org/2000/svg" xmlns:xlink="http://www.w3.org/1999/xlink" x="0px" y="0px"
	 viewBox="0 0 52 52" style="enable-background:new 0 0 52 52;" xml:space="preserve">
<style type="text/css">
	.st0{fill:#93C9F3;}
</style>
<g>
	<g>
		<path class="st0" d="M26,33.7c8.7,0,13.8,1,16.5,3.3c2.1,1.7,3.1,4.5,3.3,9.3H6.2c0.2-4.8,1.2-7.5,3.3-9.3
			C12.2,34.7,17.3,33.7,26,33.7 M26,31.7c-18.3,0-21.8,4.5-21.8,16.6h43.6C47.8,36.2,44.3,31.7,26,31.7L26,31.7z"/>
	</g>
	<g>
		<path class="st0" d="M25.6,5.8c5.9,0,10.7,4.8,10.7,10.7s-4.8,10.7-10.7,10.7s-10.7-4.8-10.7-10.7S19.7,5.8,25.6,5.8 M25.6,3.8
			c-7,0-12.7,5.7-12.7,12.7c0,7,5.7,12.7,12.7,12.7s12.7-5.7,12.7-12.7C38.2,9.4,32.6,3.8,25.6,3.8L25.6,3.8z"/>
	</g>
	<g>
		<path class="st0" d="M27.1,17.5L27.1,17.5c0.7,0,1.3-0.6,1.3-1.3v-2.6c0-0.7-0.6-1.3-1.3-1.3h0c-0.7,0-1.3,0.6-1.3,1.3v2.6
			C25.8,16.9,26.4,17.5,27.1,17.5z"/>
		<path class="st0" d="M20.1,17.5L20.1,17.5c0.7,0,1.3-0.6,1.3-1.3v-2.6c0-0.7-0.6-1.3-1.3-1.3h0c-0.7,0-1.3,0.6-1.3,1.3v2.6
			C18.8,16.9,19.4,17.5,20.1,17.5z"/>
	</g>
</g>
</svg>
