<?xml version="1.0" encoding="utf-8"?>
<!-- Generator: Adobe Illustrator 21.0.0, SVG Export Plug-In . SVG Version: 6.00 Build 0)  -->
<svg version="1.1" id="图层_1" xmlns="http://www.w3.org/2000/svg" xmlns:xlink="http://www.w3.org/1999/xlink" x="0px" y="0px"
	 viewBox="0 0 52 52" style="enable-background:new 0 0 52 52;" xml:space="preserve">
<style type="text/css">
	.st0{fill:#FFFFFF;}
</style>
<g>
	<path class="st0" d="M47.8,48.3H4.2c0-12,3.5-16.6,21.8-16.6S47.8,36.2,47.8,48.3z"/>
	<path class="st0" d="M26.4,3.7c-7,0-12.7,5.7-12.7,12.7s5.7,12.7,12.7,12.7s12.7-5.7,12.7-12.7S33.4,3.7,26.4,3.7z M28.6,13.6
		c0-0.7,0.6-1.3,1.3-1.3s1.3,0.6,1.3,1.3v2.6c0,0.7-0.6,1.3-1.3,1.3s-1.3-0.6-1.3-1.3V13.6z M21.6,13.6c0-0.7,0.6-1.3,1.3-1.3
		s1.3,0.6,1.3,1.3v2.6c0,0.7-0.6,1.3-1.3,1.3s-1.3-0.6-1.3-1.3V13.6z M26.4,25.1L26.4,25.1c-2.9,0-5.2-2.4-5.2-5.2h10.5
		C31.7,22.8,29.3,25.1,26.4,25.1z"/>
</g>
</svg>
