<?xml version="1.0" standalone="no"?>
<!DOCTYPE svg PUBLIC "-//W3C//DTD SVG 1.1//EN" "http://www.w3.org/Graphics/SVG/1.1/DTD/svg11.dtd" >
<!--
2013-9-30: Created.
-->
<svg>
<metadata>
Created by iconfont
</metadata>
<defs>

<font id="iconfont" horiz-adv-x="1024" >
  <font-face
    font-family="iconfont"
    font-weight="500"
    font-stretch="normal"
    units-per-em="1024"
    ascent="896"
    descent="-128"
  />
    <missing-glyph />
    
    <glyph glyph-name="buoy-label" unicode="&#58881;" d="M880.519529-111.40517599999998H143.480471V631.597176h269.281882v-64.572235H208.052706v-613.857882h607.894588V561.031529h-211.696941V625.6338820000001h276.269176zM479.713882 847.119059h64.602353v-582.565647h-64.602353zM647.68 665.780706L512 801.460706l-135.649882-135.68-45.688471 45.68847L512 892.807529l181.338353-181.338353z"  horiz-adv-x="1024" />

    
    <glyph glyph-name="buoy-addtohomescreen" unicode="&#58884;" d="M866.450286 896H157.549714A157.549714 157.549714 0 0 1 0 738.450286v-708.937143A157.549714 157.549714 0 0 1 157.549714-128h708.937143A157.549714 157.549714 0 0 1 1024 29.549713999999994V738.450286A157.549714 157.549714 0 0 1 866.450286 896z m-176.164572-571.428571h-118.857143v-118.857143c0-32.694857-26.733714-59.428571-59.428571-59.428572s-59.428571 26.733714-59.428571 59.428572v118.857143h-118.857143c-32.694857 0-59.428571 26.733714-59.428572 59.428571s26.733714 59.428571 59.428572 59.428571h118.857143v118.857143c0 32.694857 26.733714 59.428571 59.428571 59.428572s59.428571-26.733714 59.428571-59.428572v-118.857143h118.857143c32.694857 0 59.428571-26.733714 59.428572-59.428571s-26.733714-59.428571-59.428572-59.428571z"  horiz-adv-x="1024" />

    
    <glyph glyph-name="loginwindows-btn-cancle" unicode="&#58886;" d="M59.975883-116.53402200000005l952.558139 952.558139c10.583979 10.583979 10.583979 31.751938 0 42.335917l-7.055986 7.055987c-10.583979 10.583979-31.751938 10.583979-42.335917 0l-952.55814-952.55814c-10.583979-10.583979-10.583979-31.751938 0-42.335917l7.055987-7.055986c10.583979-14.111972 28.223945-14.111972 42.335917 0zM10.583979 836.024117l956.086133-956.086133c10.583979-10.583979 31.751938-10.583979 42.335917 0l7.055987 7.055987c10.583979 10.583979 10.583979 31.751938 0 42.335917L59.975883 885.416021C49.391904 896 28.223945 896 17.639966 885.416021L10.583979 878.360034c-14.111972-10.583979-14.111972-28.223945 0-42.335917z"  horiz-adv-x="1024" />

    
    <glyph glyph-name="btn-drop-down" unicode="&#58887;" d="M184.32 844.8L942.08 76.79999999999995c40.96-40.96 40.96-112.64 0-153.6-40.96-40.96-112.64-40.96-153.6 0L30.72 691.2C-10.24 732.16-10.24 803.84 30.72 844.8 71.68 885.76 143.36 885.76 184.32 844.8zM1710.08 691.2L942.08-76.79999999999995c-40.96-40.96-112.64-40.96-153.6 0-40.96 40.96-40.96 112.64 10.24 153.6L1556.48 834.56c40.96 40.96 112.64 40.96 153.6 0 40.96-30.72 40.96-102.4 0-143.36z"  horiz-adv-x="1740" />

    
    <glyph glyph-name="login-btn-tourist" unicode="&#58888;" d="M512 384m-512 0a512 512 0 1 1 1024 0 512 512 0 1 1-1024 0ZM656.384 567.296c-20.48 16.384-47.104 20.48-71.68 10.24l-58.368-23.552c-8.192-3.072-18.432-3.072-26.624 0L439.296 578.56c-23.552 9.216-51.2 6.144-71.68-10.24-54.272-44.032-132.096-180.224-107.52-345.088 3.072-21.504 21.504-38.912 44.032-38.912 26.624 0 67.584 10.24 121.856 53.248 0 0 49.152 43.008 87.04 43.008s86.016-43.008 86.016-43.008c54.272-44.032 95.232-54.272 121.856-53.248 22.528 0 40.96 17.408 44.032 38.912 23.552 164.864-54.272 301.056-108.544 344.064zM399.36 340.99199999999996c-29.696 0-53.248 23.552-53.248 53.248 0 29.696 23.552 53.248 53.248 53.248 29.696 0 53.248-23.552 53.248-53.248 0-28.672-23.552-53.248-53.248-53.248z m278.528 37.888h-37.888v-37.888h-31.744v37.888h-37.888v31.744h37.888v37.888h31.744v-37.888h37.888v-31.744z"  horiz-adv-x="1024" />

    
    <glyph glyph-name="popwindows-btn-cancle" unicode="&#58889;" d="M59.975883-116.53402200000005l952.558139 952.558139c10.583979 10.583979 10.583979 31.751938 0 42.335917l-7.055986 7.055987c-10.583979 10.583979-31.751938 10.583979-42.335917 0l-952.55814-952.55814c-10.583979-10.583979-10.583979-31.751938 0-42.335917l7.055987-7.055986c10.583979-14.111972 28.223945-14.111972 42.335917 0zM10.583979 836.024117l956.086133-956.086133c10.583979-10.583979 31.751938-10.583979 42.335917 0l7.055987 7.055987c10.583979 10.583979 10.583979 31.751938 0 42.335917L59.975883 885.416021C49.391904 896 28.223945 896 17.639966 885.416021L10.583979 878.360034c-14.111972-10.583979-14.111972-28.223945 0-42.335917z"  horiz-adv-x="1024" />

    
    <glyph glyph-name="message-btn-picture" unicode="&#58891;" d="M1270.964706 838.776471c33.129412 0 57.223529-27.105882 57.223529-57.22353v-792.094117c0-33.129412-27.105882-57.223529-57.223529-57.22353H114.447059c-33.129412 0-57.223529 27.105882-57.22353 57.22353V781.552941c0 33.129412 27.105882 57.223529 57.22353 57.22353h1156.517647m0 57.223529H114.447059C51.2 896 0 844.8 0 781.552941v-792.094117C0-76.79999999999995 51.2-128 114.447059-128h1153.505882c63.247059 0 114.447059 51.2 114.447059 114.447059V781.552941C1385.411765 844.8 1334.211765 896 1270.964706 896zM30.117647 7.529411999999979l421.647059 512s60.235294 90.352941 150.588235 0l150.588235-150.588236s60.235294-60.235294 90.352942 0c0 0 60.235294 120.470588 150.588235 0l361.411765-391.529411-30.117647-60.235294H120.470588l-60.235294 30.117647-30.117647 60.235294zM1069.176471 624.941176m-135.529412 0a135.529412 135.529412 0 1 1 271.058823 0 135.529412 135.529412 0 1 1-271.058823 0Z"  horiz-adv-x="1385" />

    
    <glyph glyph-name="message-btn-plane-normat" unicode="&#58892;" d="M808.069565-123.54782599999999c-4.452174 0-11.130435 2.226087-15.582608 4.452174l-2.226087 2.226087-264.904348 162.504348-126.886957-126.886957c-11.130435-11.130435-26.713043-13.356522-40.069565-6.678261-13.356522 6.678261-22.26087 17.808696-22.26087 33.391305v180.313043c0 4.452174 0 15.582609 11.130435 26.713044l405.147826 429.634782c11.130435 11.130435 28.93913 11.130435 40.069566 2.226087 11.130435-11.130435 11.130435-28.93913 2.226086-40.069565l-400.695652-422.956522v-129.113043l102.4 102.4c11.130435 13.356522 28.93913 17.808696 44.521739 8.904347l2.226087-2.226086 253.773913-155.826087 164.730435 885.982608L62.330435 401.808696c-2.226087 0-2.226087-2.226087-2.226087-4.452174s0-2.226087 2.226087-2.226087L289.391304 241.530435c13.356522-8.904348 15.582609-26.713043 6.678261-37.843478s-26.713043-15.582609-37.843478-6.678261L31.165217 348.382609C13.356522 359.51304300000004 4.452174 379.547826 4.452174 401.808696c2.226087 22.26087 13.356522 40.069565 33.391304 51.2L946.086957 884.869565c17.808696 8.904348 37.843478 6.678261 53.426086-4.452174s22.26087-31.165217 17.808696-51.2L845.913043-96.83478300000002c-4.452174-11.130435-11.130435-20.034783-22.260869-24.486956-6.678261 0-11.130435-2.226087-15.582609-2.226087z m-422.956522 238.191304zM970.573913 835.895652z m-8.904348 4.452174z"  horiz-adv-x="1024" />

    
    <glyph glyph-name="star-solid" unicode="&#58893;" d="M529.482927-30.595121999999947C224.780488-200.4292680000001 102.4-115.51219500000002 164.839024 224.15609800000004-92.409756 458.926829-47.453659 598.790244 299.707317 646.2439019999999c144.858537 314.692683 294.712195 317.190244 447.063415 4.995122 347.160976-39.960976 397.112195-179.82439 142.360975-419.590244 69.931707-337.170732-49.95122-427.082927-359.64878-262.243902z"  horiz-adv-x="1049" />

    
    <glyph glyph-name="star-empty" unicode="&#58894;" d="M521.990244 858.5365850000001c62.439024 0 132.370732-74.926829 202.302439-219.785365l4.995122-12.487805 12.487805-2.497561c162.341463-17.482927 257.24878-59.941463 277.229268-117.385366 19.980488-57.443902-32.468293-147.356098-147.356098-257.248781l-9.990243-9.990244 2.497561-12.487804c27.473171-137.365854 24.97561-234.770732-12.487805-279.72683-17.482927-22.478049-44.956098-32.468293-79.921952-32.468292-54.946341 0-132.370732 24.97561-229.775609 77.42439l-12.487805 4.995122-12.487805-7.492683c-97.404878-54.946341-174.829268-82.419512-232.273171-82.419512-34.965854 0-59.941463 9.990244-77.42439 32.468292-37.463415 47.453659-42.458537 139.863415-17.482927 282.224391l2.497561 12.487804-9.990244 9.990244C64.936585 351.531707 9.990244 438.946341 29.970732 498.887805c17.482927 59.941463 112.390244 102.4 274.731707 124.878049l12.487805 2.497561 4.995122 12.487805c67.434146 142.360976 134.868293 219.785366 199.804878 219.785365m0 24.97561c-74.926829 0-149.853659-79.921951-222.282927-237.268293-347.160976-47.453659-392.117073-187.317073-134.868293-422.087804-39.960976-227.278049 0-339.668293 119.882927-339.668293 59.941463 0 142.360976 27.473171 244.760976 84.917073 99.902439-52.44878 182.321951-79.921951 242.263414-79.921951 124.878049 0 164.839024 114.887805 117.385366 342.165853 252.253659 239.765854 204.8 379.629268-142.360975 419.590244-77.42439 154.84878-152.35122 232.273171-224.780488 232.273171z"  horiz-adv-x="1048" />

    
    <glyph glyph-name="btn-delete-photo" unicode="&#58895;" d="M512 384m-512 0a512 512 0 1 1 1024 0 512 512 0 1 1-1024 0ZM285.866667 157.866667c-12.8 12.8-12.8 34.133333 0 46.933333l405.333333 405.333333c12.8 12.8 34.133333 12.8 46.933333 0 12.8-12.8 12.8-34.133333 0-46.933333l-405.333333-405.333333c-12.8-12.8-34.133333-12.8-46.933333 0zM285.866667 610.133333c12.8 12.8 34.133333 12.8 46.933333 0l405.333333-405.333333c12.8-12.8 12.8-34.133333 0-46.933333-12.8-12.8-34.133333-12.8-46.933333 0L285.866667 563.2c-12.8 12.8-12.8 34.133333 0 46.933333z"  horiz-adv-x="1024" />

    
    <glyph glyph-name="nav-remind" unicode="&#58896;" d="M512 384m-512 0a512 512 0 1 1 1024 0 512 512 0 1 1-1024 0ZM512 42.66666699999996c-34.133333 0-64.474074 30.340741-64.474074 64.474074v341.333333c0 34.133333 30.340741 64.474074 64.474074 64.474074 34.133333 0 64.474074-30.340741 64.474074-64.474074v-341.333333c0-34.133333-30.340741-64.474074-64.474074-64.474074zM512 660.8592590000001m-64.474074 0a64.474074 64.474074 0 1 1 128.948148 0 64.474074 64.474074 0 1 1-128.948148 0Z"  horiz-adv-x="1024" />

    
    <glyph glyph-name="message-btn-delete" unicode="&#58897;" d="M512 843.487179C764.061538 843.487179 971.487179 636.0615379999999 971.487179 384S764.061538-75.48717899999997 512-75.48717899999997 52.512821 131.93846199999996 52.512821 384 259.938462 843.487179 512 843.487179m0 52.512821C228.430769 896 0 667.569231 0 384S228.430769-128 512-128 1024 100.43076900000005 1024 384 795.569231 896 512 896zM722.051282 208.08205099999998L336.082051 594.051282c-10.502564 10.502564-26.25641 10.502564-34.133333 0-10.502564-10.502564-10.502564-26.25641 0-34.133333l385.969231-385.969231c10.502564-10.502564 26.25641-10.502564 34.133333 0 10.502564 10.502564 10.502564 26.25641 0 34.133333zM338.707692 173.94871799999999l383.34359 383.34359c10.502564 10.502564 10.502564 26.25641 0 36.758974-10.502564 10.502564-26.25641 10.502564-36.758974 0L301.948718 210.70769199999995c-10.502564-10.502564-10.502564-26.25641 0-36.758974 10.502564-10.502564 26.25641-10.502564 36.758974 0z"  horiz-adv-x="1024" />

    
    <glyph glyph-name="message-btn-bin" unicode="&#58898;" d="M960 631.4666669999999H64c-21.333333 0-42.666667 17.066667-42.666667 42.666666 0 21.333333 17.066667 42.666667 42.666667 42.666667h896c21.333333 0 42.666667-17.066667 42.666667-42.666667s-17.066667-42.666667-42.666667-42.666666zM456.533333 469.333333v-349.866666c0-21.333333-17.066667-38.4-38.4-38.4h-8.533333c-21.333333 0-38.4 17.066667-38.4 38.4V469.333333c0 21.333333 17.066667 38.4 38.4 38.4h8.533333c21.333333 0 38.4-17.066667 38.4-38.4zM652.8 469.333333v-349.866666c0-21.333333-17.066667-38.4-38.4-38.4h-8.533333c-21.333333 0-38.4 17.066667-38.4 38.4V469.333333c0 21.333333 17.066667 38.4 38.4 38.4h8.533333c21.333333 0 38.4-17.066667 38.4-38.4zM665.6 772.266667H358.4c-21.333333 0-42.666667 17.066667-42.666667 42.666666 0 21.333333 17.066667 42.666667 42.666667 42.666667h307.2c25.6 0 42.666667-17.066667 42.666667-42.666667s-17.066667-42.666667-42.666667-42.666666zM738.133333-123.73333300000002H281.6c-89.6 0-166.4 72.533333-166.4 166.4V482.133333c0 17.066667 12.8 34.133333 34.133333 34.133334s34.133333-12.8 34.133334-34.133334V42.66666699999996c0-55.466667 42.666667-98.133333 98.133333-98.133334h456.533333c55.466667 0 98.133333 42.666667 98.133334 98.133334V482.133333c0 17.066667 12.8 34.133333 34.133333 34.133334s34.133333-12.8 34.133333-34.133334V42.66666699999996c0-89.6-76.8-166.4-166.4-166.4z"  horiz-adv-x="1024" />

    
    <glyph glyph-name="btn-camera" unicode="&#58899;" d="M512 384m-512 0a512 512 0 1 1 1024 0 512 512 0 1 1-1024 0ZM402.014815 550.8740740000001l7.585185 45.511111c0 18.962963 15.17037 30.340741 30.340741 30.340741h144.118518c18.962963 0 30.340741-15.17037 30.340741-30.340741l7.585185-45.511111M750.933333 137.48148100000003H273.066667c-41.718519 0-75.851852 34.133333-75.851852 75.851852v261.688889c0 41.718519 34.133333 75.851852 75.851852 75.851852h474.074074c41.718519 0 75.851852-34.133333 75.851852-75.851852V213.33333300000004c3.792593-37.925926-30.340741-75.851852-72.05926-75.851852zM512 346.074074m-140.325926 0a140.325926 140.325926 0 1 1 280.651852 0 140.325926 140.325926 0 1 1-280.651852 0ZM512 346.074074m-102.4 0a102.4 102.4 0 1 1 204.8 0 102.4 102.4 0 1 1-204.8 0Z"  horiz-adv-x="1024" />

    
    <glyph glyph-name="message-btn-add" unicode="&#58900;" d="M512 565.5272729999999c10.24 0 18.618182-8.378182 18.618182-18.618182v-335.127273c0-10.24-8.378182-18.618182-18.618182-18.618182s-18.618182 8.378182-18.618182 18.618182v335.127273c0 10.24 8.378182 18.618182 18.618182 18.618182zM344.436364 397.963636h335.127272c10.24 0 18.618182-8.378182 18.618182-18.618181s-8.378182-18.618182-18.618182-18.618182H344.436364c-10.24 0-18.618182 8.378182-18.618182 18.618182s8.378182 18.618182 18.618182 18.618181zM930.909091 896h-74.472727v-18.618182h74.472727V896zM781.963636 896h-74.472727v-18.618182h74.472727V896zM633.018182 896h-74.472727v-18.618182h74.472727V896zM484.072727 896h-74.472727v-18.618182h74.472727V896zM335.127273 896h-74.472728v-18.618182h74.472728V896zM186.181818 896h-74.472727v-18.618182h74.472727V896zM40.96 879.243636c-0.930909 0-0.930909 0 0 0-0.930909 0-0.930909 0 0 0-0.930909 0-0.930909 0 0 0-0.930909 0-0.930909 0 0 0-0.930909 0-0.930909 0 0 0-0.930909 0-0.930909 0 0 0-0.930909 0-0.930909 0 0 0-0.930909 0-0.930909 0 0 0-0.930909 0-0.930909 0 0 0-0.930909 0-0.930909 0 0 0-0.930909 0-0.930909 0 0 0-0.930909 0-0.930909 0 0 0-0.930909 0-0.930909 0 0 0h-0.930909C21.410909 865.28 9.309091 847.592727 3.723636 828.043636c0-0.930909 0-1.861818-0.930909-1.861818 0-0.930909 0-0.930909-0.930909-1.861818v-0.930909l18.618182-2.792727c3.723636 19.549091 14.894545 37.236364 31.650909 48.407272L40.96 879.243636zM18.618182 744.261818H0v-74.472727h18.618182v74.472727z m0-148.945454H0v-74.472728h18.618182v74.472728z m0-148.945455H0v-74.472727h18.618182v74.472727z m0-148.945454H0v-74.472728h18.618182v74.472728z m0-148.945455H0v-74.472727h18.618182v74.472727z m0-148.945455H0V-39.563635999999974c0.930909-2.792727 1.861818-5.585455 3.723636-8.378182l16.756364 7.447273c-4.654545 9.309091-6.516364 20.48-6.516364 30.72v9.30909H18.618182z m49.338182-104.261818l-6.516364-17.687272c7.447273-2.792727 14.894545-3.723636 22.341818-4.654546h42.821818v18.618182H93.090909c-8.378182-0.930909-16.756364 0.930909-25.134545 3.723636z m216.901818-4.654545h-74.472727v-18.618182h74.472727v18.618182z m148.945454 0h-74.472727v-18.618182h74.472727v18.618182z m148.945455 0h-74.472727v-18.618182h74.472727v18.618182z m148.945454 0h-74.472727v-18.618182h74.472727v18.618182z m148.945455 0h-74.472727v-18.618182h74.472727v18.618182z m115.432727 38.167273c-10.24-17.687273-26.996364-30.72-45.614545-35.374546l4.654545-17.687273c3.723636 0.930909 8.378182 2.792727 12.101818 3.723637 0 0 0.930909 0 0.93091 0.930909h0.930909s0.930909 0 0.930909 0.930909c0.930909 0 0.930909 0.930909 1.861818 0.930909 4.654545 2.792727 9.309091 5.585455 13.032727 9.309091l0.930909 0.930909 0.930909 0.930909c5.585455 5.585455 10.24 12.101818 13.963637 18.618182l-4.654546 16.756364z m27.927273 137.774545h-18.618182v-74.472727h18.618182v74.472727z m0 148.945455h-18.618182v-74.472728h18.618182v74.472728z m0 148.945454h-18.618182v-74.472727h18.618182v74.472727z m0 148.945455h-18.618182v-74.472728h18.618182v74.472728z m0 148.945454h-18.618182v-74.472727h18.618182v74.472727z m0 148.945455l-18.618182-1.861818v-72.61091h18.618182V802.909091v8.378182zM930.909091 896v-18.618182c16.756364 0 33.512727-5.585455 46.545454-16.756363l12.101819 14.894545c-13.032727 10.24-28.858182 17.687273-46.545455 19.549091h-0.930909c-10.24 0.930909-10.24 0.930909-11.170909 0.930909 0.930909 0 0.930909 0 0 0 0.930909 0 0.930909 0 0 0 0.930909 0 0.930909 0 0 0 0.930909 0 0.930909 0 0 0 0.930909 0 0.930909 0 0 0 0.930909 0 0.930909 0 0 0 0.930909 0 0.930909 0 0 0 0.930909 0 0.930909 0 0 0 0.930909 0 0.930909 0 0 0 0.930909 0 0.930909 0 0 0 0.930909 0 0.930909 0 0 0 0.930909 0 0.930909 0 0 0z"  horiz-adv-x="1024" />

    
    <glyph glyph-name="message-btn-reset" unicode="&#58901;" d="M958.358974 762.092308v-225.805129c0-13.128205 10.502564-23.630769 23.63077-23.630769s23.630769 10.502564 23.630769 23.630769V762.092308c0 13.128205-10.502564 23.630769-23.630769 23.630769s-23.630769-10.502564-23.63077-23.630769zM756.184615 512.65641h225.805129c13.128205 0 23.630769 10.502564 23.630769 23.630769s-10.502564 23.630769-23.630769 23.63077h-225.805129c-13.128205 0-23.630769-10.502564-23.630769-23.63077s10.502564-23.630769 23.630769-23.630769zM514.625641-112.24615400000005C241.558974-112.24615400000005 18.379487 110.93333299999995 18.379487 384 21.005128 657.066667 241.558974 880.246154 514.625641 880.246154c204.8 0 391.220513-128.65641 462.112821-317.702564 5.251282-13.128205-2.625641-26.25641-13.128206-31.507693-13.128205-5.251282-26.25641 2.625641-31.507692 13.128206-63.015385 170.666667-231.05641 286.194872-417.476923 286.194871-246.810256 0-446.358974-199.548718-446.358974-446.358974s199.548718-446.358974 446.358974-446.358974c173.292308 0 333.45641 99.774359 406.974359 257.31282 5.251282 13.128205 21.005128 18.379487 31.507692 13.128205 13.128205-5.251282 18.379487-21.005128 13.128205-31.507692-81.394872-175.917949-257.312821-288.820513-451.610256-288.820513z"  horiz-adv-x="1024" />

    
    <glyph glyph-name="nav-back" unicode="&#58902;" d="M764.061538 801.4769229999999L319.015385 356.43076900000005c-15.753846-15.753846-39.384615-15.753846-55.138462 0-15.753846 15.753846-15.753846 39.384615 0 55.138462L704.984615 856.6153850000001c15.753846 15.753846 39.384615 15.753846 55.138462 0 19.692308-15.753846 19.692308-39.384615 3.938461-55.138462zM704.984615-88.61538499999995L259.938462 356.43076900000005c-15.753846 15.753846-15.753846 39.384615 0 55.138462 15.753846 15.753846 39.384615 15.753846 55.138461 0l445.046154-445.046154c15.753846-15.753846 15.753846-39.384615 0-55.138462-11.815385-15.753846-39.384615-15.753846-55.138462 0z"  horiz-adv-x="1024" />

    
    <glyph glyph-name="tab-Personal-selected" unicode="&#58903;" d="M941.292308-55.138462000000004H82.707692c0 236.307692 68.923077 326.892308 429.292308 326.892308s429.292308-88.615385 429.292308-326.892308zM519.876923 823.138462c-137.846154 0-250.092308-112.246154-250.092308-250.092308s112.246154-250.092308 250.092308-250.092308 250.092308 112.246154 250.092308 250.092308S657.723077 823.138462 519.876923 823.138462z m43.323077-194.953847c0 13.784615 11.815385 25.6 25.6 25.6s25.6-11.815385 25.6-25.6v-51.2c0-13.784615-11.815385-25.6-25.6-25.6s-25.6 11.815385-25.6 25.6v51.2z m-137.846154 0c0 13.784615 11.815385 25.6 25.6 25.6s25.6-11.815385 25.6-25.6v-51.2c0-13.784615-11.815385-25.6-25.6-25.6s-25.6 11.815385-25.6 25.6v51.2z m94.523077-226.461538c-57.107692 0-102.4 47.261538-102.4 102.4h206.769231c0-57.107692-47.261538-102.4-104.369231-102.4z"  horiz-adv-x="1024" />

    
    <glyph glyph-name="tab-Personal-normat" unicode="&#58904;" d="M512 232.369231c171.323077 0 271.753846-19.692308 324.923077-64.984616 41.353846-33.476923 61.046154-88.615385 64.984615-183.138461H122.092308c3.938462 94.523077 23.630769 147.692308 64.984615 183.138461 53.169231 45.292308 153.6 64.984615 324.923077 64.984616m0 39.384615c-360.369231 0-429.292308-88.615385-429.292308-326.892308h858.584616c0 238.276923-68.923077 326.892308-429.292308 326.892308zM504.123077 781.784615c116.184615 0 210.707692-94.523077 210.707692-210.707692s-94.523077-210.707692-210.707692-210.707692-210.707692 94.523077-210.707692 210.707692S387.938462 781.784615 504.123077 781.784615m0 39.384616c-137.846154 0-250.092308-112.246154-250.092308-250.092308 0-137.846154 112.246154-250.092308 250.092308-250.092308s250.092308 112.246154 250.092308 250.092308c-1.969231 139.815385-112.246154 250.092308-250.092308 250.092308zM533.661538 551.3846149999999c13.784615 0 25.6 11.815385 25.6 25.6v51.2c0 13.784615-11.815385 25.6-25.6 25.6-13.784615 0-25.6-11.815385-25.6-25.6v-51.2c0-13.784615 11.815385-25.6 25.6-25.6zM395.815385 551.3846149999999c13.784615 0 25.6 11.815385 25.6 25.6v51.2c0 13.784615-11.815385 25.6-25.6 25.6-13.784615 0-25.6-11.815385-25.6-25.6v-51.2c0-13.784615 11.815385-25.6 25.6-25.6z"  horiz-adv-x="1024" />

    
    <glyph glyph-name="home-speaker" unicode="&#58906;" d="M498.036364 160.581818H139.636364c-51.2 0-93.090909 41.890909-93.090909 93.090909V514.327273c0 51.2 41.890909 93.090909 93.090909 93.090909h358.4c51.2 0 93.090909-41.890909 93.090909-93.090909v-265.309091c-4.654545-46.545455-41.890909-88.436364-93.090909-88.436364zM670.254545-72.14545499999997l-414.254545 232.727273V607.418182l414.254545 232.727273zM754.036364 607.418182v-446.836364c125.672727 0 223.418182 97.745455 223.418181 223.418182s-97.745455 223.418182-223.418181 223.418182z"  horiz-adv-x="1024" />

    
    <glyph glyph-name="tab-home-selected" unicode="&#58907;" d="M992.492308 502.153846L529.723077 876.307692c-9.846154 7.876923-23.630769 7.876923-33.476923 0L31.507692 502.153846c-9.846154-7.876923-3.938462-25.6 9.846154-25.6H118.153846V49.23076900000001c0-90.584615 72.861538-163.446154 163.446154-163.446154h82.707692v315.076923c0 80.738462 66.953846 147.692308 147.692308 147.692308s147.692308-66.953846 147.692308-147.692308v-315.076923h82.707692c90.584615 0 163.446154 72.861538 163.446154 163.446154V476.553846h76.8c13.784615 0 19.692308 17.723077 9.846154 25.6z"  horiz-adv-x="1024" />

    
    <glyph glyph-name="home-btn-search-normat" unicode="&#58908;" d="M512 384m-512 0a512 512 0 1 1 1024 0 512 512 0 1 1-1024 0ZM439.466667 226.133333c-123.733333 0-226.133333 102.4-226.133334 228.266667C213.333333 580.266667 315.733333 682.666667 439.466667 682.666667s226.133333-102.4 226.133333-228.266667c0-125.866667-102.4-228.266667-226.133333-228.266667z m0 420.266667c-104.533333 0-189.866667-85.333333-189.866667-192 0-104.533333 85.333333-192 189.866667-192s189.866667 85.333333 189.866666 192c0 104.533333-85.333333 192-189.866666 192zM755.2 85.33333300000004c-14.933333 0-27.733333 6.4-38.4 17.066667l-149.333333 151.466667c-10.666667 10.666667-14.933333 25.6-10.666667 40.533333 4.266667 12.8 12.8 21.333333 19.2 29.866667 10.666667 10.666667 23.466667 21.333333 40.533333 21.333333 6.4 0 17.066667-2.133333 27.733334-12.8l149.333333-151.466667c10.666667-10.666667 17.066667-25.6 17.066667-40.533333s-6.4-29.866667-17.066667-40.533333c-10.666667-8.533333-23.466667-14.933333-38.4-14.933334z m-164.266667 196.266667l2.133334-2.133333 149.333333-151.466667c6.4-6.4 19.2-6.4 25.6 0 4.266667 4.266667 6.4 8.533333 6.4 12.8 0 4.266667-2.133333 10.666667-6.4 12.8l-149.333333 151.466667-2.133334 2.133333s-4.266667 0-14.933333-10.666667c-8.533333-10.666667-10.666667-14.933333-10.666667-14.933333z"  horiz-adv-x="1024" />

    
    <glyph glyph-name="home-btn-search-pressed" unicode="&#58910;" d="M512 384m-512 0a512 512 0 1 1 1024 0 512 512 0 1 1-1024 0ZM439.466667 226.133333c-123.733333 0-226.133333 102.4-226.133334 228.266667C213.333333 580.266667 315.733333 682.666667 439.466667 682.666667s226.133333-102.4 226.133333-228.266667c0-125.866667-102.4-228.266667-226.133333-228.266667z m0 420.266667c-104.533333 0-189.866667-85.333333-189.866667-192 0-104.533333 85.333333-192 189.866667-192s189.866667 85.333333 189.866666 192c0 104.533333-85.333333 192-189.866666 192zM755.2 85.33333300000004c-14.933333 0-27.733333 6.4-38.4 17.066667l-149.333333 151.466667c-10.666667 10.666667-14.933333 25.6-10.666667 40.533333 4.266667 12.8 12.8 21.333333 19.2 29.866667 10.666667 10.666667 23.466667 21.333333 40.533333 21.333333 6.4 0 17.066667-2.133333 27.733334-12.8l149.333333-151.466667c10.666667-10.666667 17.066667-25.6 17.066667-40.533333s-6.4-29.866667-17.066667-40.533333c-10.666667-8.533333-23.466667-14.933333-38.4-14.933334z m-164.266667 196.266667l2.133334-2.133333 149.333333-151.466667c6.4-6.4 19.2-6.4 25.6 0 4.266667 4.266667 6.4 8.533333 6.4 12.8 0 4.266667-2.133333 10.666667-6.4 12.8l-149.333333 151.466667-2.133334 2.133333s-4.266667 0-14.933333-10.666667c-8.533333-10.666667-10.666667-14.933333-10.666667-14.933333z"  horiz-adv-x="1024" />

    
    <glyph glyph-name="tab-game-normat" unicode="&#58911;" d="M703.015385 728.6153850000001c21.661538 0 43.323077-7.876923 61.046153-21.661539C846.769231 640 1004.307692 399.753846 959.015385 80.73846200000003c-3.938462-23.630769-23.630769-41.353846-45.292308-41.353847h-1.969231c-41.353846 0-110.276923 15.753846-206.769231 94.523077-15.753846 11.815385-108.307692 92.553846-191.015384 92.553846-82.707692 0-179.2-80.738462-192.984616-92.553846-96.492308-76.8-165.415385-94.523077-206.76923-94.523077h-1.969231c-23.630769 0-43.323077 17.723077-45.292308 41.353847C19.692308 399.753846 177.230769 640 259.938462 706.953846c17.723077 13.784615 39.384615 21.661538 61.046153 21.661539 11.815385 0 25.6-1.969231 37.415385-7.876923l116.184615-45.292308c13.784615-5.907692 25.6-7.876923 39.384616-7.876923s27.569231 1.969231 41.353846 7.876923l112.246154 45.292308c11.815385 3.938462 23.630769 7.876923 35.446154 7.876923m0 39.384615c-17.723077 0-35.446154-3.938462-51.2-9.846154l-112.246154-45.292308c-7.876923-3.938462-17.723077-5.907692-25.6-5.907692s-17.723077 1.969231-25.6 3.938462L372.184615 758.1538459999999c-15.753846 5.907692-33.476923 9.846154-51.2 9.846154-31.507692 0-61.046154-9.846154-84.676923-29.538462C129.969231 653.784615-19.692308 391.876923 27.569231 74.83076900000003c5.907692-41.353846 41.353846-74.830769 84.676923-74.830769h1.969231c51.2 0 128 19.692308 232.36923 102.4 0 0 94.523077 82.707692 167.384616 82.707692s165.415385-82.707692 165.415384-82.707692c102.4-82.707692 181.169231-102.4 232.369231-102.4h1.969231c43.323077 0 78.769231 33.476923 84.676923 74.830769C1043.692308 391.876923 894.030769 653.784615 789.661538 736.492308c-25.6 19.692308-55.138462 31.507692-86.646153 31.507692zM295.384615 403.692308m-102.4 0a102.4 102.4 0 1 1 204.8 0 102.4 102.4 0 1 1-204.8 0ZM626.215385 435.2h206.76923v-61.046154H626.215385zM697.993846 302.276923v206.769231h61.046154v-206.769231z"  horiz-adv-x="1024" />

    
    <glyph glyph-name="tab-game-selected" unicode="&#58912;" d="M789.661538 736.492308c-39.384615 31.507692-90.584615 39.384615-137.846153 19.692307l-112.246154-45.292307c-15.753846-5.907692-35.446154-5.907692-51.2 0L372.184615 758.1538459999999c-45.292308 17.723077-98.461538 11.815385-137.846153-19.692308C129.969231 653.784615-19.692308 391.876923 27.569231 74.83076900000003c5.907692-41.353846 41.353846-74.830769 84.676923-74.830769 51.2 0 129.969231 19.692308 234.338461 102.4 0 0 94.523077 82.707692 167.384616 82.707692s165.415385-82.707692 165.415384-82.707692c104.369231-84.676923 183.138462-104.369231 234.338462-102.4 43.323077 0 78.769231 33.476923 84.676923 74.830769C1043.692308 391.876923 894.030769 653.784615 789.661538 736.492308zM295.384615 301.29230800000005c-57.107692 0-102.4 45.292308-102.4 102.4s45.292308 102.4 102.4 102.4 102.4-45.292308 102.4-102.4-45.292308-102.4-102.4-102.4z m535.63077 72.861538h-72.861539v-72.861538h-61.046154v72.861538h-72.861538v61.046154h72.861538v72.861538h61.046154v-72.861538h72.861539v-61.046154z"  horiz-adv-x="1024" />

    
    <glyph glyph-name="tab-home-normat" unicode="&#58913;" d="M512 838.892308l399.753846-322.953846H866.461538V49.23076900000001c0-68.923077-55.138462-124.061538-124.061538-124.061538H281.6C212.676923-74.83076900000003 157.538462-19.692308000000025 157.538462 49.23076900000001V515.9384620000001H112.246154L512 838.892308m0 43.323077c-5.907692 0-11.815385-1.969231-17.723077-5.907693L31.507692 502.153846c-9.846154-7.876923-3.938462-25.6 9.846154-25.6H118.153846V49.23076900000001c0-90.584615 72.861538-163.446154 163.446154-163.446154h458.830769c90.584615 0 163.446154 72.861538 163.446154 163.446154V476.553846h76.8c13.784615 0 19.692308 17.723077 9.846154 25.6L529.723077 876.307692c-5.907692 3.938462-11.815385 5.907692-17.723077 5.907693zM679.384615-114.21538499999997h-39.384615v315.076923c0 68.923077-59.076923 128-128 128s-128-59.076923-128-128v-315.076923h-39.384615v315.076923c0 92.553846 74.830769 167.384615 167.384615 167.384616s167.384615-74.830769 167.384615-167.384616v-315.076923z"  horiz-adv-x="1024" />

    
    <glyph glyph-name="search-input-btn-search" unicode="&#58914;" d="M488.565881 805.104022c221.558946 0 397.669903-176.110957 397.669903-397.669903s-176.110957-397.669903-397.669903-397.669903-397.669903 176.110957-397.669903 397.669903 176.110957 397.669903 397.669903 397.669903m0 85.214979C221.558946 890.319001 5.680999 674.441054 5.680999 407.434119s215.877947-482.884882 482.884882-482.884882 482.884882 215.877947 482.884882 482.884882S755.572816 890.319001 488.565881 890.319001zM823.744799 129.06518700000004c17.042996 17.042996 45.447989 17.042996 62.490985 0l181.791955-181.791955c17.042996-17.042996 17.042996-45.447989 0-62.490985-17.042996-17.042996-45.447989-17.042996-62.490984 0l-181.791956 181.791955c-17.042996 22.723994-17.042996 45.447989 0 62.490985z"  horiz-adv-x="1082" />

    
    <glyph glyph-name="search-input-btn-delete" unicode="&#58915;" d="M512 384m-512 0a512 512 0 1 1 1024 0 512 512 0 1 1-1024 0ZM285.866667 610.133333c17.066667 17.066667 42.666667 17.066667 59.733333 0l392.533333-392.533333c17.066667-17.066667 17.066667-42.666667 0-59.733333-17.066667-17.066667-42.666667-17.066667-59.733333 0L285.866667 550.4c-17.066667 17.066667-17.066667 42.666667 0 59.733333zM738.133333 610.133333c17.066667-17.066667 17.066667-42.666667 0-59.733333l-392.533333-392.533333c-17.066667-17.066667-42.666667-17.066667-59.733333 0-17.066667 17.066667-17.066667 42.666667 0 59.733333l392.533333 392.533333c17.066667 17.066667 42.666667 17.066667 59.733333 0z"  horiz-adv-x="1024" />

    
    <glyph glyph-name="message-btn-plane-pressed" unicode="&#58916;" d="M811.008-122.41252199999997c-6.656 0-13.289739 1.80313-19.122087 5.409392l-264.837565 163.995826-128.133565-128.890435a36.463304 36.463304 0 1 0-62.374957 25.778087v180.49113c0 9.416348 3.561739 18.342957 9.995131 25.154783l405.147826 430.302609a27.826087 27.826087 0 0 0 40.537043-38.155131l-400.027826-424.848696v-126.553043l106.095304 106.74087a36.262957 36.262957 0 0 0 44.989218 5.38713l253.996521-157.295304 163.81774 885.826782-897.558261-430.992695a3.85113 3.85113 0 0 1-2.315131-3.428174 3.85113 3.85113 0 0 1 1.758609-3.784348l226.214957-150.550261a27.826087 27.826087 0 0 0-30.831305-46.34713L31.654957 346.71304299999997a59.547826 59.547826 0 0 0-25.911653 54.272 59.236174 59.236174 0 0 0 33.702957 49.12974L945.975652 885.426087a50.265043 50.265043 0 0 0 52.535652-5.431652 50.532174 50.532174 0 0 0 19.055305-49.574957l-170.674087-922.935652a36.61913 36.61913 0 0 0-35.884522-29.896348zM387.049739 111.39339099999995l-0.066782-0.066782 0.066782 0.066782z"  horiz-adv-x="1024" />

    
    <glyph glyph-name="backtothetop" unicode="&#58909;" d="M27.972337 27.29958499999998a140.923928 140.923928 0 0 0 41.852283 99.992255L804.399447 837.576763c70.816044 68.479115 183.271923 68.054219 253.592254-0.991424l729.192808-715.808576a141.632089 141.632089 0 0 0-200.975934-199.559612l-605.97289 610.575933a71.028492 71.028492 0 0 1-100.417151 0.354081l-603.990042-599.457815c-53.607746-53.253665-141.278008-62.601383-198.568188-13.313416a140.923928 140.923928 0 0 0-49.287967 107.923651z"  horiz-adv-x="1856" />

    
    <glyph glyph-name="see-message" unicode="&#58919;" d="M512 384m-512 0a512 512 0 1 1 1024 0 512 512 0 1 1-1024 0ZM844.8 438.4c-64 73.6-188.8 195.2-332.8 195.2-137.6 0-259.2-112-326.4-185.6-32-35.2-32-92.8 0-128 64-73.6 185.6-185.6 326.4-185.6 144 0 272 121.6 332.8 195.2 25.6 32 25.6 76.8 0 108.8zM512 249.60000000000002c-73.6 0-134.4 60.8-134.4 134.4s60.8 134.4 134.4 134.4c73.6 0 134.4-60.8 134.4-134.4s-60.8-134.4-134.4-134.4zM512 384m-70.4 0a70.4 70.4 0 1 1 140.8 0 70.4 70.4 0 1 1-140.8 0Z"  horiz-adv-x="1024" />

    
    <glyph glyph-name="add-message" unicode="&#58920;" d="M512 384m-512 0a512 512 0 1 1 1024 0 512 512 0 1 1-1024 0ZM752 444.8h-179.2V624c0 32-28.8 60.8-60.8 60.8-35.2 0-60.8-28.8-60.8-60.8v-179.2H272c-35.2 0-60.8-28.8-60.8-60.8 0-35.2 28.8-60.8 60.8-60.8h179.2v-179.2c0-35.2 28.8-60.8 60.8-60.8 35.2 0 60.8 28.8 60.8 60.8v179.2h179.2c32 0 60.8 28.8 60.8 60.8 0 35.2-28.8 60.8-60.8 60.8z"  horiz-adv-x="1024" />

    
    <glyph glyph-name="activelabel_begain" unicode="&#58921;" d="M512-76.79999999999995C256-76.79999999999995 51.2 128 51.2 384S256 844.8 512 844.8 972.8 640 972.8 384 768-76.79999999999995 512-76.79999999999995z m0 853.333333c-217.6 0-392.533333-174.933333-392.533333-392.533333s174.933333-392.533333 392.533333-392.533333 392.533333 174.933333 392.533333 392.533333-174.933333 392.533333-392.533333 392.533333zM384 384c0 17.066667 12.8 34.133333 29.866667 34.133333h192c17.066667 0 29.866667-12.8 29.866666-34.133333 0-17.066667-12.8-29.866667-29.866666-29.866667H413.866667c-17.066667-4.266667-29.866667 12.8-29.866667 29.866667z"  horiz-adv-x="1024" />

    
    <glyph glyph-name="activelabel-onging" unicode="&#58922;" d="M512-76.79999999999995C256-76.79999999999995 51.2 128 51.2 384S256 844.8 512 844.8 972.8 640 972.8 384 768-76.79999999999995 512-76.79999999999995z m0 853.333333c-217.6 0-392.533333-174.933333-392.533333-392.533333s174.933333-392.533333 392.533333-392.533333 392.533333 174.933333 392.533333 392.533333-174.933333 392.533333-392.533333 392.533333zM503.466667 341.33333300000004c-17.066667 0-34.133333 12.8-34.133334 29.866667V567.4666669999999c0 17.066667 12.8 29.866667 34.133334 29.866666 17.066667 0 29.866667-12.8 29.866666-29.866666v-192c0-21.333333-12.8-34.133333-29.866666-34.133334zM469.333333 371.20000000000005c0 17.066667 12.8 34.133333 29.866667 34.133333h192c17.066667 0 29.866667-12.8 29.866667-29.866666 0-17.066667-12.8-29.866667-29.866667-29.866667h-192c-17.066667-4.266667-29.866667 8.533333-29.866667 25.6z"  horiz-adv-x="1024" />

    
    <glyph glyph-name="activelabel-end" unicode="&#58923;" d="M512-68.26666699999998C268.8-68.26666699999998 72.533333 128 72.533333 371.20000000000005c0 157.866667 85.333333 302.933333 221.866667 379.733333 17.066667 8.533333 38.4 4.266667 46.933333-12.8 8.533333-17.066667 0-38.4-12.8-46.933333C213.333333 627.2 140.8 503.466667 140.8 371.20000000000005c0-204.8 166.4-371.2 371.2-371.2s371.2 166.4 371.2 371.2c0 132.266667-72.533333 256-187.733333 320-17.066667 8.533333-21.333333 29.866667-12.8 46.933333 8.533333 17.066667 29.866667 21.333333 46.933333 12.8 136.533333-76.8 221.866667-226.133333 221.866667-379.733333 0-243.2-196.266667-439.466667-439.466667-439.466667zM512 473.6c-21.333333 0-38.4 17.066667-38.4 38.4V802.133333c0 21.333333 17.066667 38.4 38.4 38.4s38.4-17.066667 38.4-38.4V512c0-25.6-17.066667-38.4-38.4-38.4z"  horiz-adv-x="1024" />

    
    <glyph glyph-name="toast-tick" unicode="&#58924;" d="M15.753846 330.174359c-5.251282 5.251282-5.251282 14.441026-1.31282 19.692308l60.389743 81.394871c3.938462 5.251282 13.128205 6.564103 18.379487 2.625641l342.646154-262.564102c11.815385-9.189744 30.194872-9.189744 40.697436 1.31282l848.082051 706.297436c5.251282 5.251282 14.441026 3.938462 19.692308-1.31282l57.764103-56.451282c5.251282-5.251282 5.251282-13.128205 0-18.379487L475.241026-106.99487199999999c-10.502564-10.502564-26.25641-10.502564-36.758975 0L15.753846 330.174359z"  horiz-adv-x="1417" />

    
    <glyph glyph-name="toast-exclamationmark" unicode="&#58925;" d="M512-118.15384600000004c53.169231 0 96.492308 43.323077 96.492308 96.492308s-43.323077 96.492308-96.492308 96.492307-96.492308-43.323077-96.492308-96.492307S458.830769-118.15384600000004 512-118.15384600000004zM453.907692 886.153846C433.230769 886.153846 416.492308 868.430769 417.476923 847.753846l29.538462-637.046154c0.984615-10.830769 9.846154-19.692308 20.676923-19.692307h89.6c10.830769 0 19.692308 8.861538 20.676923 19.692307l29.538461 637.046154C607.507692 868.430769 590.769231 886.153846 570.092308 886.153846H453.907692z"  horiz-adv-x="1024" />

    
    <glyph glyph-name="buoy-btn-support" unicode="&#58918;" d="M512 384m-512 0a512 512 0 1 1 1024 0 512 512 0 1 1-1024 0ZM291.84 394.24c0 23.893333 3.413333 46.08 10.24 66.56-32.426667-6.826667-58.026667-35.84-58.026667-69.973333 0-35.84 27.306667-66.56 61.44-71.68-8.533333 22.186667-13.653333 47.786667-13.653333 75.093333zM721.92 460.8c6.826667-20.48 10.24-42.666667 10.24-66.56 0-25.6-5.12-51.2-13.653333-75.093333 34.133333 5.12 61.44 35.84 61.44 71.68 0 34.133333-25.6 63.146667-58.026667 69.973333zM512 157.013333c-10.24 0-17.066667 6.826667-17.066667 17.066667s6.826667 17.066667 17.066667 17.066667c110.933333 0 203.093333 90.453333 203.093333 203.093333S624.64 597.333333 512 597.333333c-112.64-1.706667-203.093333-92.16-203.093333-203.093333 0-20.48 3.413333-40.96 8.533333-59.733333 3.413333-10.24-1.706667-18.773333-10.24-22.186667s-18.773333 1.706667-22.186667 11.946667c-6.826667 22.186667-10.24 46.08-10.24 69.973333 0 129.706667 105.813333 235.52 237.226667 235.52s237.226667-105.813333 237.226667-237.226667c0-129.706667-105.813333-235.52-237.226667-235.52zM512 244.05333299999995c-59.733333 0-109.226667 42.666667-119.466667 100.693334-1.706667 8.533333 5.12 18.773333 13.653334 20.48 8.533333 1.706667 18.773333-5.12 20.48-13.653334 6.826667-42.666667 42.666667-71.68 85.333333-71.68 40.96 0 76.8 29.013333 85.333333 69.973334 1.706667 8.533333 10.24 15.36 20.48 13.653333 8.533333-1.706667 15.36-10.24 13.653334-20.48-11.946667-58.026667-61.44-98.986667-119.466667-98.986667zM537.6 138.24h-51.2c-20.48 0-37.546667 17.066667-37.546667 37.546667 0 20.48 17.066667 37.546667 37.546667 37.546666h51.2c20.48 0 37.546667-17.066667 37.546667-37.546666 0-20.48-17.066667-37.546667-37.546667-37.546667z"  horiz-adv-x="1024" />

    
    <glyph glyph-name="buoy-btn-collection" unicode="&#58926;" d="M512 384m-512 0a512 512 0 1 1 1024 0 512 512 0 1 1-1024 0ZM513.706667 235.51999999999998c-109.226667-61.44-153.6-30.72-129.706667 92.16-92.16 83.626667-76.8 133.12 47.786667 150.186667 52.906667 112.64 105.813333 112.64 160.426666 1.706666 124.586667-13.653333 141.653333-64.853333 51.2-150.186666 23.893333-121.173333-18.773333-151.893333-129.706666-93.866667z"  horiz-adv-x="1024" />

    
    <glyph glyph-name="buoy-btn-exit" unicode="&#58927;" d="M512 384m-512 0a512 512 0 1 1 1024 0 512 512 0 1 1-1024 0ZM600.746667 228.69333300000005h-238.933334c-20.48 0-35.84 15.36-35.84 35.84V515.413333c0 20.48 15.36 35.84 35.84 35.84h240.64c20.48 0 35.84-15.36 35.84-35.84v-71.68c0-3.413333-3.413333-6.826667-6.826666-6.826666s-6.826667 3.413333-6.826667 6.826666v71.68c0 13.653333-10.24 22.186667-22.186667 22.186667H361.813333c-13.653333 0-22.186667-10.24-22.186666-22.186667V264.53333299999997c0-13.653333 10.24-22.186667 22.186666-22.186666h238.933334c13.653333 0 22.186667 10.24 22.186666 22.186666v69.973334c0 3.413333 3.413333 6.826667 6.826667 6.826666s6.826667-3.413333 6.826667-6.826666V264.53333299999997c0-20.48-15.36-35.84-35.84-35.84zM756.053333 392.533333L680.96 469.333333c-5.12 5.12-13.653333 1.706667-13.653333-5.12V418.133333h-100.693334c-6.826667 0-11.946667-5.12-11.946666-11.946666V366.93333299999995c0-6.826667 5.12-11.946667 11.946666-11.946666h100.693334v-46.08c0-6.826667 8.533333-10.24 13.653333-5.12l75.093333 75.093333c5.12 5.12 5.12 10.24 0 13.653333zM469.333333 158.72000000000003l-131.413333 80.213333c-3.413333 1.706667-5.12 6.826667-5.12 10.24V530.773333c0 8.533333 8.533333 15.36 17.066667 11.946667l139.946666-59.733333c8.533333-3.413333 11.946667-10.24 11.946667-18.773334v-286.72c0-17.066667-18.773333-27.306667-32.426667-18.773333z"  horiz-adv-x="1024" />

    
    <glyph glyph-name="buoy-btn-switch" unicode="&#58928;" d="M512 384m-512 0a512 512 0 1 1 1024 0 512 512 0 1 1-1024 0ZM493.226667 336.21333300000003c-73.386667 0-131.413333 59.733333-131.413334 131.413334s59.733333 131.413333 131.413334 131.413333 131.413333-59.733333 131.413333-131.413333-58.026667-131.413333-131.413333-131.413334z m0 235.52c-56.32 0-104.106667-46.08-104.106667-104.106666s46.08-104.106667 104.106667-104.106667 104.106667 46.08 104.106666 104.106667-47.786667 104.106667-104.106666 104.106666zM341.333333 184.32000000000005c-8.533333 0-13.653333 6.826667-13.653333 13.653333 0 92.16 75.093333 165.546667 165.546667 165.546667 8.533333 0 13.653333-6.826667 13.653333-13.653333s-6.826667-13.653333-13.653333-13.653334c-75.093333 0-138.24-61.44-138.24-138.24 0-8.533333-5.12-13.653333-13.653334-13.653333zM665.6 273.06666700000005h-157.013333c-8.533333 0-13.653333 6.826667-13.653334 13.653333 0 8.533333 6.826667 13.653333 13.653334 13.653333H665.6c8.533333 0 13.653333-6.826667 13.653333-13.653333s-6.826667-13.653333-13.653333-13.653333zM655.36 278.18666700000006L614.4 319.146667c-5.12 5.12-5.12 15.36 0 20.48 5.12 5.12 15.36 5.12 20.48 0l40.96-40.96c5.12-5.12 5.12-15.36 0-20.48-6.826667-5.12-15.36-5.12-20.48 0zM510.293333 252.58666700000003h157.013334c8.533333 0 13.653333-6.826667 13.653333-13.653334 0-8.533333-6.826667-13.653333-13.653333-13.653333h-157.013334c-8.533333 0-13.653333 6.826667-13.653333 13.653333s6.826667 13.653333 13.653333 13.653334zM520.533333 247.46666700000003l40.96-40.96c5.12-5.12 5.12-15.36 0-20.48-5.12-5.12-15.36-5.12-20.48 0l-40.96 40.96c-5.12 5.12-5.12 15.36 0 20.48 6.826667 6.826667 15.36 6.826667 20.48 0z"  horiz-adv-x="1024" />

    
    <glyph glyph-name="buoy-btn-share" unicode="&#58929;" d="M512 384m-512 0a512 512 0 1 1 1024 0 512 512 0 1 1-1024 0ZM382.293333 286.72c-52.906667 0-97.28 44.373333-97.28 97.28s44.373333 97.28 97.28 97.28 97.28-44.373333 97.28-97.28-44.373333-97.28-97.28-97.28z m0 160.426667c-34.133333 0-63.146667-29.013333-63.146666-63.146667s29.013333-63.146667 63.146666-63.146667 63.146667 29.013333 63.146667 63.146667-29.013333 63.146667-63.146667 63.146667zM657.066667 440.32c-44.373333 0-81.92 37.546667-81.92 81.92 0 44.373333 37.546667 81.92 81.92 81.92s81.92-37.546667 81.92-81.92c0-44.373333-37.546667-81.92-81.92-81.92z m0 129.706667c-25.6 0-47.786667-22.186667-47.786667-47.786667s22.186667-47.786667 47.786667-47.786667 47.786667 22.186667 47.786666 47.786667-22.186667 47.786667-47.786666 47.786667zM641.706667 163.84000000000003c-44.373333 0-81.92 37.546667-81.92 81.92 0 44.373333 37.546667 81.92 81.92 81.92 44.373333 0 81.92-37.546667 81.92-81.92 0-44.373333-37.546667-81.92-81.92-81.92z m0 129.706667c-25.6 0-47.786667-22.186667-47.786667-47.786667s22.186667-47.786667 47.786667-47.786667 47.786667 22.186667 47.786666 47.786667-22.186667 47.786667-47.786666 47.786667zM445.696 434.0224l146.3808 69.7344 14.677333-30.8224-146.3808-69.7344zM448.2048 337.97119999999995l14.9504 30.685867 136.533333-66.56-14.9504-30.685867z"  horiz-adv-x="1024" />

    


  </font>
</defs>
</svg>
