<svg id="图层_1" data-name="图层 1" xmlns="http://www.w3.org/2000/svg" viewBox="0 0 116 116"><defs><style>.cls-1{fill:#1787dd;}.cls-2,.cls-3{fill:#fff;}.cls-2{opacity:0.4;}.cls-4{font-size:12px;fill:#fa5151;font-family:DFPOP3-W12-WINP-BF, DFPPOP3W12-B5;}</style></defs><title>分类图标</title><circle class="cls-1" cx="58" cy="58" r="58"/><circle class="cls-2" cx="74.5" cy="51.5" r="16.5"/><path class="cls-3" d="M88.5,87.11h-61a10,10,0,0,1-10-10V38.89a10,10,0,0,1,10-10h61a10,10,0,0,1,10,10V77.11A10,10,0,0,1,88.5,87.11Zm-61-54.21a6,6,0,0,0-6,6V77.11a6,6,0,0,0,6,6h61a6,6,0,0,0,6-6V38.89a6,6,0,0,0-6-6Z"/><rect class="cls-3" x="38" y="48" width="40" height="20" rx="10" ry="10"/><path class="cls-3" d="M40.49,49.16,23.13,31.81,20.3,34.64,37.75,52.08A11.12,11.12,0,0,1,40.49,49.16Z"/><path class="cls-3" d="M78.25,52.08,94.74,35.59l-2.83-2.83-16.4,16.4A11.12,11.12,0,0,1,78.25,52.08Z"/><path class="cls-3" d="M38.11,64.44,20.3,82.25l2.83,2.83L41,67.2A11.12,11.12,0,0,1,38.11,64.44Z"/><path class="cls-3" d="M75,67.2,91.91,84.12l2.83-2.83L77.89,64.44A11.12,11.12,0,0,1,75,67.2Z"/><text class="cls-4" transform="translate(46.36 61.61)">New</text></svg>