<svg id="图层_1" data-name="图层 1" xmlns="http://www.w3.org/2000/svg" viewBox="0 0 116 116"><defs><style>.cls-1{fill:#1787dd;}.cls-2{fill:#fff;opacity:0.4;}.cls-3{fill:none;stroke:#fff;stroke-miterlimit:10;stroke-width:4px;}.cls-4{fill:#fcf5f5;}.cls-5{fill:#fa5151;}</style></defs><title>分类图标</title><circle class="cls-1" cx="57.5" cy="58" r="58"/><circle class="cls-2" cx="74" cy="51.5" r="16.5"/><path class="cls-3" d="M92.46,38.71A8,8,0,0,1,96,45.34V83.55a8,8,0,0,1-8,8H27a8,8,0,0,1-8-8V45.34a8,8,0,0,1,3.54-6.63"/><line class="cls-3" x1="67.72" y1="64.05" x2="92.83" y2="89.15"/><line class="cls-3" x1="21.22" y1="90.11" x2="46.88" y2="64.45"/><path class="cls-3" d="M21.22,40l5.43-5.43a43.75,43.75,0,0,1,61.69,0l4.48,4.48"/><path class="cls-4" d="M80.12,23.84v30.9L57,73.45,33.93,54.54V23.84a5.59,5.59,0,0,1,5.73-5.39H74.38A5.59,5.59,0,0,1,80.12,23.84Z"/><path class="cls-3" d="M21.22,39.67,50.83,69.28a9.46,9.46,0,0,0,13.33,0L92.83,40.63"/><rect class="cls-5" x="39.5" y="26.95" width="20" height="4" rx="2" ry="2"/><rect class="cls-5" x="39.5" y="35.2" width="30" height="4" rx="1.86" ry="1.86"/><rect class="cls-5" x="39.5" y="43.45" width="34" height="4" rx="1.98" ry="1.98"/></svg>