<svg id="图层_1" data-name="图层 1" xmlns="http://www.w3.org/2000/svg" xmlns:xlink="http://www.w3.org/1999/xlink" viewBox="0 0 141 49"><defs><style>.cls-1{fill:none;}.cls-2{clip-path:url(#clip-path);}.cls-3{fill:#ebeaea;}.cls-4{fill:#eae9e9;}.cls-5{fill:#e9e8e8;}.cls-6{fill:#e8e7e7;}.cls-7{fill:#e7e6e6;}.cls-8{fill:#e6e5e5;}.cls-9{fill:#e5e4e4;}.cls-10{fill:#e4e3e3;}.cls-11{fill:#e3e2e2;}.cls-12{fill:#e2e1e1;}.cls-13{fill:#e1e0e0;}.cls-14{fill:#e0dfdf;}.cls-15{fill:#dfdede;}.cls-16{fill:#dedddd;}.cls-17{fill:#dddcdc;}.cls-18{fill:#dcdbdb;}.cls-19{fill:#dbdada;}.cls-20{fill:#dad9d9;}.cls-21{fill:#d9d8d8;}.cls-22{fill:#d8d7d7;}.cls-23{fill:#d7d6d6;}.cls-24{fill:#d6d5d5;}.cls-25{fill:#d5d4d4;}.cls-26{fill:#d4d3d3;}.cls-27{fill:#d3d2d2;}.cls-28{fill:#d2d1d1;}.cls-29{fill:#d1d0d0;}.cls-30{fill:#d0cfcf;}.cls-31{fill:#cfcece;}.cls-32{fill:#cecdcd;}.cls-33{fill:#cdcccc;}.cls-34{fill:#cccbcb;}.cls-35{fill:#cbcaca;}.cls-36{fill:#cac9c9;}.cls-37{fill:#c9c8c8;}.cls-38{fill:#c8c7c7;}.cls-39{fill:#c7c6c6;}.cls-40{fill:#c6c5c5;}.cls-41{fill:#c5c4c4;}.cls-42{fill:#c4c3c3;}.cls-43{fill:#c3c2c2;}.cls-44{fill:#c2c1c1;}.cls-45{fill:#c1c0c0;}.cls-46{fill:#c0bfbf;}.cls-47{fill:#bfbebe;}.cls-48{fill:#bebdbd;}.cls-49{fill:#bdbcbc;}.cls-50{fill:#bbb;}.cls-51{fill:#bababa;}.cls-52{fill:#b9b9b9;}.cls-53{fill:#b8b8b8;}.cls-54{fill:#b7b7b7;}.cls-55{fill:#b6b6b6;}.cls-56{fill:#b5b5b5;}.cls-57{fill:#b4b4b4;}.cls-58{fill:#b3b3b3;}.cls-59{fill:#b2b2b2;}.cls-60{fill:#b1b1b1;}.cls-61{fill:#b0b0b0;}.cls-62{fill:#afafaf;}.cls-63{fill:#aeaeae;}.cls-64{fill:#adadad;}.cls-65{fill:#acacac;}.cls-66{fill:#ababab;}.cls-67{fill:#aaa;}.cls-68{fill:#a9a9a9;}.cls-69{fill:#a8a8a8;}.cls-70{fill:#a7a7a7;}.cls-71{fill:#a6a6a6;}.cls-72{fill:#a5a5a5;}.cls-73{fill:#a4a4a4;}.cls-74{fill:#a3a3a3;}.cls-75{fill:#a2a2a2;}.cls-76{fill:#a1a1a1;}.cls-77{fill:#a0a0a0;}.cls-78{fill:#9f9f9f;}.cls-79{fill:#9e9e9e;}.cls-80{fill:#9d9d9d;}.cls-81{fill:#9c9c9c;}.cls-82{fill:#9b9b9b;}.cls-83{fill:#9a9a9a;}.cls-84{fill:#999;}.cls-85{fill:#989898;}.cls-86{fill:#979797;}.cls-87{fill:#969696;}.cls-88{fill:#959595;}.cls-89{fill:#949494;}.cls-90{fill:#939393;}.cls-91{fill:#929292;}.cls-92{fill:#919191;}.cls-93{fill:#909090;}.cls-94{fill:#8f8f8f;}.cls-95{fill:#8e8e8e;}.cls-96{fill:#bcbcbc;}.cls-97{fill:#bdbdbd;}.cls-98{fill:#bebebe;}.cls-99{fill:#bfbfbf;}.cls-100{fill:silver;}.cls-101{fill:#c1c1c1;}.cls-102{fill:#c2c2c2;}.cls-103{fill:#c3c3c3;}.cls-104{fill:#c4c4c4;}.cls-105{fill:#c5c5c5;}.cls-106{fill:#c6c6c6;}.cls-107{fill:#c7c7c7;}.cls-108{fill:#c8c8c8;}.cls-109{fill:#c9c9c9;}.cls-110{fill:#cacaca;}.cls-111{fill:#cbcbcb;}.cls-112{fill:#ccc;}.cls-113{fill:#cdcdcd;}.cls-114{fill:#cecece;}.cls-115{fill:#cfcfcf;}.cls-116{fill:#d0d0d0;}.cls-117{fill:#d1d1d1;}.cls-118{fill:#d2d2d2;}.cls-119{fill:#d3d3d3;}.cls-120{fill:#d4d4d4;}.cls-121{fill:#d5d5d5;}.cls-122{fill:#d6d6d6;}.cls-123{fill:#d7d7d7;}.cls-124{fill:#d8d8d8;}.cls-125{fill:#d9d9d9;}.cls-126{fill:#dadada;}.cls-127{fill:#dbdbdb;}.cls-128{fill:#dcdcdc;}.cls-129{fill:#ddd;}.cls-130{fill:#dedede;}.cls-131{fill:#dfdfdf;}.cls-132{fill:#e0e0e0;}.cls-133{fill:#e1e1e1;}.cls-134{fill:#e2e2e2;}.cls-135{fill:#e3e3e3;}.cls-136{fill:#e4e4e4;}.cls-137{fill:#e5e5e5;}.cls-138{fill:#e6e6e6;}.cls-139{fill:#e7e7e7;}.cls-140{fill:#e8e8e8;}.cls-141{fill:#e9e9e9;}.cls-142{fill:#eaeaea;}.cls-143{fill:#ebebeb;}.cls-144{fill:#ececec;}.cls-145{fill:#ededed;}.cls-146{fill:#eee;}.cls-147{fill:#efefef;}.cls-148{fill:#f0f0f0;}.cls-149{fill:#f1f1f1;}.cls-150{fill:#f2f2f2;}.cls-151{fill:#f3f3f3;}.cls-152{fill:#f4f4f4;}.cls-153{fill:#f5f5f5;}.cls-154{fill:#f6f6f6;}.cls-155{fill:#f7f7f7;}.cls-156{fill:#f8f8f8;}.cls-157{fill:gray;}</style><clipPath id="clip-path" transform="translate(-4.5 -2.5)"><path class="cls-1" d="M121,51.5H29a24.5,24.5,0,0,1,0-49h92a24.5,24.5,0,0,1,0,49ZM29,3.5a23.5,23.5,0,0,0,0,47h92a23.5,23.5,0,0,0,0-47Z"/></clipPath></defs><title>返回按钮（英）</title><g class="cls-2"><polygon class="cls-3" points="1 32.79 9.78 48 1 48 1 32.79"/><polygon class="cls-3" points="1 32.1 10.18 48 9.78 48 1 32.79 1 32.1"/><polygon class="cls-4" points="1 31.4 10.58 48 10.18 48 1 32.1 1 31.4"/><polygon class="cls-5" points="1 30.71 10.98 48 10.58 48 1 31.4 1 30.71"/><polygon class="cls-6" points="1 30.02 11.38 48 10.98 48 1 30.71 1 30.02"/><polygon class="cls-7" points="1 29.33 11.78 48 11.38 48 1 30.02 1 29.33"/><polygon class="cls-8" points="1 28.64 12.18 48 11.78 48 1 29.33 1 28.64"/><polygon class="cls-9" points="1 27.95 12.58 48 12.18 48 1 28.64 1 27.95"/><polygon class="cls-10" points="1 27.25 12.98 48 12.58 48 1 27.95 1 27.25"/><polygon class="cls-11" points="1 26.56 13.38 48 12.98 48 1 27.25 1 26.56"/><polygon class="cls-12" points="1 25.87 13.78 48 13.38 48 1 26.56 1 25.87"/><polygon class="cls-13" points="1 25.18 14.18 48 13.78 48 1 25.87 1 25.18"/><polygon class="cls-14" points="1 24.49 14.58 48 14.18 48 1 25.18 1 24.49"/><polygon class="cls-15" points="1 23.8 14.97 48 14.58 48 1 24.49 1 23.8"/><polygon class="cls-16" points="1 23.1 15.37 48 14.97 48 1 23.8 1 23.1"/><polygon class="cls-17" points="1 22.41 15.77 48 15.37 48 1 23.1 1 22.41"/><polygon class="cls-18" points="1 21.72 16.17 48 15.77 48 1 22.41 1 21.72"/><polygon class="cls-19" points="1 21.03 16.57 48 16.17 48 1 21.72 1 21.03"/><polygon class="cls-20" points="1 20.34 16.97 48 16.57 48 1 21.03 1 20.34"/><polygon class="cls-21" points="1 19.64 17.37 48 16.97 48 1 20.34 1 19.64"/><polygon class="cls-22" points="1 18.95 17.77 48 17.37 48 1 19.64 1 18.95"/><polygon class="cls-23" points="1 18.26 18.17 48 17.77 48 1 18.95 1 18.26"/><polygon class="cls-24" points="1 17.57 18.57 48 18.17 48 1 18.26 1 17.57"/><polygon class="cls-25" points="1 16.88 18.97 48 18.57 48 1 17.57 1 16.88"/><polygon class="cls-26" points="1 16.18 19.37 48 18.97 48 1 16.88 1 16.18"/><polygon class="cls-27" points="1 15.49 19.77 48 19.37 48 1 16.18 1 15.49"/><polygon class="cls-28" points="1 14.8 20.17 48 19.77 48 1 15.49 1 14.8"/><polygon class="cls-29" points="1 14.11 20.57 48 20.17 48 1 14.8 1 14.11"/><polygon class="cls-30" points="1 13.42 20.97 48 20.57 48 1 14.11 1 13.42"/><polygon class="cls-31" points="1 12.73 21.36 48 20.97 48 1 13.42 1 12.73"/><polygon class="cls-32" points="1 12.04 21.76 48 21.36 48 1 12.73 1 12.04"/><polygon class="cls-33" points="1 11.34 22.16 48 21.76 48 1 12.04 1 11.34"/><polygon class="cls-34" points="1 10.65 22.56 48 22.16 48 1 11.34 1 10.65"/><polygon class="cls-35" points="1 9.96 22.96 48 22.56 48 1 10.65 1 9.96"/><polygon class="cls-36" points="1 9.27 23.36 48 22.96 48 1 9.96 1 9.27"/><polygon class="cls-37" points="1 8.58 23.76 48 23.36 48 1 9.27 1 8.58"/><polygon class="cls-38" points="1 7.88 24.16 48 23.76 48 1 8.58 1 7.88"/><polygon class="cls-39" points="1 7.19 24.56 48 24.16 48 1 7.88 1 7.19"/><polygon class="cls-40" points="1 6.5 24.96 48 24.56 48 1 7.19 1 6.5"/><polygon class="cls-41" points="1 5.81 25.36 48 24.96 48 1 6.5 1 5.81"/><polygon class="cls-42" points="1 5.12 25.76 48 25.36 48 1 5.81 1 5.12"/><polygon class="cls-43" points="1 4.78 1.15 4.69 26.16 48 25.76 48 1 5.12 1 4.78"/><polygon class="cls-44" points="1.15 4.69 1.45 4.52 26.56 48 26.16 48 1.15 4.69"/><polygon class="cls-45" points="1.45 4.52 1.75 4.34 26.96 48 26.56 48 1.45 4.52"/><polygon class="cls-46" points="1.75 4.34 2.05 4.17 27.36 48 26.96 48 1.75 4.34"/><polygon class="cls-47" points="2.05 4.17 2.35 4 27.75 48 27.36 48 2.05 4.17"/><polygon class="cls-48" points="2.35 4 2.65 3.83 28.16 48 27.75 48 2.35 4"/><polygon class="cls-49" points="2.65 3.83 2.95 3.65 28.55 48 28.16 48 2.65 3.83"/><polygon class="cls-50" points="2.95 3.65 3.25 3.48 28.95 48 28.55 48 2.95 3.65"/><polygon class="cls-51" points="3.25 3.48 3.55 3.31 29.35 48 28.95 48 3.25 3.48"/><polygon class="cls-52" points="3.55 3.31 3.85 3.13 29.75 48 29.35 48 3.55 3.31"/><polygon class="cls-53" points="3.85 3.13 4.15 2.96 30.15 48 29.75 48 3.85 3.13"/><polygon class="cls-54" points="4.15 2.96 4.45 2.79 30.55 48 30.15 48 4.15 2.96"/><polygon class="cls-55" points="4.45 2.79 4.75 2.61 30.95 48 30.55 48 4.45 2.79"/><polygon class="cls-56" points="4.75 2.61 5.05 2.44 31.35 48 30.95 48 4.75 2.61"/><polygon class="cls-57" points="5.05 2.44 5.35 2.27 31.75 48 31.35 48 5.05 2.44"/><polygon class="cls-58" points="5.35 2.27 5.64 2.1 32.15 48 31.75 48 5.35 2.27"/><polygon class="cls-59" points="5.64 2.1 5.95 1.92 32.55 48 32.15 48 5.64 2.1"/><polygon class="cls-60" points="5.95 1.92 6.24 1.75 32.95 48 32.55 48 5.95 1.92"/><polygon class="cls-61" points="6.24 1.75 6.54 1.58 33.35 48 32.95 48 6.24 1.75"/><polygon class="cls-62" points="6.54 1.58 6.84 1.4 33.75 48 33.35 48 6.54 1.58"/><polygon class="cls-63" points="6.84 1.4 7.14 1.23 34.15 48 33.75 48 6.84 1.4"/><polygon class="cls-64" points="7.14 1.23 7.44 1.06 34.55 48 34.15 48 7.14 1.23"/><polygon class="cls-65" points="7.44 1.06 7.54 1 7.81 1 34.94 48 34.55 48 7.44 1.06"/><polygon class="cls-66" points="8.21 1 35.34 48 34.94 48 7.81 1 8.21 1"/><polygon class="cls-67" points="8.61 1 35.74 48 35.34 48 8.21 1 8.61 1"/><polygon class="cls-68" points="9.01 1 36.14 48 35.74 48 8.61 1 9.01 1"/><polygon class="cls-69" points="9.41 1 36.54 48 36.14 48 9.01 1 9.41 1"/><polygon class="cls-70" points="9.8 1 36.94 48 36.54 48 9.41 1 9.8 1"/><polygon class="cls-71" points="10.21 1 37.34 48 36.94 48 9.8 1 10.21 1"/><polygon class="cls-72" points="10.6 1 37.74 48 37.34 48 10.21 1 10.6 1"/><polygon class="cls-73" points="11 1 38.14 48 37.74 48 10.6 1 11 1"/><polygon class="cls-74" points="11.4 1 38.54 48 38.14 48 11 1 11.4 1"/><polygon class="cls-75" points="11.8 1 38.94 48 38.54 48 11.4 1 11.8 1"/><polygon class="cls-76" points="12.2 1 39.34 48 38.94 48 11.8 1 12.2 1"/><polygon class="cls-77" points="12.6 1 39.74 48 39.34 48 12.2 1 12.6 1"/><polygon class="cls-78" points="13 1 40.14 48 39.74 48 12.6 1 13 1"/><polygon class="cls-79" points="13.4 1 40.53 48 40.14 48 13 1 13.4 1"/><polygon class="cls-80" points="13.8 1 40.94 48 40.53 48 13.4 1 13.8 1"/><polygon class="cls-81" points="14.2 1 41.33 48 40.94 48 13.8 1 14.2 1"/><polygon class="cls-82" points="14.6 1 41.73 48 41.33 48 14.2 1 14.6 1"/><polygon class="cls-83" points="15 1 42.13 48 41.73 48 14.6 1 15 1"/><polygon class="cls-84" points="15.4 1 42.53 48 42.13 48 15 1 15.4 1"/><polygon class="cls-85" points="15.8 1 42.93 48 42.53 48 15.4 1 15.8 1"/><polygon class="cls-86" points="16.2 1 43.33 48 42.93 48 15.8 1 16.2 1"/><polygon class="cls-87" points="16.59 1 43.73 48 43.33 48 16.2 1 16.59 1"/><polygon class="cls-88" points="16.99 1 44.13 48 43.73 48 16.59 1 16.99 1"/><polygon class="cls-89" points="17.39 1 44.53 48 44.13 48 16.99 1 17.39 1"/><polygon class="cls-90" points="17.79 1 44.93 48 44.53 48 17.39 1 17.79 1"/><polygon class="cls-91" points="18.19 1 45.33 48 44.93 48 17.79 1 18.19 1"/><polygon class="cls-92" points="18.59 1 45.73 48 45.33 48 18.19 1 18.59 1"/><polygon class="cls-93" points="18.99 1 46.13 48 45.73 48 18.59 1 18.99 1"/><polygon class="cls-94" points="19.39 1 46.53 48 46.13 48 18.99 1 19.39 1"/><polygon class="cls-95" points="19.79 1 46.92 48 46.53 48 19.39 1 19.79 1"/><polygon class="cls-95" points="20.23 1 47.37 48 46.92 48 19.79 1 20.23 1"/><polygon class="cls-94" points="20.67 1 47.81 48 47.37 48 20.23 1 20.67 1"/><polygon class="cls-93" points="21.12 1 48.25 48 47.81 48 20.67 1 21.12 1"/><polygon class="cls-92" points="21.56 1 48.69 48 48.25 48 21.12 1 21.56 1"/><polygon class="cls-91" points="22 1 49.14 48 48.69 48 21.56 1 22 1"/><polygon class="cls-90" points="22.44 1 49.58 48 49.14 48 22 1 22.44 1"/><polygon class="cls-89" points="22.89 1 50.02 48 49.58 48 22.44 1 22.89 1"/><polygon class="cls-88" points="23.33 1 50.46 48 50.02 48 22.89 1 23.33 1"/><polygon class="cls-87" points="23.77 1 50.91 48 50.46 48 23.33 1 23.77 1"/><polygon class="cls-86" points="24.21 1 51.35 48 50.91 48 23.77 1 24.21 1"/><polygon class="cls-85" points="24.65 1 51.79 48 51.35 48 24.21 1 24.65 1"/><polygon class="cls-84" points="25.1 1 52.23 48 51.79 48 24.65 1 25.1 1"/><polygon class="cls-83" points="25.54 1 52.67 48 52.23 48 25.1 1 25.54 1"/><polygon class="cls-82" points="25.98 1 53.12 48 52.67 48 25.54 1 25.98 1"/><polygon class="cls-81" points="26.42 1 53.56 48 53.12 48 25.98 1 26.42 1"/><polygon class="cls-80" points="26.86 1 54 48 53.56 48 26.42 1 26.86 1"/><polygon class="cls-79" points="27.31 1 54.44 48 54 48 26.86 1 27.31 1"/><polygon class="cls-78" points="27.75 1 54.88 48 54.44 48 27.31 1 27.75 1"/><polygon class="cls-77" points="28.19 1 55.33 48 54.88 48 27.75 1 28.19 1"/><polygon class="cls-76" points="28.63 1 55.77 48 55.33 48 28.19 1 28.63 1"/><polygon class="cls-75" points="29.08 1 56.21 48 55.77 48 28.63 1 29.08 1"/><polygon class="cls-74" points="29.52 1 56.65 48 56.21 48 29.08 1 29.52 1"/><polygon class="cls-73" points="29.96 1 57.09 48 56.65 48 29.52 1 29.96 1"/><polygon class="cls-72" points="30.4 1 57.54 48 57.09 48 29.96 1 30.4 1"/><polygon class="cls-71" points="30.84 1 57.98 48 57.54 48 30.4 1 30.84 1"/><polygon class="cls-70" points="31.29 1 58.42 48 57.98 48 30.84 1 31.29 1"/><polygon class="cls-69" points="31.73 1 58.86 48 58.42 48 31.29 1 31.73 1"/><polygon class="cls-68" points="32.17 1 59.31 48 58.86 48 31.73 1 32.17 1"/><polygon class="cls-67" points="32.61 1 59.75 48 59.31 48 32.17 1 32.61 1"/><polygon class="cls-66" points="33.05 1 60.19 48 59.75 48 32.61 1 33.05 1"/><polygon class="cls-65" points="33.5 1 60.63 48 60.19 48 33.05 1 33.5 1"/><polygon class="cls-64" points="33.94 1 61.08 48 60.63 48 33.5 1 33.94 1"/><polygon class="cls-63" points="34.38 1 61.52 48 61.08 48 33.94 1 34.38 1"/><polygon class="cls-62" points="34.82 1 61.96 48 61.52 48 34.38 1 34.82 1"/><polygon class="cls-61" points="35.27 1 62.4 48 61.96 48 34.82 1 35.27 1"/><polygon class="cls-60" points="35.71 1 62.84 48 62.4 48 35.27 1 35.71 1"/><polygon class="cls-59" points="36.15 1 63.29 48 62.84 48 35.71 1 36.15 1"/><polygon class="cls-58" points="36.59 1 63.73 48 63.29 48 36.15 1 36.59 1"/><polygon class="cls-57" points="37.03 1 64.17 48 63.73 48 36.59 1 37.03 1"/><polygon class="cls-56" points="37.48 1 64.61 48 64.17 48 37.03 1 37.48 1"/><polygon class="cls-55" points="37.92 1 65.05 48 64.61 48 37.48 1 37.92 1"/><polygon class="cls-54" points="38.36 1 65.5 48 65.05 48 37.92 1 38.36 1"/><polygon class="cls-52" points="38.8 1 65.94 48 65.5 48 38.36 1 38.8 1"/><polygon class="cls-51" points="39.24 1 66.38 48 65.94 48 38.8 1 39.24 1"/><polygon class="cls-50" points="39.69 1 66.82 48 66.38 48 39.24 1 39.69 1"/><polygon class="cls-96" points="40.13 1 67.27 48 66.82 48 39.69 1 40.13 1"/><polygon class="cls-97" points="40.57 1 67.71 48 67.27 48 40.13 1 40.57 1"/><polygon class="cls-98" points="41.01 1 68.15 48 67.71 48 40.57 1 41.01 1"/><polygon class="cls-99" points="41.46 1 68.59 48 68.15 48 41.01 1 41.46 1"/><polygon class="cls-100" points="41.9 1 69.03 48 68.59 48 41.46 1 41.9 1"/><polygon class="cls-101" points="42.34 1 69.48 48 69.03 48 41.9 1 42.34 1"/><polygon class="cls-102" points="42.78 1 69.92 48 69.48 48 42.34 1 42.78 1"/><polygon class="cls-103" points="43.23 1 70.36 48 69.92 48 42.78 1 43.23 1"/><polygon class="cls-104" points="43.67 1 70.8 48 70.36 48 43.23 1 43.67 1"/><polygon class="cls-105" points="44.11 1 71.25 48 70.8 48 43.67 1 44.11 1"/><polygon class="cls-106" points="44.55 1 71.69 48 71.25 48 44.11 1 44.55 1"/><polygon class="cls-107" points="44.99 1 72.13 48 71.69 48 44.55 1 44.99 1"/><polygon class="cls-108" points="45.44 1 72.57 48 72.13 48 44.99 1 45.44 1"/><polygon class="cls-109" points="45.88 1 73.01 48 72.57 48 45.44 1 45.88 1"/><polygon class="cls-110" points="46.32 1 73.46 48 73.01 48 45.88 1 46.32 1"/><polygon class="cls-111" points="46.76 1 73.9 48 73.46 48 46.32 1 46.76 1"/><polygon class="cls-112" points="47.2 1 74.34 48 73.9 48 46.76 1 47.2 1"/><polygon class="cls-113" points="47.65 1 74.78 48 74.34 48 47.2 1 47.65 1"/><polygon class="cls-114" points="48.09 1 75.22 48 74.78 48 47.65 1 48.09 1"/><polygon class="cls-115" points="48.53 1 75.67 48 75.22 48 48.09 1 48.53 1"/><polygon class="cls-116" points="48.97 1 76.11 48 75.67 48 48.53 1 48.97 1"/><polygon class="cls-117" points="49.41 1 76.55 48 76.11 48 48.97 1 49.41 1"/><polygon class="cls-118" points="49.86 1 76.99 48 76.55 48 49.41 1 49.86 1"/><polygon class="cls-119" points="50.3 1 77.44 48 76.99 48 49.86 1 50.3 1"/><polygon class="cls-120" points="50.74 1 77.88 48 77.44 48 50.3 1 50.74 1"/><polygon class="cls-121" points="51.18 1 78.32 48 77.88 48 50.74 1 51.18 1"/><polygon class="cls-122" points="51.63 1 78.76 48 78.32 48 51.18 1 51.63 1"/><polygon class="cls-123" points="52.07 1 79.2 48 78.76 48 51.63 1 52.07 1"/><polygon class="cls-124" points="52.51 1 79.65 48 79.2 48 52.07 1 52.51 1"/><polygon class="cls-125" points="52.95 1 80.09 48 79.65 48 52.51 1 52.95 1"/><polygon class="cls-126" points="53.4 1 80.53 48 80.09 48 52.95 1 53.4 1"/><polygon class="cls-127" points="53.84 1 80.97 48 80.53 48 53.4 1 53.84 1"/><polygon class="cls-128" points="54.28 1 81.42 48 80.97 48 53.84 1 54.28 1"/><polygon class="cls-129" points="54.72 1 81.86 48 81.42 48 54.28 1 54.72 1"/><polygon class="cls-130" points="55.16 1 82.3 48 81.86 48 54.72 1 55.16 1"/><polygon class="cls-131" points="55.61 1 82.74 48 82.3 48 55.16 1 55.61 1"/><polygon class="cls-132" points="56.05 1 83.18 48 82.74 48 55.61 1 56.05 1"/><polygon class="cls-133" points="56.49 1 83.63 48 83.18 48 56.05 1 56.49 1"/><polygon class="cls-134" points="56.93 1 84.07 48 83.63 48 56.49 1 56.93 1"/><polygon class="cls-134" points="57.37 1 84.51 48 84.07 48 56.93 1 57.37 1"/><polygon class="cls-133" points="57.82 1 84.95 48 84.51 48 57.37 1 57.82 1"/><polygon class="cls-132" points="58.26 1 85.39 48 84.95 48 57.82 1 58.26 1"/><polygon class="cls-131" points="58.7 1 85.84 48 85.39 48 58.26 1 58.7 1"/><polygon class="cls-130" points="59.14 1 86.28 48 85.84 48 58.7 1 59.14 1"/><polygon class="cls-129" points="59.59 1 86.72 48 86.28 48 59.14 1 59.59 1"/><polygon class="cls-128" points="60.03 1 87.16 48 86.72 48 59.59 1 60.03 1"/><polygon class="cls-127" points="60.47 1 87.61 48 87.16 48 60.03 1 60.47 1"/><polygon class="cls-126" points="60.91 1 88.05 48 87.61 48 60.47 1 60.91 1"/><polygon class="cls-125" points="61.35 1 88.49 48 88.05 48 60.91 1 61.35 1"/><polygon class="cls-124" points="61.8 1 88.93 48 88.49 48 61.35 1 61.8 1"/><polygon class="cls-123" points="62.24 1 89.37 48 88.93 48 61.8 1 62.24 1"/><polygon class="cls-122" points="62.68 1 89.82 48 89.37 48 62.24 1 62.68 1"/><polygon class="cls-121" points="63.12 1 90.26 48 89.82 48 62.68 1 63.12 1"/><polygon class="cls-120" points="63.56 1 90.7 48 90.26 48 63.12 1 63.56 1"/><polygon class="cls-119" points="64.01 1 91.14 48 90.7 48 63.56 1 64.01 1"/><polygon class="cls-118" points="64.45 1 91.58 48 91.14 48 64.01 1 64.45 1"/><polygon class="cls-117" points="64.89 1 92.03 48 91.58 48 64.45 1 64.89 1"/><polygon class="cls-116" points="65.33 1 92.47 48 92.03 48 64.89 1 65.33 1"/><polygon class="cls-115" points="65.78 1 92.91 48 92.47 48 65.33 1 65.78 1"/><polygon class="cls-114" points="66.22 1 93.35 48 92.91 48 65.78 1 66.22 1"/><polygon class="cls-113" points="66.66 1 93.8 48 93.35 48 66.22 1 66.66 1"/><polygon class="cls-112" points="67.1 1 94.24 48 93.8 48 66.66 1 67.1 1"/><polygon class="cls-111" points="67.54 1 94.68 48 94.24 48 67.1 1 67.54 1"/><polygon class="cls-110" points="67.99 1 95.12 48 94.68 48 67.54 1 67.99 1"/><polygon class="cls-109" points="68.43 1 95.56 48 95.12 48 67.99 1 68.43 1"/><polygon class="cls-108" points="68.87 1 96.01 48 95.56 48 68.43 1 68.87 1"/><polygon class="cls-107" points="69.31 1 96.45 48 96.01 48 68.87 1 69.31 1"/><polygon class="cls-106" points="69.75 1 96.89 48 96.45 48 69.31 1 69.75 1"/><polygon class="cls-105" points="70.2 1 97.33 48 96.89 48 69.75 1 70.2 1"/><polygon class="cls-104" points="70.64 1 97.78 48 97.33 48 70.2 1 70.64 1"/><polygon class="cls-103" points="71.08 1 98.22 48 97.78 48 70.64 1 71.08 1"/><polygon class="cls-102" points="71.52 1 98.66 48 98.22 48 71.08 1 71.52 1"/><polygon class="cls-101" points="71.97 1 99.1 48 98.66 48 71.52 1 71.97 1"/><polygon class="cls-100" points="72.41 1 99.54 48 99.1 48 71.97 1 72.41 1"/><polygon class="cls-99" points="72.85 1 99.99 48 99.54 48 72.41 1 72.85 1"/><polygon class="cls-98" points="73.29 1 100.43 48 99.99 48 72.85 1 73.29 1"/><polygon class="cls-97" points="73.73 1 100.87 48 100.43 48 73.29 1 73.73 1"/><polygon class="cls-96" points="74.18 1 101.31 48 100.87 48 73.73 1 74.18 1"/><polygon class="cls-50" points="74.62 1 101.75 48 101.31 48 74.18 1 74.62 1"/><polygon class="cls-51" points="75.06 1 102.2 48 101.75 48 74.62 1 75.06 1"/><polygon class="cls-52" points="75.5 1 102.64 48 102.2 48 75.06 1 75.5 1"/><polygon class="cls-54" points="75.95 1 103.08 48 102.64 48 75.5 1 75.95 1"/><polygon class="cls-55" points="76.39 1 103.52 48 103.08 48 75.95 1 76.39 1"/><polygon class="cls-56" points="76.83 1 103.97 48 103.52 48 76.39 1 76.83 1"/><polygon class="cls-57" points="77.27 1 104.41 48 103.97 48 76.83 1 77.27 1"/><polygon class="cls-58" points="77.71 1 104.85 48 104.41 48 77.27 1 77.71 1"/><polygon class="cls-59" points="78.16 1 105.29 48 104.85 48 77.71 1 78.16 1"/><polygon class="cls-60" points="78.6 1 105.73 48 105.29 48 78.16 1 78.6 1"/><polygon class="cls-61" points="79.04 1 106.18 48 105.73 48 78.6 1 79.04 1"/><polygon class="cls-62" points="79.48 1 106.62 48 106.18 48 79.04 1 79.48 1"/><polygon class="cls-63" points="79.92 1 107.06 48 106.62 48 79.48 1 79.92 1"/><polygon class="cls-64" points="80.37 1 107.5 48 107.06 48 79.92 1 80.37 1"/><polygon class="cls-65" points="80.81 1 107.94 48 107.5 48 80.37 1 80.81 1"/><polygon class="cls-66" points="81.25 1 108.39 48 107.94 48 80.81 1 81.25 1"/><polygon class="cls-67" points="81.69 1 108.83 48 108.39 48 81.25 1 81.69 1"/><polygon class="cls-68" points="82.14 1 109.27 48 108.83 48 81.69 1 82.14 1"/><polygon class="cls-69" points="82.58 1 109.71 48 109.27 48 82.14 1 82.58 1"/><polygon class="cls-70" points="83.02 1 110.16 48 109.71 48 82.58 1 83.02 1"/><polygon class="cls-71" points="83.46 1 110.6 48 110.16 48 83.02 1 83.46 1"/><polygon class="cls-72" points="83.91 1 111.04 48 110.6 48 83.46 1 83.91 1"/><polygon class="cls-73" points="84.35 1 111.48 48 111.04 48 83.91 1 84.35 1"/><polygon class="cls-74" points="84.79 1 111.92 48 111.48 48 84.35 1 84.79 1"/><polygon class="cls-75" points="85.23 1 112.37 48 111.92 48 84.79 1 85.23 1"/><polygon class="cls-76" points="85.67 1 112.81 48 112.37 48 85.23 1 85.67 1"/><polygon class="cls-77" points="86.12 1 113.25 48 112.81 48 85.67 1 86.12 1"/><polygon class="cls-78" points="86.56 1 113.69 48 113.25 48 86.12 1 86.56 1"/><polygon class="cls-79" points="87 1 114.14 48 113.69 48 86.56 1 87 1"/><polygon class="cls-80" points="87.44 1 114.58 48 114.14 48 87 1 87.44 1"/><polygon class="cls-81" points="87.88 1 115.02 48 114.58 48 87.44 1 87.88 1"/><polygon class="cls-82" points="88.33 1 115.46 48 115.02 48 87.88 1 88.33 1"/><polygon class="cls-83" points="88.77 1 115.9 48 115.46 48 88.33 1 88.77 1"/><polygon class="cls-84" points="89.21 1 116.35 48 115.9 48 88.77 1 89.21 1"/><polygon class="cls-85" points="89.65 1 116.79 48 116.35 48 89.21 1 89.65 1"/><polygon class="cls-86" points="90.09 1 117.23 48 116.79 48 89.65 1 90.09 1"/><polygon class="cls-87" points="90.54 1 117.67 48 117.23 48 90.09 1 90.54 1"/><polygon class="cls-88" points="90.98 1 118.11 48 117.67 48 90.54 1 90.98 1"/><polygon class="cls-89" points="91.42 1 118.56 48 118.11 48 90.98 1 91.42 1"/><polygon class="cls-90" points="91.86 1 119 48 118.56 48 91.42 1 91.86 1"/><polygon class="cls-91" points="92.31 1 119.44 48 119 48 91.86 1 92.31 1"/><polygon class="cls-92" points="92.75 1 119.88 48 119.44 48 92.31 1 92.75 1"/><polygon class="cls-93" points="93.19 1 120.33 48 119.88 48 92.75 1 93.19 1"/><polygon class="cls-94" points="93.63 1 120.77 48 120.33 48 93.19 1 93.63 1"/><polygon class="cls-95" points="94.08 1 121.21 48 120.77 48 93.63 1 94.08 1"/><polygon class="cls-95" points="94.42 1 121.56 48 121.21 48 94.08 1 94.42 1"/><polygon class="cls-94" points="94.78 1 121.91 48 121.56 48 94.42 1 94.78 1"/><polygon class="cls-93" points="95.13 1 122.26 48 121.91 48 94.78 1 95.13 1"/><polygon class="cls-92" points="95.48 1 122.61 48 122.26 48 95.13 1 95.48 1"/><polygon class="cls-91" points="95.83 1 122.96 48 122.61 48 95.48 1 95.83 1"/><polygon class="cls-90" points="96.18 1 123.31 48 122.96 48 95.83 1 96.18 1"/><polygon class="cls-89" points="96.53 1 123.66 48 123.31 48 96.18 1 96.53 1"/><polygon class="cls-88" points="96.88 1 124.01 48 123.66 48 96.53 1 96.88 1"/><polygon class="cls-87" points="97.23 1 124.36 48 124.01 48 96.88 1 97.23 1"/><polygon class="cls-86" points="97.58 1 124.71 48 124.36 48 97.23 1 97.58 1"/><polygon class="cls-85" points="97.93 1 125.06 48 124.71 48 97.58 1 97.93 1"/><polygon class="cls-84" points="98.28 1 125.42 48 125.06 48 97.93 1 98.28 1"/><polygon class="cls-83" points="98.63 1 125.77 48 125.42 48 98.28 1 98.63 1"/><polygon class="cls-82" points="98.98 1 126.12 48 125.77 48 98.63 1 98.98 1"/><polygon class="cls-81" points="99.33 1 126.47 48 126.12 48 98.98 1 99.33 1"/><polygon class="cls-80" points="99.68 1 126.82 48 126.47 48 99.33 1 99.68 1"/><polygon class="cls-79" points="100.03 1 127.17 48 126.82 48 99.68 1 100.03 1"/><polygon class="cls-78" points="100.38 1 127.52 48 127.17 48 100.03 1 100.38 1"/><polygon class="cls-77" points="100.73 1 127.87 48 127.52 48 100.38 1 100.73 1"/><polygon class="cls-76" points="101.08 1 128.22 48 127.87 48 100.73 1 101.08 1"/><polygon class="cls-75" points="101.43 1 128.57 48 128.22 48 101.08 1 101.43 1"/><polygon class="cls-74" points="101.78 1 128.92 48 128.57 48 101.43 1 101.78 1"/><polygon class="cls-73" points="102.13 1 129.27 48 128.92 48 101.78 1 102.13 1"/><polygon class="cls-72" points="102.48 1 129.62 48 129.27 48 102.13 1 102.48 1"/><polygon class="cls-71" points="102.83 1 129.97 48 129.62 48 102.48 1 102.83 1"/><polygon class="cls-70" points="103.19 1 130.32 48 129.97 48 102.83 1 103.19 1"/><polygon class="cls-69" points="103.54 1 130.67 48 130.32 48 103.19 1 103.54 1"/><polygon class="cls-68" points="103.89 1 131.02 48 130.67 48 103.54 1 103.89 1"/><polygon class="cls-67" points="104.24 1 131.37 48 131.02 48 103.89 1 104.24 1"/><polygon class="cls-66" points="104.59 1 131.72 48 131.37 48 104.24 1 104.59 1"/><polygon class="cls-65" points="104.94 1 132.07 48 131.72 48 104.59 1 104.94 1"/><polygon class="cls-64" points="105.29 1 132.42 48 132.07 48 104.94 1 105.29 1"/><polygon class="cls-63" points="105.64 1 132.77 48 132.42 48 105.29 1 105.64 1"/><polygon class="cls-62" points="105.99 1 133.12 48 132.77 48 105.64 1 105.99 1"/><polygon class="cls-61" points="106.34 1 133.47 47.99 133.46 48 133.12 48 105.99 1 106.34 1"/><polygon class="cls-60" points="106.69 1 133.73 47.84 133.47 47.99 106.34 1 106.69 1"/><polygon class="cls-59" points="107.04 1 134 47.69 133.73 47.84 106.69 1 107.04 1"/><polygon class="cls-58" points="107.39 1 134.26 47.54 134 47.69 107.04 1 107.39 1"/><polygon class="cls-57" points="107.74 1 134.52 47.39 134.26 47.54 107.39 1 107.74 1"/><polygon class="cls-56" points="108.09 1 134.78 47.23 134.52 47.39 107.74 1 108.09 1"/><polygon class="cls-55" points="108.44 1 135.05 47.08 134.78 47.23 108.09 1 108.44 1"/><polygon class="cls-54" points="108.79 1 135.31 46.93 135.05 47.08 108.44 1 108.79 1"/><polygon class="cls-53" points="109.14 1 135.57 46.78 135.31 46.93 108.79 1 109.14 1"/><polygon class="cls-52" points="109.49 1 135.84 46.63 135.57 46.78 109.14 1 109.49 1"/><polygon class="cls-51" points="109.84 1 136.1 46.48 135.84 46.63 109.49 1 109.84 1"/><polygon class="cls-50" points="110.19 1 136.36 46.32 136.1 46.48 109.84 1 110.19 1"/><polygon class="cls-96" points="110.54 1 136.62 46.17 136.36 46.32 110.19 1 110.54 1"/><polygon class="cls-97" points="110.89 1 136.89 46.02 136.62 46.17 110.54 1 110.89 1"/><polygon class="cls-98" points="111.24 1 137.15 45.87 136.89 46.02 110.89 1 111.24 1"/><polygon class="cls-99" points="111.59 1 137.41 45.72 137.15 45.87 111.24 1 111.59 1"/><polygon class="cls-100" points="111.94 1 137.68 45.56 137.41 45.72 111.59 1 111.94 1"/><polygon class="cls-101" points="112.3 1 137.94 45.41 137.68 45.56 111.94 1 112.3 1"/><polygon class="cls-102" points="112.65 1 138.2 45.26 137.94 45.41 112.3 1 112.65 1"/><polygon class="cls-104" points="113 1 138.46 45.11 138.2 45.26 112.65 1 113 1"/><polygon class="cls-105" points="113.35 1 138.73 44.96 138.46 45.11 113 1 113.35 1"/><polygon class="cls-106" points="113.7 1 138.99 44.81 138.73 44.96 113.35 1 113.7 1"/><polygon class="cls-107" points="114.05 1 139.25 44.66 138.99 44.81 113.7 1 114.05 1"/><polygon class="cls-108" points="114.4 1 139.51 44.5 139.25 44.66 114.05 1 114.4 1"/><polygon class="cls-109" points="114.75 1 139.78 44.35 139.51 44.5 114.4 1 114.75 1"/><polygon class="cls-110" points="115.1 1 140 44.13 140 44.22 139.78 44.35 114.75 1 115.1 1"/><polygon class="cls-111" points="115.45 1 140 43.52 140 44.13 115.1 1 115.45 1"/><polygon class="cls-112" points="115.8 1 140 42.92 140 43.52 115.45 1 115.8 1"/><polygon class="cls-113" points="116.15 1 140 42.31 140 42.92 115.8 1 116.15 1"/><polygon class="cls-114" points="116.5 1 140 41.7 140 42.31 116.15 1 116.5 1"/><polygon class="cls-115" points="116.85 1 140 41.1 140 41.7 116.5 1 116.85 1"/><polygon class="cls-116" points="117.2 1 140 40.49 140 41.1 116.85 1 117.2 1"/><polygon class="cls-117" points="117.55 1 140 39.88 140 40.49 117.2 1 117.55 1"/><polygon class="cls-118" points="117.9 1 140 39.27 140 39.88 117.55 1 117.9 1"/><polygon class="cls-119" points="118.25 1 140 38.67 140 39.27 117.9 1 118.25 1"/><polygon class="cls-120" points="118.6 1 140 38.06 140 38.67 118.25 1 118.6 1"/><polygon class="cls-121" points="118.95 1 140 37.45 140 38.06 118.6 1 118.95 1"/><polygon class="cls-122" points="119.3 1 140 36.85 140 37.45 118.95 1 119.3 1"/><polygon class="cls-123" points="119.65 1 140 36.24 140 36.85 119.3 1 119.65 1"/><polygon class="cls-124" points="120 1 140 35.63 140 36.24 119.65 1 120 1"/><polygon class="cls-125" points="120.36 1 140 35.03 140 35.63 120 1 120.36 1"/><polygon class="cls-126" points="120.7 1 140 34.42 140 35.03 120.36 1 120.7 1"/><polygon class="cls-127" points="121.06 1 140 33.81 140 34.42 120.7 1 121.06 1"/><polygon class="cls-128" points="121.41 1 140 33.21 140 33.81 121.06 1 121.41 1"/><polygon class="cls-129" points="121.76 1 140 32.6 140 33.21 121.41 1 121.76 1"/><polygon class="cls-130" points="122.11 1 140 31.99 140 32.6 121.76 1 122.11 1"/><polygon class="cls-131" points="122.46 1 140 31.39 140 31.99 122.11 1 122.46 1"/><polygon class="cls-132" points="122.81 1 140 30.78 140 31.39 122.46 1 122.81 1"/><polygon class="cls-133" points="123.16 1 140 30.17 140 30.78 122.81 1 123.16 1"/><polygon class="cls-134" points="123.51 1 140 29.56 140 30.17 123.16 1 123.51 1"/><polygon class="cls-135" points="123.86 1 140 28.96 140 29.56 123.51 1 123.86 1"/><polygon class="cls-136" points="124.21 1 140 28.35 140 28.96 123.86 1 124.21 1"/><polygon class="cls-137" points="124.56 1 140 27.74 140 28.35 124.21 1 124.56 1"/><polygon class="cls-138" points="124.91 1 140 27.14 140 27.74 124.56 1 124.91 1"/><polygon class="cls-139" points="125.26 1 140 26.53 140 27.14 124.91 1 125.26 1"/><polygon class="cls-140" points="125.61 1 140 25.92 140 26.53 125.26 1 125.61 1"/><polygon class="cls-141" points="125.96 1 140 25.32 140 25.92 125.61 1 125.96 1"/><polygon class="cls-142" points="126.31 1 140 24.71 140 25.32 125.96 1 126.31 1"/><polygon class="cls-143" points="126.66 1 140 24.1 140 24.71 126.31 1 126.66 1"/><polygon class="cls-144" points="127.01 1 140 23.5 140 24.1 126.66 1 127.01 1"/><polygon class="cls-145" points="127.36 1 140 22.89 140 23.5 127.01 1 127.36 1"/><polygon class="cls-146" points="127.71 1 140 22.28 140 22.89 127.36 1 127.71 1"/><polygon class="cls-147" points="128.06 1 140 21.68 140 22.28 127.71 1 128.06 1"/><polygon class="cls-148" points="128.41 1 140 21.07 140 21.68 128.06 1 128.41 1"/><polygon class="cls-149" points="128.76 1 140 20.46 140 21.07 128.41 1 128.76 1"/><polygon class="cls-150" points="129.12 1 140 19.85 140 20.46 128.76 1 129.12 1"/><polygon class="cls-151" points="129.47 1 140 19.25 140 19.85 129.12 1 129.47 1"/><polygon class="cls-152" points="129.81 1 140 18.64 140 19.25 129.47 1 129.81 1"/><polygon class="cls-153" points="130.17 1 140 18.03 140 18.64 129.81 1 130.17 1"/><polygon class="cls-154" points="130.52 1 140 17.43 140 18.03 130.17 1 130.52 1"/><polygon class="cls-155" points="130.87 1 140 16.82 140 17.43 130.52 1 130.87 1"/><polygon class="cls-156" points="131.22 1 140 16.21 140 16.82 130.87 1 131.22 1"/><polygon class="cls-156" points="140 16.21 131.22 1 140 1 140 16.21"/><polygon class="cls-3" points="0 31.05 10.36 49 0 49 0 31.05"/><polygon class="cls-3" points="0 30.36 10.76 49 10.36 49 0 31.05 0 30.36"/><polygon class="cls-4" points="0 29.67 11.16 49 10.76 49 0 30.36 0 29.67"/><polygon class="cls-5" points="0 28.98 11.56 49 11.16 49 0 29.67 0 28.98"/><polygon class="cls-6" points="0 28.29 11.96 49 11.56 49 0 28.98 0 28.29"/><polygon class="cls-7" points="0 27.6 12.36 49 11.96 49 0 28.29 0 27.6"/><polygon class="cls-8" points="0 26.91 12.76 49 12.36 49 0 27.6 0 26.91"/><polygon class="cls-9" points="0 26.21 13.16 49 12.76 49 0 26.91 0 26.21"/><polygon class="cls-10" points="0 25.52 13.55 49 13.16 49 0 26.21 0 25.52"/><polygon class="cls-11" points="0 24.83 13.96 49 13.55 49 0 25.52 0 24.83"/><polygon class="cls-12" points="0 24.14 14.35 49 13.96 49 0 24.83 0 24.14"/><polygon class="cls-13" points="0 23.45 14.75 49 14.35 49 0 24.14 0 23.45"/><polygon class="cls-14" points="0 22.75 15.15 49 14.75 49 0 23.45 0 22.75"/><polygon class="cls-15" points="0 22.06 15.55 49 15.15 49 0 22.75 0 22.06"/><polygon class="cls-16" points="0 21.37 15.95 49 15.55 49 0 22.06 0 21.37"/><polygon class="cls-17" points="0 20.68 16.35 49 15.95 49 0 21.37 0 20.68"/><polygon class="cls-18" points="0 19.99 16.75 49 16.35 49 0 20.68 0 19.99"/><polygon class="cls-19" points="0 19.3 17.15 49 16.75 49 0 19.99 0 19.3"/><polygon class="cls-20" points="0 18.6 17.55 49 17.15 49 0 19.3 0 18.6"/><polygon class="cls-21" points="0 17.91 17.95 49 17.55 49 0 18.6 0 17.91"/><polygon class="cls-22" points="0 17.22 18.35 49 17.95 49 0 17.91 0 17.22"/><polygon class="cls-23" points="0 16.53 18.75 49 18.35 49 0 17.22 0 16.53"/><polygon class="cls-24" points="0 15.84 19.15 49 18.75 49 0 16.53 0 15.84"/><polygon class="cls-25" points="0 15.14 19.55 49 19.15 49 0 15.84 0 15.14"/><polygon class="cls-26" points="0 14.45 19.95 49 19.55 49 0 15.14 0 14.45"/><polygon class="cls-27" points="0 13.76 20.34 49 19.95 49 0 14.45 0 13.76"/><polygon class="cls-28" points="0 13.07 20.74 49 20.34 49 0 13.76 0 13.07"/><polygon class="cls-29" points="0 12.38 21.14 49 20.74 49 0 13.07 0 12.38"/><polygon class="cls-30" points="0 11.69 21.54 49 21.14 49 0 12.38 0 11.69"/><polygon class="cls-31" points="0 10.99 21.94 49 21.54 49 0 11.69 0 10.99"/><polygon class="cls-32" points="0 10.3 22.34 49 21.94 49 0 10.99 0 10.3"/><polygon class="cls-33" points="0 9.61 22.74 49 22.34 49 0 10.3 0 9.61"/><polygon class="cls-34" points="0 8.92 23.14 49 22.74 49 0 9.61 0 8.92"/><polygon class="cls-35" points="0 8.23 23.54 49 23.14 49 0 8.92 0 8.23"/><polygon class="cls-36" points="0 7.54 23.94 49 23.54 49 0 8.23 0 7.54"/><polygon class="cls-37" points="0 6.84 24.34 49 23.94 49 0 7.54 0 6.84"/><polygon class="cls-38" points="0 6.15 24.74 49 24.34 49 0 6.84 0 6.15"/><polygon class="cls-39" points="0 5.46 25.14 49 24.74 49 0 6.15 0 5.46"/><polygon class="cls-40" points="0 4.77 25.54 49 25.14 49 0 5.46 0 4.77"/><polygon class="cls-41" points="0 4.08 25.94 49 25.54 49 0 4.77 0 4.08"/><polygon class="cls-42" points="0 4.04 0.28 3.87 26.34 49 25.94 49 0 4.08 0 4.04"/><polygon class="cls-43" points="0.28 3.87 0.58 3.7 26.73 49 26.34 49 0.28 3.87"/><polygon class="cls-44" points="0.58 3.7 0.88 3.53 27.13 49 26.73 49 0.58 3.7"/><polygon class="cls-45" points="0.88 3.53 1.18 3.35 27.53 49 27.13 49 0.88 3.53"/><polygon class="cls-46" points="1.18 3.35 1.48 3.18 27.93 49 27.53 49 1.18 3.35"/><polygon class="cls-47" points="1.48 3.18 1.78 3.01 28.33 49 27.93 49 1.48 3.18"/><polygon class="cls-48" points="1.78 3.01 2.08 2.84 28.73 49 28.33 49 1.78 3.01"/><polygon class="cls-49" points="2.08 2.84 2.38 2.66 29.13 49 28.73 49 2.08 2.84"/><polygon class="cls-50" points="2.38 2.66 2.68 2.49 29.53 49 29.13 49 2.38 2.66"/><polygon class="cls-51" points="2.68 2.49 2.98 2.32 29.93 49 29.53 49 2.68 2.49"/><polygon class="cls-52" points="2.98 2.32 3.28 2.14 30.33 49 29.93 49 2.98 2.32"/><polygon class="cls-53" points="3.28 2.14 3.58 1.97 30.73 49 30.33 49 3.28 2.14"/><polygon class="cls-54" points="3.58 1.97 3.88 1.8 31.13 49 30.73 49 3.58 1.97"/><polygon class="cls-55" points="3.88 1.8 4.18 1.63 31.53 49 31.13 49 3.88 1.8"/><polygon class="cls-56" points="4.18 1.63 4.47 1.45 31.93 49 31.53 49 4.18 1.63"/><polygon class="cls-57" points="4.47 1.45 4.78 1.28 32.33 49 31.93 49 4.47 1.45"/><polygon class="cls-58" points="4.78 1.28 5.07 1.11 32.73 49 32.33 49 4.78 1.28"/><polygon class="cls-59" points="5.07 1.11 5.37 0.93 33.13 49 32.73 49 5.07 1.11"/><polygon class="cls-60" points="5.37 0.93 5.67 0.76 33.52 49 33.13 49 5.37 0.93"/><polygon class="cls-61" points="5.67 0.76 5.97 0.59 33.92 49 33.52 49 5.67 0.76"/><polygon class="cls-62" points="5.97 0.59 6.27 0.41 34.32 49 33.92 49 5.97 0.59"/><polygon class="cls-63" points="6.27 0.41 6.57 0.24 34.72 49 34.32 49 6.27 0.41"/><polygon class="cls-64" points="6.57 0.24 6.87 0.07 35.12 49 34.72 49 6.57 0.24"/><polygon class="cls-65" points="6.87 0.07 6.99 0 7.23 0 35.52 49 35.12 49 6.87 0.07"/><polygon class="cls-66" points="7.63 0 35.92 49 35.52 49 7.23 0 7.63 0"/><polygon class="cls-67" points="8.03 0 36.32 49 35.92 49 7.63 0 8.03 0"/><polygon class="cls-68" points="8.43 0 36.72 49 36.32 49 8.03 0 8.43 0"/><polygon class="cls-69" points="8.83 0 37.12 49 36.72 49 8.43 0 8.83 0"/><polygon class="cls-70" points="9.23 0 37.52 49 37.12 49 8.83 0 9.23 0"/><polygon class="cls-71" points="9.63 0 37.92 49 37.52 49 9.23 0 9.63 0"/><polygon class="cls-72" points="10.03 0 38.32 49 37.92 49 9.63 0 10.03 0"/><polygon class="cls-73" points="10.43 0 38.72 49 38.32 49 10.03 0 10.43 0"/><polygon class="cls-74" points="10.83 0 39.12 49 38.72 49 10.43 0 10.83 0"/><polygon class="cls-75" points="11.22 0 39.52 49 39.12 49 10.83 0 11.22 0"/><polygon class="cls-76" points="11.62 0 39.91 49 39.52 49 11.22 0 11.62 0"/><polygon class="cls-77" points="12.02 0 40.31 49 39.91 49 11.62 0 12.02 0"/><polygon class="cls-78" points="12.42 0 40.71 49 40.31 49 12.02 0 12.42 0"/><polygon class="cls-79" points="12.82 0 41.11 49 40.71 49 12.42 0 12.82 0"/><polygon class="cls-80" points="13.22 0 41.51 49 41.11 49 12.82 0 13.22 0"/><polygon class="cls-81" points="13.62 0 41.91 49 41.51 49 13.22 0 13.62 0"/><polygon class="cls-82" points="14.02 0 42.31 49 41.91 49 13.62 0 14.02 0"/><polygon class="cls-83" points="14.42 0 42.71 49 42.31 49 14.02 0 14.42 0"/><polygon class="cls-84" points="14.82 0 43.11 49 42.71 49 14.42 0 14.82 0"/><polygon class="cls-85" points="15.22 0 43.51 49 43.11 49 14.82 0 15.22 0"/><polygon class="cls-86" points="15.62 0 43.91 49 43.51 49 15.22 0 15.62 0"/><polygon class="cls-87" points="16.02 0 44.31 49 43.91 49 15.62 0 16.02 0"/><polygon class="cls-88" points="16.42 0 44.71 49 44.31 49 16.02 0 16.42 0"/><polygon class="cls-89" points="16.82 0 45.11 49 44.71 49 16.42 0 16.82 0"/><polygon class="cls-90" points="17.22 0 45.51 49 45.11 49 16.82 0 17.22 0"/><polygon class="cls-91" points="17.61 0 45.91 49 45.51 49 17.22 0 17.61 0"/><polygon class="cls-92" points="18.01 0 46.3 49 45.91 49 17.61 0 18.01 0"/><polygon class="cls-93" points="18.41 0 46.7 49 46.3 49 18.01 0 18.41 0"/><polygon class="cls-94" points="18.81 0 47.1 49 46.7 49 18.41 0 18.81 0"/><polygon class="cls-95" points="19.21 0 47.5 49 47.1 49 18.81 0 19.21 0"/><polygon class="cls-95" points="19.66 0 47.95 49 47.5 49 19.21 0 19.66 0"/><polygon class="cls-94" points="20.1 0 48.39 49 47.95 49 19.66 0 20.1 0"/><polygon class="cls-93" points="20.54 0 48.83 49 48.39 49 20.1 0 20.54 0"/><polygon class="cls-92" points="20.98 0 49.27 49 48.83 49 20.54 0 20.98 0"/><polygon class="cls-91" points="21.42 0 49.71 49 49.27 49 20.98 0 21.42 0"/><polygon class="cls-90" points="21.87 0 50.16 49 49.71 49 21.42 0 21.87 0"/><polygon class="cls-89" points="22.31 0 50.6 49 50.16 49 21.87 0 22.31 0"/><polygon class="cls-88" points="22.75 0 51.04 49 50.6 49 22.31 0 22.75 0"/><polygon class="cls-87" points="23.19 0 51.48 49 51.04 49 22.75 0 23.19 0"/><polygon class="cls-86" points="23.63 0 51.92 49 51.48 49 23.19 0 23.63 0"/><polygon class="cls-85" points="24.08 0 52.37 49 51.92 49 23.63 0 24.08 0"/><polygon class="cls-84" points="24.52 0 52.81 49 52.37 49 24.08 0 24.52 0"/><polygon class="cls-83" points="24.96 0 53.25 49 52.81 49 24.52 0 24.96 0"/><polygon class="cls-82" points="25.4 0 53.69 49 53.25 49 24.96 0 25.4 0"/><polygon class="cls-81" points="25.84 0 54.13 49 53.69 49 25.4 0 25.84 0"/><polygon class="cls-80" points="26.29 0 54.58 49 54.13 49 25.84 0 26.29 0"/><polygon class="cls-79" points="26.73 0 55.02 49 54.58 49 26.29 0 26.73 0"/><polygon class="cls-78" points="27.17 0 55.46 49 55.02 49 26.73 0 27.17 0"/><polygon class="cls-77" points="27.61 0 55.9 49 55.46 49 27.17 0 27.61 0"/><polygon class="cls-76" points="28.06 0 56.35 49 55.9 49 27.61 0 28.06 0"/><polygon class="cls-75" points="28.5 0 56.79 49 56.35 49 28.06 0 28.5 0"/><polygon class="cls-74" points="28.94 0 57.23 49 56.79 49 28.5 0 28.94 0"/><polygon class="cls-73" points="29.38 0 57.67 49 57.23 49 28.94 0 29.38 0"/><polygon class="cls-72" points="29.82 0 58.12 49 57.67 49 29.38 0 29.82 0"/><polygon class="cls-71" points="30.27 0 58.56 49 58.12 49 29.82 0 30.27 0"/><polygon class="cls-70" points="30.71 0 59 49 58.56 49 30.27 0 30.71 0"/><polygon class="cls-69" points="31.15 0 59.44 49 59 49 30.71 0 31.15 0"/><polygon class="cls-68" points="31.59 0 59.88 49 59.44 49 31.15 0 31.59 0"/><polygon class="cls-67" points="32.04 0 60.33 49 59.88 49 31.59 0 32.04 0"/><polygon class="cls-66" points="32.48 0 60.77 49 60.33 49 32.04 0 32.48 0"/><polygon class="cls-65" points="32.92 0 61.21 49 60.77 49 32.48 0 32.92 0"/><polygon class="cls-64" points="33.36 0 61.65 49 61.21 49 32.92 0 33.36 0"/><polygon class="cls-63" points="33.8 0 62.09 49 61.65 49 33.36 0 33.8 0"/><polygon class="cls-62" points="34.25 0 62.54 49 62.09 49 33.8 0 34.25 0"/><polygon class="cls-61" points="34.69 0 62.98 49 62.54 49 34.25 0 34.69 0"/><polygon class="cls-60" points="35.13 0 63.42 49 62.98 49 34.69 0 35.13 0"/><polygon class="cls-59" points="35.57 0 63.86 49 63.42 49 35.13 0 35.57 0"/><polygon class="cls-58" points="36.02 0 64.31 49 63.86 49 35.57 0 36.02 0"/><polygon class="cls-57" points="36.46 0 64.75 49 64.31 49 36.02 0 36.46 0"/><polygon class="cls-56" points="36.9 0 65.19 49 64.75 49 36.46 0 36.9 0"/><polygon class="cls-55" points="37.34 0 65.63 49 65.19 49 36.9 0 37.34 0"/><polygon class="cls-54" points="37.78 0 66.07 49 65.63 49 37.34 0 37.78 0"/><polygon class="cls-52" points="38.23 0 66.52 49 66.07 49 37.78 0 38.23 0"/><polygon class="cls-51" points="38.67 0 66.96 49 66.52 49 38.23 0 38.67 0"/><polygon class="cls-50" points="39.11 0 67.4 49 66.96 49 38.67 0 39.11 0"/><polygon class="cls-96" points="39.55 0 67.84 49 67.4 49 39.11 0 39.55 0"/><polygon class="cls-97" points="39.99 0 68.28 49 67.84 49 39.55 0 39.99 0"/><polygon class="cls-98" points="40.44 0 68.73 49 68.28 49 39.99 0 40.44 0"/><polygon class="cls-99" points="40.88 0 69.17 49 68.73 49 40.44 0 40.88 0"/><polygon class="cls-100" points="41.32 0 69.61 49 69.17 49 40.88 0 41.32 0"/><polygon class="cls-101" points="41.76 0 70.05 49 69.61 49 41.32 0 41.76 0"/><polygon class="cls-102" points="42.2 0 70.5 49 70.05 49 41.76 0 42.2 0"/><polygon class="cls-103" points="42.65 0 70.94 49 70.5 49 42.2 0 42.65 0"/><polygon class="cls-104" points="43.09 0 71.38 49 70.94 49 42.65 0 43.09 0"/><polygon class="cls-105" points="43.53 0 71.82 49 71.38 49 43.09 0 43.53 0"/><polygon class="cls-106" points="43.97 0 72.26 49 71.82 49 43.53 0 43.97 0"/><polygon class="cls-107" points="44.42 0 72.71 49 72.26 49 43.97 0 44.42 0"/><polygon class="cls-108" points="44.86 0 73.15 49 72.71 49 44.42 0 44.86 0"/><polygon class="cls-109" points="45.3 0 73.59 49 73.15 49 44.86 0 45.3 0"/><polygon class="cls-110" points="45.74 0 74.03 49 73.59 49 45.3 0 45.74 0"/><polygon class="cls-111" points="46.19 0 74.47 49 74.03 49 45.74 0 46.19 0"/><polygon class="cls-112" points="46.63 0 74.92 49 74.47 49 46.19 0 46.63 0"/><polygon class="cls-113" points="47.07 0 75.36 49 74.92 49 46.63 0 47.07 0"/><polygon class="cls-114" points="47.51 0 75.8 49 75.36 49 47.07 0 47.51 0"/><polygon class="cls-115" points="47.95 0 76.24 49 75.8 49 47.51 0 47.95 0"/><polygon class="cls-116" points="48.4 0 76.69 49 76.24 49 47.95 0 48.4 0"/><polygon class="cls-117" points="48.84 0 77.13 49 76.69 49 48.4 0 48.84 0"/><polygon class="cls-118" points="49.28 0 77.57 49 77.13 49 48.84 0 49.28 0"/><polygon class="cls-119" points="49.72 0 78.01 49 77.57 49 49.28 0 49.72 0"/><polygon class="cls-120" points="50.16 0 78.45 49 78.01 49 49.72 0 50.16 0"/><polygon class="cls-121" points="50.61 0 78.9 49 78.45 49 50.16 0 50.61 0"/><polygon class="cls-122" points="51.05 0 79.34 49 78.9 49 50.61 0 51.05 0"/><polygon class="cls-123" points="51.49 0 79.78 49 79.34 49 51.05 0 51.49 0"/><polygon class="cls-124" points="51.93 0 80.22 49 79.78 49 51.49 0 51.93 0"/><polygon class="cls-125" points="52.38 0 80.67 49 80.22 49 51.93 0 52.38 0"/><polygon class="cls-126" points="52.82 0 81.11 49 80.67 49 52.38 0 52.82 0"/><polygon class="cls-127" points="53.26 0 81.55 49 81.11 49 52.82 0 53.26 0"/><polygon class="cls-128" points="53.7 0 81.99 49 81.55 49 53.26 0 53.7 0"/><polygon class="cls-129" points="54.14 0 82.43 49 81.99 49 53.7 0 54.14 0"/><polygon class="cls-130" points="54.59 0 82.88 49 82.43 49 54.14 0 54.59 0"/><polygon class="cls-131" points="55.03 0 83.32 49 82.88 49 54.59 0 55.03 0"/><polygon class="cls-132" points="55.47 0 83.76 49 83.32 49 55.03 0 55.47 0"/><polygon class="cls-133" points="55.91 0 84.2 49 83.76 49 55.47 0 55.91 0"/><polygon class="cls-134" points="56.35 0 84.64 49 84.2 49 55.91 0 56.35 0"/><polygon class="cls-134" points="56.8 0 85.09 49 84.64 49 56.35 0 56.8 0"/><polygon class="cls-133" points="57.24 0 85.53 49 85.09 49 56.8 0 57.24 0"/><polygon class="cls-132" points="57.68 0 85.97 49 85.53 49 57.24 0 57.68 0"/><polygon class="cls-131" points="58.12 0 86.41 49 85.97 49 57.68 0 58.12 0"/><polygon class="cls-130" points="58.57 0 86.86 49 86.41 49 58.12 0 58.57 0"/><polygon class="cls-129" points="59.01 0 87.3 49 86.86 49 58.57 0 59.01 0"/><polygon class="cls-128" points="59.45 0 87.74 49 87.3 49 59.01 0 59.45 0"/><polygon class="cls-127" points="59.89 0 88.18 49 87.74 49 59.45 0 59.89 0"/><polygon class="cls-126" points="60.34 0 88.63 49 88.18 49 59.89 0 60.34 0"/><polygon class="cls-125" points="60.78 0 89.07 49 88.63 49 60.34 0 60.78 0"/><polygon class="cls-124" points="61.22 0 89.51 49 89.07 49 60.78 0 61.22 0"/><polygon class="cls-123" points="61.66 0 89.95 49 89.51 49 61.22 0 61.66 0"/><polygon class="cls-122" points="62.1 0 90.39 49 89.95 49 61.66 0 62.1 0"/><polygon class="cls-121" points="62.55 0 90.84 49 90.39 49 62.1 0 62.55 0"/><polygon class="cls-120" points="62.99 0 91.28 49 90.84 49 62.55 0 62.99 0"/><polygon class="cls-119" points="63.43 0 91.72 49 91.28 49 62.99 0 63.43 0"/><polygon class="cls-118" points="63.87 0 92.16 49 91.72 49 63.43 0 63.87 0"/><polygon class="cls-117" points="64.31 0 92.6 49 92.16 49 63.87 0 64.31 0"/><polygon class="cls-116" points="64.76 0 93.05 49 92.6 49 64.31 0 64.76 0"/><polygon class="cls-115" points="65.2 0 93.49 49 93.05 49 64.76 0 65.2 0"/><polygon class="cls-114" points="65.64 0 93.93 49 93.49 49 65.2 0 65.64 0"/><polygon class="cls-113" points="66.08 0 94.37 49 93.93 49 65.64 0 66.08 0"/><polygon class="cls-112" points="66.53 0 94.81 49 94.37 49 66.08 0 66.53 0"/><polygon class="cls-111" points="66.97 0 95.26 49 94.81 49 66.53 0 66.97 0"/><polygon class="cls-110" points="67.41 0 95.7 49 95.26 49 66.97 0 67.41 0"/><polygon class="cls-109" points="67.85 0 96.14 49 95.7 49 67.41 0 67.85 0"/><polygon class="cls-108" points="68.29 0 96.58 49 96.14 49 67.85 0 68.29 0"/><polygon class="cls-107" points="68.74 0 97.03 49 96.58 49 68.29 0 68.74 0"/><polygon class="cls-106" points="69.18 0 97.47 49 97.03 49 68.74 0 69.18 0"/><polygon class="cls-105" points="69.62 0 97.91 49 97.47 49 69.18 0 69.62 0"/><polygon class="cls-104" points="70.06 0 98.35 49 97.91 49 69.62 0 70.06 0"/><polygon class="cls-103" points="70.5 0 98.8 49 98.35 49 70.06 0 70.5 0"/><polygon class="cls-102" points="70.95 0 99.24 49 98.8 49 70.5 0 70.95 0"/><polygon class="cls-101" points="71.39 0 99.68 49 99.24 49 70.95 0 71.39 0"/><polygon class="cls-100" points="71.83 0 100.12 49 99.68 49 71.39 0 71.83 0"/><polygon class="cls-99" points="72.27 0 100.56 49 100.12 49 71.83 0 72.27 0"/><polygon class="cls-98" points="72.72 0 101 49 100.56 49 72.27 0 72.72 0"/><polygon class="cls-97" points="73.16 0 101.45 49 101 49 72.72 0 73.16 0"/><polygon class="cls-96" points="73.6 0 101.89 49 101.45 49 73.16 0 73.6 0"/><polygon class="cls-50" points="74.04 0 102.33 49 101.89 49 73.6 0 74.04 0"/><polygon class="cls-51" points="74.48 0 102.77 49 102.33 49 74.04 0 74.48 0"/><polygon class="cls-52" points="74.93 0 103.22 49 102.77 49 74.48 0 74.93 0"/><polygon class="cls-54" points="75.37 0 103.66 49 103.22 49 74.93 0 75.37 0"/><polygon class="cls-55" points="75.81 0 104.1 49 103.66 49 75.37 0 75.81 0"/><polygon class="cls-56" points="76.25 0 104.54 49 104.1 49 75.81 0 76.25 0"/><polygon class="cls-57" points="76.69 0 104.98 49 104.54 49 76.25 0 76.69 0"/><polygon class="cls-58" points="77.14 0 105.43 49 104.98 49 76.69 0 77.14 0"/><polygon class="cls-59" points="77.58 0 105.87 49 105.43 49 77.14 0 77.58 0"/><polygon class="cls-60" points="78.02 0 106.31 49 105.87 49 77.58 0 78.02 0"/><polygon class="cls-61" points="78.46 0 106.75 49 106.31 49 78.02 0 78.46 0"/><polygon class="cls-62" points="78.91 0 107.2 49 106.75 49 78.46 0 78.91 0"/><polygon class="cls-63" points="79.35 0 107.64 49 107.2 49 78.91 0 79.35 0"/><polygon class="cls-64" points="79.79 0 108.08 49 107.64 49 79.35 0 79.79 0"/><polygon class="cls-65" points="80.23 0 108.52 49 108.08 49 79.79 0 80.23 0"/><polygon class="cls-66" points="80.67 0 108.97 49 108.52 49 80.23 0 80.67 0"/><polygon class="cls-67" points="81.12 0 109.41 49 108.97 49 80.67 0 81.12 0"/><polygon class="cls-68" points="81.56 0 109.85 49 109.41 49 81.12 0 81.56 0"/><polygon class="cls-69" points="82 0 110.29 49 109.85 49 81.56 0 82 0"/><polygon class="cls-70" points="82.44 0 110.73 49 110.29 49 82 0 82.44 0"/><polygon class="cls-71" points="82.89 0 111.17 49 110.73 49 82.44 0 82.89 0"/><polygon class="cls-72" points="83.33 0 111.62 49 111.17 49 82.89 0 83.33 0"/><polygon class="cls-73" points="83.77 0 112.06 49 111.62 49 83.33 0 83.77 0"/><polygon class="cls-74" points="84.21 0 112.5 49 112.06 49 83.77 0 84.21 0"/><polygon class="cls-75" points="84.65 0 112.94 49 112.5 49 84.21 0 84.65 0"/><polygon class="cls-76" points="85.1 0 113.39 49 112.94 49 84.65 0 85.1 0"/><polygon class="cls-77" points="85.54 0 113.83 49 113.39 49 85.1 0 85.54 0"/><polygon class="cls-78" points="85.98 0 114.27 49 113.83 49 85.54 0 85.98 0"/><polygon class="cls-79" points="86.42 0 114.71 49 114.27 49 85.98 0 86.42 0"/><polygon class="cls-80" points="86.86 0 115.16 49 114.71 49 86.42 0 86.86 0"/><polygon class="cls-81" points="87.31 0 115.6 49 115.16 49 86.86 0 87.31 0"/><polygon class="cls-82" points="87.75 0 116.04 49 115.6 49 87.31 0 87.75 0"/><polygon class="cls-83" points="88.19 0 116.48 49 116.04 49 87.75 0 88.19 0"/><polygon class="cls-84" points="88.63 0 116.92 49 116.48 49 88.19 0 88.63 0"/><polygon class="cls-85" points="89.08 0 117.37 49 116.92 49 88.63 0 89.08 0"/><polygon class="cls-86" points="89.52 0 117.81 49 117.37 49 89.08 0 89.52 0"/><polygon class="cls-87" points="89.96 0 118.25 49 117.81 49 89.52 0 89.96 0"/><polygon class="cls-88" points="90.4 0 118.69 49 118.25 49 89.96 0 90.4 0"/><polygon class="cls-89" points="90.84 0 119.13 49 118.69 49 90.4 0 90.84 0"/><polygon class="cls-90" points="91.29 0 119.58 49 119.13 49 90.84 0 91.29 0"/><polygon class="cls-91" points="91.73 0 120.02 49 119.58 49 91.29 0 91.73 0"/><polygon class="cls-92" points="92.17 0 120.46 49 120.02 49 91.73 0 92.17 0"/><polygon class="cls-93" points="92.61 0 120.9 49 120.46 49 92.17 0 92.61 0"/><polygon class="cls-94" points="93.06 0 121.34 49 120.9 49 92.61 0 93.06 0"/><polygon class="cls-95" points="93.5 0 121.79 49 121.34 49 93.06 0 93.5 0"/><polygon class="cls-95" points="93.85 0 122.14 49 121.79 49 93.5 0 93.85 0"/><polygon class="cls-94" points="94.2 0 122.49 49 122.14 49 93.85 0 94.2 0"/><polygon class="cls-93" points="94.55 0 122.84 49 122.49 49 94.2 0 94.55 0"/><polygon class="cls-92" points="94.9 0 123.19 49 122.84 49 94.55 0 94.9 0"/><polygon class="cls-91" points="95.25 0 123.54 49 123.19 49 94.9 0 95.25 0"/><polygon class="cls-90" points="95.6 0 123.89 49 123.54 49 95.25 0 95.6 0"/><polygon class="cls-89" points="95.95 0 124.24 49 123.89 49 95.6 0 95.95 0"/><polygon class="cls-88" points="96.3 0 124.59 49 124.24 49 95.95 0 96.3 0"/><polygon class="cls-87" points="96.65 0 124.94 49 124.59 49 96.3 0 96.65 0"/><polygon class="cls-86" points="97 0 125.29 49 124.94 49 96.65 0 97 0"/><polygon class="cls-85" points="97.35 0 125.64 49 125.29 49 97 0 97.35 0"/><polygon class="cls-84" points="97.7 0 125.99 49 125.64 49 97.35 0 97.7 0"/><polygon class="cls-83" points="98.05 0 126.34 49 125.99 49 97.7 0 98.05 0"/><polygon class="cls-82" points="98.4 0 126.69 49 126.34 49 98.05 0 98.4 0"/><polygon class="cls-81" points="98.75 0 127.04 49 126.69 49 98.4 0 98.75 0"/><polygon class="cls-80" points="99.1 0 127.39 49 127.04 49 98.75 0 99.1 0"/><polygon class="cls-79" points="99.45 0 127.74 49 127.39 49 99.1 0 99.45 0"/><polygon class="cls-78" points="99.81 0 128.09 49 127.74 49 99.45 0 99.81 0"/><polygon class="cls-77" points="100.16 0 128.44 49 128.09 49 99.81 0 100.16 0"/><polygon class="cls-76" points="100.5 0 128.8 49 128.44 49 100.16 0 100.5 0"/><polygon class="cls-75" points="100.86 0 129.15 49 128.8 49 100.5 0 100.86 0"/><polygon class="cls-74" points="101.21 0 129.5 49 129.15 49 100.86 0 101.21 0"/><polygon class="cls-73" points="101.56 0 129.85 49 129.5 49 101.21 0 101.56 0"/><polygon class="cls-72" points="101.91 0 130.2 49 129.85 49 101.56 0 101.91 0"/><polygon class="cls-71" points="102.26 0 130.55 49 130.2 49 101.91 0 102.26 0"/><polygon class="cls-70" points="102.61 0 130.9 49 130.55 49 102.26 0 102.61 0"/><polygon class="cls-69" points="102.96 0 131.25 49 130.9 49 102.61 0 102.96 0"/><polygon class="cls-68" points="103.31 0 131.6 49 131.25 49 102.96 0 103.31 0"/><polygon class="cls-67" points="103.66 0 131.95 49 131.6 49 103.31 0 103.66 0"/><polygon class="cls-66" points="104.01 0 132.3 49 131.95 49 103.66 0 104.01 0"/><polygon class="cls-65" points="104.36 0 132.65 49 132.3 49 104.01 0 104.36 0"/><polygon class="cls-64" points="104.71 0 133 49 132.65 49 104.36 0 104.71 0"/><polygon class="cls-63" points="105.06 0 133.35 49 133 49 104.71 0 105.06 0"/><polygon class="cls-62" points="105.41 0 133.7 49 133.35 49 105.06 0 105.41 0"/><polygon class="cls-61" points="105.76 0 134.04 48.98 134.01 49 133.7 49 105.41 0 105.76 0"/><polygon class="cls-60" points="106.11 0 134.3 48.83 134.04 48.98 105.76 0 106.11 0"/><polygon class="cls-59" points="106.46 0 134.57 48.68 134.3 48.83 106.11 0 106.46 0"/><polygon class="cls-58" points="106.81 0 134.83 48.53 134.57 48.68 106.46 0 106.81 0"/><polygon class="cls-57" points="107.16 0 135.09 48.38 134.83 48.53 106.81 0 107.16 0"/><polygon class="cls-56" points="107.51 0 135.35 48.22 135.09 48.38 107.16 0 107.51 0"/><polygon class="cls-55" points="107.86 0 135.62 48.07 135.35 48.22 107.51 0 107.86 0"/><polygon class="cls-54" points="108.21 0 135.88 47.92 135.62 48.07 107.86 0 108.21 0"/><polygon class="cls-53" points="108.56 0 136.14 47.77 135.88 47.92 108.21 0 108.56 0"/><polygon class="cls-52" points="108.92 0 136.41 47.62 136.14 47.77 108.56 0 108.92 0"/><polygon class="cls-51" points="109.27 0 136.67 47.47 136.41 47.62 108.92 0 109.27 0"/><polygon class="cls-50" points="109.62 0 136.93 47.31 136.67 47.47 109.27 0 109.62 0"/><polygon class="cls-96" points="109.97 0 137.19 47.16 136.93 47.31 109.62 0 109.97 0"/><polygon class="cls-97" points="110.32 0 137.46 47.01 137.19 47.16 109.97 0 110.32 0"/><polygon class="cls-98" points="110.67 0 137.72 46.86 137.46 47.01 110.32 0 110.67 0"/><polygon class="cls-99" points="111.02 0 137.98 46.71 137.72 46.86 110.67 0 111.02 0"/><polygon class="cls-100" points="111.37 0 138.25 46.55 137.98 46.71 111.02 0 111.37 0"/><polygon class="cls-101" points="111.72 0 138.51 46.4 138.25 46.55 111.37 0 111.72 0"/><polygon class="cls-102" points="112.07 0 138.77 46.25 138.51 46.4 111.72 0 112.07 0"/><polygon class="cls-104" points="112.42 0 139.03 46.1 138.77 46.25 112.07 0 112.42 0"/><polygon class="cls-105" points="112.77 0 139.3 45.95 139.03 46.1 112.42 0 112.77 0"/><polygon class="cls-106" points="113.12 0 139.56 45.8 139.3 45.95 112.77 0 113.12 0"/><polygon class="cls-107" points="113.47 0 139.82 45.64 139.56 45.8 113.12 0 113.47 0"/><polygon class="cls-108" points="113.82 0 140.09 45.49 139.82 45.64 113.47 0 113.82 0"/><polygon class="cls-109" points="114.17 0 140.35 45.34 140.09 45.49 113.82 0 114.17 0"/><polygon class="cls-110" points="114.52 0 140.61 45.19 140.35 45.34 114.17 0 114.52 0"/><polygon class="cls-111" points="114.87 0 140.87 45.04 140.61 45.19 114.52 0 114.87 0"/><polygon class="cls-112" points="115.22 0 141 44.65 141 44.96 140.87 45.04 114.87 0 115.22 0"/><polygon class="cls-113" points="115.57 0 141 44.04 141 44.65 115.22 0 115.57 0"/><polygon class="cls-114" points="115.92 0 141 43.44 141 44.04 115.57 0 115.92 0"/><polygon class="cls-115" points="116.27 0 141 42.83 141 43.44 115.92 0 116.27 0"/><polygon class="cls-116" points="116.62 0 141 42.22 141 42.83 116.27 0 116.62 0"/><polygon class="cls-117" points="116.97 0 141 41.61 141 42.22 116.62 0 116.97 0"/><polygon class="cls-118" points="117.33 0 141 41.01 141 41.61 116.97 0 117.33 0"/><polygon class="cls-119" points="117.67 0 141 40.4 141 41.01 117.33 0 117.67 0"/><polygon class="cls-120" points="118.03 0 141 39.79 141 40.4 117.67 0 118.03 0"/><polygon class="cls-121" points="118.38 0 141 39.19 141 39.79 118.03 0 118.38 0"/><polygon class="cls-122" points="118.73 0 141 38.58 141 39.19 118.38 0 118.73 0"/><polygon class="cls-123" points="119.08 0 141 37.97 141 38.58 118.73 0 119.08 0"/><polygon class="cls-124" points="119.43 0 141 37.37 141 37.97 119.08 0 119.43 0"/><polygon class="cls-125" points="119.78 0 141 36.76 141 37.37 119.43 0 119.78 0"/><polygon class="cls-126" points="120.13 0 141 36.15 141 36.76 119.78 0 120.13 0"/><polygon class="cls-127" points="120.48 0 141 35.55 141 36.15 120.13 0 120.48 0"/><polygon class="cls-128" points="120.83 0 141 34.94 141 35.55 120.48 0 120.83 0"/><polygon class="cls-129" points="121.18 0 141 34.33 141 34.94 120.83 0 121.18 0"/><polygon class="cls-130" points="121.53 0 141 33.72 141 34.33 121.18 0 121.53 0"/><polygon class="cls-131" points="121.88 0 141 33.12 141 33.72 121.53 0 121.88 0"/><polygon class="cls-132" points="122.23 0 141 32.51 141 33.12 121.88 0 122.23 0"/><polygon class="cls-133" points="122.58 0 141 31.9 141 32.51 122.23 0 122.58 0"/><polygon class="cls-134" points="122.93 0 141 31.3 141 31.9 122.58 0 122.93 0"/><polygon class="cls-135" points="123.28 0 141 30.69 141 31.3 122.93 0 123.28 0"/><polygon class="cls-136" points="123.63 0 141 30.08 141 30.69 123.28 0 123.63 0"/><polygon class="cls-137" points="123.98 0 141 29.48 141 30.08 123.63 0 123.98 0"/><polygon class="cls-138" points="124.33 0 141 28.87 141 29.48 123.98 0 124.33 0"/><polygon class="cls-139" points="124.68 0 141 28.26 141 28.87 124.33 0 124.68 0"/><polygon class="cls-140" points="125.03 0 141 27.66 141 28.26 124.68 0 125.03 0"/><polygon class="cls-141" points="125.38 0 141 27.05 141 27.66 125.03 0 125.38 0"/><polygon class="cls-142" points="125.73 0 141 26.44 141 27.05 125.38 0 125.73 0"/><polygon class="cls-143" points="126.08 0 141 25.83 141 26.44 125.73 0 126.08 0"/><polygon class="cls-144" points="126.44 0 141 25.23 141 25.83 126.08 0 126.44 0"/><polygon class="cls-145" points="126.78 0 141 24.62 141 25.23 126.44 0 126.78 0"/><polygon class="cls-146" points="127.14 0 141 24.01 141 24.62 126.78 0 127.14 0"/><polygon class="cls-147" points="127.49 0 141 23.41 141 24.01 127.14 0 127.49 0"/><polygon class="cls-148" points="127.84 0 141 22.8 141 23.41 127.49 0 127.84 0"/><polygon class="cls-149" points="128.19 0 141 22.19 141 22.8 127.84 0 128.19 0"/><polygon class="cls-150" points="128.54 0 141 21.59 141 22.19 128.19 0 128.54 0"/><polygon class="cls-151" points="128.89 0 141 20.98 141 21.59 128.54 0 128.89 0"/><polygon class="cls-152" points="129.24 0 141 20.37 141 20.98 128.89 0 129.24 0"/><polygon class="cls-153" points="129.59 0 141 19.77 141 20.37 129.24 0 129.59 0"/><polygon class="cls-154" points="129.94 0 141 19.16 141 19.77 129.59 0 129.94 0"/><polygon class="cls-155" points="130.29 0 141 18.55 141 19.16 129.94 0 130.29 0"/><polygon class="cls-156" points="130.64 0 141 17.94 141 18.55 130.29 0 130.64 0"/><polygon class="cls-156" points="141 17.94 130.64 0 141 0 141 17.94"/></g><path class="cls-157" d="M42.62,39H35.81a1,1,0,0,1,0-2h6.81a5.81,5.81,0,0,0,0-11.61H29a1,1,0,0,1,0-2H42.62a7.81,7.81,0,0,1,0,15.61Z" transform="translate(-4.5 -2.5)"/><rect class="cls-157" x="29.89" y="15.26" width="2" height="12" rx="1" ry="1" transform="translate(19.58 -18.12) rotate(45)"/><rect class="cls-157" x="29.89" y="22.33" width="2" height="12" rx="1" ry="1" transform="translate(68.26 24.02) rotate(135)"/><path class="cls-157" d="M60,36.13V18h5.33a5.94,5.94,0,0,1,3.82,1.14,3.68,3.68,0,0,1,1.43,3,4.33,4.33,0,0,1-.85,2.65,4.56,4.56,0,0,1-2.34,1.63v0a4.6,4.6,0,0,1,3,1.4,4.25,4.25,0,0,1,1.11,3,4.76,4.76,0,0,1-1.68,3.79,6.37,6.37,0,0,1-4.31,1.45ZM62.33,20v5.68h2.13a4,4,0,0,0,2.67-.83,2.85,2.85,0,0,0,1-2.29Q68.1,20,64.68,20Zm0,7.72v6.33h2.81A4.27,4.27,0,0,0,68,33.23a2.93,2.93,0,0,0,1-2.36q0-3.12-4.23-3.12Z" transform="translate(-4.5 -2.5)"/><path class="cls-157" d="M89.31,36.13H86.72l-1.85-5H77.31l-1.75,5H73L79.89,18H82.4Zm-5.17-7L81.4,21.56a8.57,8.57,0,0,1-.28-1.27h-.06a7,7,0,0,1-.29,1.27L78,29.11Z" transform="translate(-4.5 -2.5)"/><path class="cls-157" d="M104,35.38a10.72,10.72,0,0,1-5,1.05A8.15,8.15,0,0,1,92.75,34a9.18,9.18,0,0,1-2.33-6.56A9.63,9.63,0,0,1,93,20.34a9,9,0,0,1,6.67-2.67,10.84,10.84,0,0,1,4.3.74v2.45a8.68,8.68,0,0,0-4.28-1.08,6.5,6.5,0,0,0-4.95,2,7.62,7.62,0,0,0-1.91,5.46,7.3,7.3,0,0,0,1.78,5.17,6.07,6.07,0,0,0,4.66,1.92A8.8,8.8,0,0,0,104,33.13Z" transform="translate(-4.5 -2.5)"/><path class="cls-157" d="M120.56,36.13h-3.21l-6.82-8.25a4.58,4.58,0,0,1-.48-.68H110v8.93h-2.34V18H110v8.54h.06a7.34,7.34,0,0,1,.48-.67L117.12,18H120l-7.62,8.71Z" transform="translate(-4.5 -2.5)"/><path class="cls-1" d="M29,3.5A23.49,23.49,0,0,0,16,46.58L135.5,8.53a23.38,23.38,0,0,0-14.5-5Z" transform="translate(-4.5 -2.5)"/><path class="cls-95" d="M5.5,27A23.53,23.53,0,0,1,29,3.5h92a23.38,23.38,0,0,1,14.5,5l1.15-.36A24.39,24.39,0,0,0,121,2.5H29A24.49,24.49,0,0,0,14.82,47l1.2-.38A23.49,23.49,0,0,1,5.5,27Z" transform="translate(-4.5 -2.5)"/></svg>