<svg id="图层_1" data-name="图层 1" xmlns="http://www.w3.org/2000/svg" viewBox="0 0 140 48"><defs><style>.cls-1{fill:#00a0e9;}.cls-2{fill:#fff;}.cls-3{fill:none;}</style></defs><title>返回按钮（英-蓝）</title><rect class="cls-1" width="140" height="48" rx="24" ry="24"/><path class="cls-2" d="M44.16,38.06H37.35a1,1,0,0,1,0-2h6.81a5.81,5.81,0,1,0,0-11.61H30.55a1,1,0,0,1,0-2H44.16a7.81,7.81,0,1,1,0,15.61Z" transform="translate(-5 -3)"/><rect class="cls-2" x="31.43" y="14.35" width="2" height="12" rx="1" ry="1" transform="translate(18.89 -19.97) rotate(45)"/><rect class="cls-2" x="31.43" y="21.43" width="2" height="12" rx="1" ry="1" transform="translate(69.75 20.89) rotate(135)"/><path class="cls-2" d="M61.53,35.22V17.07h5.33a5.94,5.94,0,0,1,3.82,1.14,3.68,3.68,0,0,1,1.43,3,4.33,4.33,0,0,1-.85,2.65,4.56,4.56,0,0,1-2.34,1.63v0a4.6,4.6,0,0,1,3,1.4A4.25,4.25,0,0,1,73,30a4.76,4.76,0,0,1-1.68,3.79A6.37,6.37,0,0,1,67,35.22Zm2.34-16.1v5.68H66A4,4,0,0,0,68.67,24a2.85,2.85,0,0,0,1-2.29q0-2.57-3.42-2.57Zm0,7.72v6.33h2.81a4.27,4.27,0,0,0,2.84-.85,2.93,2.93,0,0,0,1-2.36q0-3.12-4.23-3.12Z" transform="translate(-5 -3)"/><path class="cls-2" d="M90.85,35.22H88.26l-1.85-5H78.85l-1.75,5H74.51l6.91-18.15h2.51Zm-5.17-7-2.74-7.55a8.57,8.57,0,0,1-.28-1.27H82.6a7,7,0,0,1-.29,1.27l-2.72,7.55Z" transform="translate(-5 -3)"/><path class="cls-2" d="M105.56,34.47a10.72,10.72,0,0,1-5,1.05,8.15,8.15,0,0,1-6.23-2.48A9.18,9.18,0,0,1,92,26.49a9.63,9.63,0,0,1,2.63-7.05,9,9,0,0,1,6.67-2.67,10.84,10.84,0,0,1,4.3.74V20a8.68,8.68,0,0,0-4.28-1.08,6.5,6.5,0,0,0-4.95,2,7.62,7.62,0,0,0-1.91,5.46,7.3,7.3,0,0,0,1.78,5.17,6.07,6.07,0,0,0,4.66,1.92,8.8,8.8,0,0,0,4.69-1.22Z" transform="translate(-5 -3)"/><path class="cls-2" d="M122.1,35.22h-3.21L112.07,27a4.58,4.58,0,0,1-.48-.68h-.06v8.93h-2.34V17.07h2.34v8.54h.06a7.34,7.34,0,0,1,.48-.67l6.59-7.87h2.89l-7.62,8.71Z" transform="translate(-5 -3)"/><path class="cls-3" d="M29,3.5A23.49,23.49,0,0,0,16,46.58L135.5,8.53a23.38,23.38,0,0,0-14.5-5Z" transform="translate(-5 -3)"/></svg>