<svg id="图层_1" data-name="图层 1" xmlns="http://www.w3.org/2000/svg" viewBox="0 0 140 48"><defs><style>.cls-1{fill:#00a0e9;}.cls-2{fill:#fff;}.cls-3{fill:none;}</style></defs><title>返回按钮-蓝</title><rect class="cls-1" width="140" height="48" rx="24" ry="24"/><path class="cls-2" d="M42.62,39H35.81a1,1,0,0,1,0-2h6.81a5.81,5.81,0,0,0,0-11.61H29a1,1,0,0,1,0-2H42.62a7.81,7.81,0,0,1,0,15.61Z" transform="translate(-5 -3)"/><rect class="cls-2" x="29.89" y="15.26" width="2" height="12" rx="1" ry="1" transform="translate(19.08 -18.62) rotate(45)"/><rect class="cls-2" x="29.89" y="22.33" width="2" height="12" rx="1" ry="1" transform="translate(67.76 23.52) rotate(135)"/><path class="cls-2" d="M67.75,36.84l5.86.07,7.66-.16q-.26.77-.66,1.85l-7.55,0-5.77-.07q-4,0-5.6-2.72a35.22,35.22,0,0,0-2.81,3.14l-1-1.95q2.07-2,3-2.87V26.23H58.14V24.49h4.59v10Q64.15,36.8,67.75,36.84ZM60.86,16.62q1.2,1.45,3.28,4.43l-1.66,1.17q-1.9-3-3.12-4.59Zm7.8,10.22,1.13-1.22q2.5,1.86,4.76,3.62a15.22,15.22,0,0,0,3.09-4.84H68.22q0,6.77-3.3,10.57a16,16,0,0,0-1.24-1.48q2.77-3.19,2.77-9.26V17.81a97.7,97.7,0,0,0,13.45-1l.66,1.83q-6,.63-12.33.82v3.3H79.56v1.66a16.8,16.8,0,0,1-3.55,6q2.44,1.93,4.54,3.77l-1.41,1.52q-2.25-2-4.5-3.95A25.73,25.73,0,0,1,67.89,36q-.52-.73-1.17-1.5a25.35,25.35,0,0,0,6.49-3.94Q70.93,28.62,68.66,26.83Z" transform="translate(-5 -3)"/><path class="cls-2" d="M83.43,17.58h20.48V39h-2v-1.5H85.4V39h-2Zm18.52,1.73H85.4V35.86h16.55ZM88.68,22.9h10V33.14H96.81V31.83H90.5v1.31H88.68Zm8.13,1.64H90.5v5.65h6.3Z" transform="translate(-5 -3)"/><path class="cls-3" d="M29,3.5A23.49,23.49,0,0,0,16,46.58L135.5,8.53a23.38,23.38,0,0,0-14.5-5Z" transform="translate(-5 -3)"/></svg>